SplineFontDB: 3.0
FontName: RisingSun-LightItalic
FullName: Rising Sun Light Italic
FamilyName: Rising Sun Light
Weight: Light
Copyright: Copyright (c) 2010 - 2013, Matt McInerney (matt@pixelspread.com), Pablo Impallari (impallari@gmail.com), Rodrigo Fuenzalida (hello@rfuenzalida.com) with Reserved Font Name RALEWAY.\nCopyright (c) 2016, Cristiano Sobral (cssobral2013@gmail.com), with Reserved Font Name RISING SUN.
Version: 1.000
ItalicAngle: -12
UnderlinePosition: -100
UnderlineWidth: 50
Ascent: 800
Descent: 200
InvalidEm: 0
sfntRevision: 0x00010000
LayerCount: 2
Layer: 0 1 "Back" 1
Layer: 1 1 "Fore" 0
XUID: [1021 368 144034212 32105]
StyleMap: 0x0001
FSType: 4
OS2Version: 3
OS2_WeightWidthSlopeOnly: 0
OS2_UseTypoMetrics: 0
CreationTime: 1372299720
ModificationTime: 1466169644
PfmFamily: 17
TTFWeight: 300
TTFWidth: 5
LineGap: 0
VLineGap: 0
Panose: 2 11 4 3 3 1 1 6 0 3
OS2TypoAscent: 800
OS2TypoAOffset: 0
OS2TypoDescent: -200
OS2TypoDOffset: 0
OS2TypoLinegap: 0
OS2WinAscent: 936
OS2WinAOffset: 0
OS2WinDescent: 244
OS2WinDOffset: 0
HheadAscent: 936
HheadAOffset: 0
HheadDescent: -244
HheadDOffset: 0
OS2SubXSize: 700
OS2SubYSize: 650
OS2SubXOff: 0
OS2SubYOff: 140
OS2SupXSize: 700
OS2SupYSize: 650
OS2SupXOff: 0
OS2SupYOff: 477
OS2StrikeYSize: 50
OS2StrikeYPos: 250
OS2CapHeight: 710
OS2XHeight: 520
OS2Vendor: 'pyrs'
OS2CodePages: 20000093.00000000
OS2UnicodeRanges: a00000ff.5000205b.00000000.00000000
Lookup: 1 0 0 "'aalt' Access All Alternates in Latin lookup 0" { "'aalt' Access All Alternates in Latin lookup 0 subtable"  } ['aalt' ('latn' <'dflt' > ) ]
Lookup: 3 0 0 "'aalt' Access All Alternates in Latin lookup 1" { "'aalt' Access All Alternates in Latin lookup 1 subtable"  } ['aalt' ('latn' <'dflt' > ) ]
Lookup: 1 0 0 "'smcp' Lowercase to Small Capitals in Latin lookup 2" { "'smcp' Lowercase to Small Capitals in Latin lookup 2 subtable"  } ['smcp' ('latn' <'dflt' > ) ]

StartChar: exclam
Encoding: 33 33 5
Width: 239
GlyphClass: 2
Flags: W
LayerCount: 2
Fore
SplineSet
77 218 m 1,0,-1
 182 717 l 1,1,-1
 233 717 l 1,2,-1
 127 218 l 1,3,-1
 77 218 l 1,0,-1
30 0 m 1,4,-1
 52 102 l 1,5,-1
 105 102 l 1,6,-1
 81 0 l 1,7,-1
 30 0 l 1,4,-1
EndSplineSet
EndChar

StartChar: quotedbl
Encoding: 34 34 6
Width: 259
GlyphClass: 2
Flags: W
LayerCount: 2
Fore
SplineSet
118 540 m 1,0,-1
 155 714 l 1,1,-1
 200 714 l 1,2,-1
 162 540 l 1,3,-1
 118 540 l 1,0,-1
194 540 m 1,4,-1
 231 714 l 1,5,-1
 276 714 l 1,6,-1
 239 540 l 1,7,-1
 194 540 l 1,4,-1
EndSplineSet
EndChar

StartChar: numbersign
Encoding: 35 35 7
Width: 641
GlyphClass: 2
Flags: W
LayerCount: 2
Fore
SplineSet
638 466 m 1,0,-1
 519 466 l 1,1,-1
 426 253 l 1,2,-1
 553 253 l 1,3,-1
 545 212 l 1,4,-1
 407 212 l 1,5,-1
 314 0 l 1,6,-1
 270 0 l 1,7,-1
 365 212 l 1,8,-1
 169 212 l 1,9,-1
 76 0 l 1,10,-1
 32 0 l 1,11,-1
 126 212 l 1,12,-1
 19 212 l 1,13,-1
 28 253 l 1,14,-1
 146 253 l 1,15,-1
 238 466 l 1,16,-1
 113 466 l 1,17,-1
 122 505 l 1,18,-1
 257 505 l 1,19,-1
 347 710 l 1,20,-1
 391 710 l 1,21,-1
 299 505 l 1,22,-1
 495 505 l 1,23,-1
 585 710 l 1,24,-1
 629 710 l 1,25,-1
 537 505 l 1,26,-1
 647 505 l 1,27,-1
 638 466 l 1,0,-1
383 253 m 1,28,-1
 476 466 l 1,29,-1
 281 466 l 1,30,-1
 188 253 l 1,31,-1
 383 253 l 1,28,-1
EndSplineSet
EndChar

StartChar: dollar
Encoding: 36 36 8
Width: 592
GlyphClass: 2
Flags: W
LayerCount: 2
Fore
SplineSet
552 592 m 1,0,1
 504 668 504 668 389 669 c 1,2,-1
 328 378 l 1,3,4
 374 367 374 367 412 354.5 c 128,-1,5
 450 342 450 342 476 323.5 c 128,-1,6
 502 305 502 305 516.5 279.5 c 128,-1,7
 531 254 531 254 531 217 c 0,8,9
 531 163 531 163 510 121.5 c 128,-1,10
 489 80 489 80 451.5 52 c 128,-1,11
 414 24 414 24 362 9 c 128,-1,12
 310 -6 310 -6 249 -6 c 1,13,-1
 229 -99 l 1,14,-1
 199 -99 l 1,15,-1
 219 -5 l 1,16,17
 80 2 80 2 -1 100 c 1,18,-1
 35 141 l 1,19,20
 64 98 64 98 113.5 71 c 128,-1,21
 163 44 163 44 231 39 c 1,22,-1
 293 334 l 1,23,24
 249 344 249 344 214.5 356 c 128,-1,25
 180 368 180 368 156 384.5 c 128,-1,26
 132 401 132 401 119.5 424.5 c 128,-1,27
 107 448 107 448 107 481 c 0,28,29
 107 533 107 533 127 575 c 128,-1,30
 147 617 147 617 182 647 c 128,-1,31
 217 677 217 677 266 694 c 128,-1,32
 315 711 315 711 372 714 c 1,33,-1
 394 815 l 1,34,-1
 424 815 l 1,35,-1
 402 715 l 1,36,37
 465 713 465 713 509.5 692.5 c 128,-1,38
 554 672 554 672 586 632 c 1,39,-1
 552 592 l 1,0,1
475 202 m 0,40,41
 475 254 475 254 435 281 c 128,-1,42
 395 308 395 308 317 328 c 1,43,-1
 256 39 l 1,44,45
 357 39 357 39 416 81 c 128,-1,46
 475 123 475 123 475 202 c 0,40,41
162 496 m 0,47,48
 162 448 162 448 197 425 c 128,-1,49
 232 402 232 402 304 384 c 1,50,-1
 364 668 l 1,51,52
 310 666 310 666 272 652 c 128,-1,53
 234 638 234 638 209.5 615 c 128,-1,54
 185 592 185 592 173.5 561.5 c 128,-1,55
 162 531 162 531 162 496 c 0,47,48
EndSplineSet
EndChar

StartChar: percent
Encoding: 37 37 9
Width: 672
GlyphClass: 2
Flags: W
LayerCount: 2
Fore
SplineSet
211 437 m 0,0,1
 160 437 160 437 129.5 470.5 c 128,-1,2
 99 504 99 504 99 553 c 0,3,4
 99 587 99 587 113.5 617 c 128,-1,5
 128 647 128 647 152 670 c 128,-1,6
 176 693 176 693 207 706.5 c 128,-1,7
 238 720 238 720 271 720 c 0,8,9
 322 720 322 720 352.5 686.5 c 128,-1,10
 383 653 383 653 383 603 c 0,11,12
 383 570 383 570 368.5 539.5 c 128,-1,13
 354 509 354 509 330 486.5 c 128,-1,14
 306 464 306 464 275 450.5 c 128,-1,15
 244 437 244 437 211 437 c 0,0,1
218 469 m 0,16,17
 242 469 242 469 264.5 480 c 128,-1,18
 287 491 287 491 304.5 509 c 128,-1,19
 322 527 322 527 332.5 550.5 c 128,-1,20
 343 574 343 574 343 599 c 0,21,22
 343 637 343 637 320.5 662.5 c 128,-1,23
 298 688 298 688 264 688 c 0,24,25
 240 688 240 688 217.5 677 c 128,-1,26
 195 666 195 666 177.5 648 c 128,-1,27
 160 630 160 630 149.5 606.5 c 128,-1,28
 139 583 139 583 139 558 c 0,29,30
 139 520 139 520 161 494.5 c 128,-1,31
 183 469 183 469 218 469 c 0,16,17
424 -10 m 0,32,33
 374 -10 374 -10 343 23.5 c 128,-1,34
 312 57 312 57 312 107 c 0,35,36
 312 140 312 140 327 170.5 c 128,-1,37
 342 201 342 201 366 223.5 c 128,-1,38
 390 246 390 246 421 259.5 c 128,-1,39
 452 273 452 273 484 273 c 0,40,41
 534 273 534 273 564.5 239.5 c 128,-1,42
 595 206 595 206 595 157 c 0,43,44
 595 123 595 123 580.5 93 c 128,-1,45
 566 63 566 63 542 40 c 128,-1,46
 518 17 518 17 487.5 3.5 c 128,-1,47
 457 -10 457 -10 424 -10 c 0,32,33
430 22 m 0,48,49
 454 22 454 22 476.5 33 c 128,-1,50
 499 44 499 44 516.5 62 c 128,-1,51
 534 80 534 80 545 103 c 128,-1,52
 556 126 556 126 556 151 c 0,53,54
 556 189 556 189 533.5 215 c 128,-1,55
 511 241 511 241 477 241 c 0,56,57
 453 241 453 241 430.5 230 c 128,-1,58
 408 219 408 219 390.5 201 c 128,-1,59
 373 183 373 183 362 159.5 c 128,-1,60
 351 136 351 136 351 111 c 0,61,62
 351 73 351 73 373 47.5 c 128,-1,63
 395 22 395 22 430 22 c 0,48,49
-1 21 m 1,64,-1
 672 713 l 1,65,-1
 695 690 l 1,66,-1
 22 -3 l 1,67,-1
 -1 21 l 1,64,-1
EndSplineSet
EndChar

StartChar: ampersand
Encoding: 38 38 10
Width: 670
GlyphClass: 2
Flags: W
LayerCount: 2
Fore
SplineSet
414 110 m 1,0,1
 364 53 364 53 305.5 21.5 c 128,-1,2
 247 -10 247 -10 186 -10 c 0,3,4
 149 -10 149 -10 118.5 2 c 128,-1,5
 88 14 88 14 66 36 c 128,-1,6
 44 58 44 58 31.5 88.5 c 128,-1,7
 19 119 19 119 19 155 c 0,8,9
 19 232 19 232 70 290.5 c 128,-1,10
 121 349 121 349 213 404 c 1,11,12
 182 452 182 452 169 484 c 128,-1,13
 156 516 156 516 156 545 c 0,14,15
 156 580 156 580 172.5 611.5 c 128,-1,16
 189 643 189 643 217 667 c 128,-1,17
 245 691 245 691 281.5 705 c 128,-1,18
 318 719 318 719 359 719 c 0,19,20
 413 719 413 719 454.5 691.5 c 128,-1,21
 496 664 496 664 518 614 c 1,22,-1
 483 583 l 1,23,24
 466 627 466 627 431 653 c 128,-1,25
 396 679 396 679 351 679 c 0,26,27
 322 679 322 679 295 668.5 c 128,-1,28
 268 658 268 658 247.5 640.5 c 128,-1,29
 227 623 227 623 215 600 c 128,-1,30
 203 577 203 577 203 552 c 0,31,32
 203 528 203 528 216.5 496 c 128,-1,33
 230 464 230 464 265 415 c 2,34,-1
 423 189 l 1,35,36
 453 237 453 237 475.5 294 c 128,-1,37
 498 351 498 351 510 416 c 1,38,-1
 655 416 l 1,39,-1
 646 374 l 1,40,-1
 548 374 l 1,41,42
 532 310 532 310 506.5 254.5 c 128,-1,43
 481 199 481 199 448 152 c 1,44,-1
 555 0 l 1,45,-1
 490 0 l 1,46,-1
 414 110 l 1,0,1
196 33 m 0,47,48
 248 33 248 33 298 62.5 c 128,-1,49
 348 92 348 92 391 144 c 1,50,-1
 238 367 l 1,51,-1
 235 370 l 1,52,53
 154 321 154 321 111.5 271.5 c 128,-1,54
 69 222 69 222 69 161 c 0,55,56
 69 102 69 102 104.5 67.5 c 128,-1,57
 140 33 140 33 196 33 c 0,47,48
EndSplineSet
EndChar

StartChar: quotesingle
Encoding: 39 39 11
Width: 182
GlyphClass: 2
Flags: W
LayerCount: 2
Fore
SplineSet
118 539 m 1,0,-1
 155 714 l 1,1,-1
 200 714 l 1,2,-1
 162 539 l 1,3,-1
 118 539 l 1,0,-1
EndSplineSet
EndChar

StartChar: parenleft
Encoding: 40 40 12
Width: 250
GlyphClass: 2
Flags: W
LayerCount: 2
Fore
SplineSet
46 258 m 0,0,1
 46 325 46 325 63.5 385.5 c 128,-1,2
 81 446 81 446 111.5 504 c 128,-1,3
 142 562 142 562 183 618.5 c 128,-1,4
 224 675 224 675 270 734 c 1,5,-1
 304 714 l 1,6,7
 272 676 272 676 235.5 624 c 128,-1,8
 199 572 199 572 167.5 512.5 c 128,-1,9
 136 453 136 453 115 389.5 c 128,-1,10
 94 326 94 326 94 266 c 0,11,12
 94 235 94 235 97.5 199.5 c 128,-1,13
 101 164 101 164 108 128 c 128,-1,14
 115 92 115 92 125 56.5 c 128,-1,15
 135 21 135 21 149 -11 c 1,16,-1
 108 -33 l 1,17,18
 79 35 79 35 62.5 112 c 128,-1,19
 46 189 46 189 46 258 c 0,0,1
EndSplineSet
EndChar

StartChar: parenright
Encoding: 41 41 13
Width: 250
GlyphClass: 2
Flags: W
LayerCount: 2
Fore
SplineSet
224 433 m 0,0,1
 224 372 224 372 208 313.5 c 128,-1,2
 192 255 192 255 162.5 197.5 c 128,-1,3
 133 140 133 140 92 83 c 128,-1,4
 51 26 51 26 1 -33 c 1,5,-1
 -32 -11 l 1,6,7
 14 43 14 43 52 97 c 128,-1,8
 90 151 90 151 117.5 206 c 128,-1,9
 145 261 145 261 160 315.5 c 128,-1,10
 175 370 175 370 175 424 c 0,11,12
 175 462 175 462 170.5 503 c 128,-1,13
 166 544 166 544 158.5 583 c 128,-1,14
 151 622 151 622 141 656 c 128,-1,15
 131 690 131 690 121 714 c 1,16,-1
 164 734 l 1,17,18
 190 664 190 664 207 586 c 128,-1,19
 224 508 224 508 224 433 c 0,0,1
EndSplineSet
EndChar

StartChar: asterisk
Encoding: 42 42 14
Width: 306
GlyphClass: 2
Flags: W
LayerCount: 2
Fore
SplineSet
138 553 m 1,0,-1
 191 613 l 1,1,-1
 132 635 l 1,2,-1
 147 664 l 1,3,-1
 207 640 l 1,4,-1
 220 712 l 1,5,-1
 254 712 l 1,6,-1
 237 640 l 1,7,-1
 308 664 l 1,8,-1
 309 635 l 1,9,-1
 241 613 l 1,10,-1
 269 553 l 1,11,-1
 239 535 l 1,12,-1
 213 596 l 1,13,-1
 159 535 l 1,14,-1
 138 553 l 1,0,-1
EndSplineSet
EndChar

StartChar: plus
Encoding: 43 43 15
Width: 413
GlyphClass: 2
Flags: W
LayerCount: 2
Fore
SplineSet
369 376 m 1,0,-1
 369 334 l 1,1,-1
 239 334 l 1,2,-1
 239 193 l 1,3,-1
 193 193 l 1,4,-1
 193 334 l 1,5,-1
 62 334 l 1,6,-1
 62 376 l 1,7,-1
 193 376 l 1,8,-1
 193 517 l 1,9,-1
 239 517 l 1,10,-1
 239 376 l 1,11,-1
 369 376 l 1,0,-1
EndSplineSet
EndChar

StartChar: comma
Encoding: 44 44 16
Width: 235
GlyphClass: 2
Flags: W
LayerCount: 2
Fore
SplineSet
15 -81 m 1,0,-1
 46 -2 l 1,1,-1
 28 -2 l 1,2,-1
 46 85 l 1,3,-1
 97 85 l 1,4,-1
 78 -2 l 1,5,-1
 42 -81 l 1,6,-1
 15 -81 l 1,0,-1
EndSplineSet
EndChar

StartChar: hyphen
Encoding: 45 45 17
Width: 405
GlyphClass: 2
Flags: W
LayerCount: 2
Fore
SplineSet
54 249 m 1,0,-1
 64 295 l 1,1,-1
 338 295 l 1,2,-1
 328 249 l 1,3,-1
 54 249 l 1,0,-1
EndSplineSet
EndChar

StartChar: period
Encoding: 46 46 18
Width: 177
GlyphClass: 2
Flags: W
LayerCount: 2
Fore
SplineSet
4 0 m 1,0,-1
 23 85 l 1,1,-1
 66 85 l 1,2,-1
 48 0 l 1,3,-1
 4 0 l 1,0,-1
EndSplineSet
EndChar

StartChar: slash
Encoding: 47 47 19
Width: 574
GlyphClass: 2
Flags: W
LayerCount: 2
Fore
SplineSet
626 710 m 1,0,-1
 31 0 l 1,1,-1
 -26 0 l 1,2,-1
 569 710 l 1,3,-1
 626 710 l 1,0,-1
EndSplineSet
EndChar

StartChar: zero
Encoding: 48 48 20
Width: 652
GlyphClass: 2
Flags: W
LayerCount: 2
Fore
SplineSet
260 -10 m 0,0,1
 205 -10 205 -10 165.5 15.5 c 128,-1,2
 126 41 126 41 100.5 81.5 c 128,-1,3
 75 122 75 122 63 172.5 c 128,-1,4
 51 223 51 223 51 274 c 0,5,6
 51 323 51 323 64 375 c 128,-1,7
 77 427 77 427 101 475 c 128,-1,8
 125 523 125 523 158 566 c 128,-1,9
 191 609 191 609 231.5 641 c 128,-1,10
 272 673 272 673 318 691.5 c 128,-1,11
 364 710 364 710 413 710 c 0,12,13
 468 710 468 710 507.5 684 c 128,-1,14
 547 658 547 658 572.5 617 c 128,-1,15
 598 576 598 576 609.5 525.5 c 128,-1,16
 621 475 621 475 621 425 c 0,17,18
 621 350 621 350 592.5 273 c 128,-1,19
 564 196 564 196 514.5 133 c 128,-1,20
 465 70 465 70 399.5 30 c 128,-1,21
 334 -10 334 -10 260 -10 c 0,0,1
270 37 m 0,22,23
 335 37 335 37 390 75 c 128,-1,24
 445 113 445 113 484.5 170.5 c 128,-1,25
 524 228 524 228 546.5 295 c 128,-1,26
 569 362 569 362 569 420 c 0,27,28
 569 465 569 465 559 509 c 128,-1,29
 549 553 549 553 528.5 587 c 128,-1,30
 508 621 508 621 476.5 642 c 128,-1,31
 445 663 445 663 403 663 c 0,32,33
 359 663 359 663 319.5 645 c 128,-1,34
 280 627 280 627 247 596 c 128,-1,35
 214 565 214 565 187.5 525 c 128,-1,36
 161 485 161 485 142.5 440.5 c 128,-1,37
 124 396 124 396 114 351 c 128,-1,38
 104 306 104 306 104 266 c 0,39,40
 104 221 104 221 113.5 179.5 c 128,-1,41
 123 138 123 138 143 106.5 c 128,-1,42
 163 75 163 75 194.5 56 c 128,-1,43
 226 37 226 37 270 37 c 0,22,23
EndSplineSet
Substitution2: "'lnum' Lining Figures in Latin lookup 3 subtable" zero.lnum
Substitution2: "'aalt' Access All Alternates in Latin lookup 0 subtable" zero.lnum
EndChar

StartChar: one
Encoding: 49 49 21
Width: 375
GlyphClass: 2
Flags: W
LayerCount: 2
Fore
SplineSet
9 46 m 1,0,-1
 136 46 l 1,1,-1
 266 660 l 1,2,3
 256 648 256 648 235.5 633.5 c 128,-1,4
 215 619 215 619 191 605.5 c 128,-1,5
 167 592 167 592 142.5 583 c 128,-1,6
 118 574 118 574 99 574 c 1,7,-1
 109 621 l 1,8,9
 134 621 134 621 163.5 635.5 c 128,-1,10
 193 650 193 650 218 668 c 128,-1,11
 243 686 243 686 260.5 701.5 c 128,-1,12
 278 717 278 717 279 719 c 2,13,-1
 330 719 l 1,14,-1
 187 46 l 1,15,-1
 307 46 l 1,16,-1
 297 0 l 1,17,-1
 -1 0 l 1,18,-1
 9 46 l 1,0,-1
EndSplineSet
Substitution2: "'lnum' Lining Figures in Latin lookup 3 subtable" one.lnum
Substitution2: "'aalt' Access All Alternates in Latin lookup 0 subtable" one.lnum
EndChar

StartChar: two
Encoding: 50 50 22
Width: 547
GlyphClass: 2
Flags: W
LayerCount: 2
Fore
SplineSet
-15 0 m 1,0,1
 -3 69 -3 69 20.5 120.5 c 128,-1,2
 44 172 44 172 76.5 210 c 128,-1,3
 109 248 109 248 150.5 275 c 128,-1,4
 192 302 192 302 240 323 c 0,5,6
 281 340 281 340 325.5 356.5 c 128,-1,7
 370 373 370 373 406.5 396.5 c 128,-1,8
 443 420 443 420 467 456 c 128,-1,9
 491 492 491 492 491 548 c 0,10,11
 491 573 491 573 483.5 595.5 c 128,-1,12
 476 618 476 618 460.5 635 c 128,-1,13
 445 652 445 652 420.5 662 c 128,-1,14
 396 672 396 672 362 672 c 0,15,16
 323 672 323 672 289.5 660.5 c 128,-1,17
 256 649 256 649 228.5 632.5 c 128,-1,18
 201 616 201 616 180 597.5 c 128,-1,19
 159 579 159 579 146 564 c 1,20,-1
 119 595 l 1,21,22
 123 600 123 600 143.5 620 c 128,-1,23
 164 640 164 640 198 662 c 128,-1,24
 232 684 232 684 277.5 701.5 c 128,-1,25
 323 719 323 719 378 719 c 0,26,27
 421 719 421 719 453 706 c 128,-1,28
 485 693 485 693 506 670.5 c 128,-1,29
 527 648 527 648 537 618.5 c 128,-1,30
 547 589 547 589 547 556 c 0,31,32
 547 495 547 495 521.5 452 c 128,-1,33
 496 409 496 409 457 379 c 128,-1,34
 418 349 418 349 371 328.5 c 128,-1,35
 324 308 324 308 282 291 c 0,36,37
 219 266 219 266 178 236.5 c 128,-1,38
 137 207 137 207 112 175 c 128,-1,39
 87 143 87 143 75 110 c 128,-1,40
 63 77 63 77 57 46 c 1,41,-1
 442 46 l 1,42,-1
 433 0 l 1,43,-1
 -15 0 l 1,44,-1
 -15 0 l 1,0,1
EndSplineSet
Substitution2: "'lnum' Lining Figures in Latin lookup 3 subtable" two.lnum
Substitution2: "'aalt' Access All Alternates in Latin lookup 0 subtable" two.lnum
EndChar

StartChar: three
Encoding: 51 51 23
Width: 557
GlyphClass: 2
Flags: W
LayerCount: 2
Fore
SplineSet
210 -9 m 0,0,1
 167 -9 167 -9 131.5 2.5 c 128,-1,2
 96 14 96 14 70.5 36 c 128,-1,3
 45 58 45 58 31 90.5 c 128,-1,4
 17 123 17 123 17 164 c 1,5,-1
 55 187 l 1,6,7
 55 118 55 118 99 78 c 128,-1,8
 143 38 143 38 218 38 c 0,9,10
 260 38 260 38 298.5 51 c 128,-1,11
 337 64 337 64 367 87 c 128,-1,12
 397 110 397 110 414.5 141.5 c 128,-1,13
 432 173 432 173 432 209 c 0,14,15
 432 270 432 270 381 304.5 c 128,-1,16
 330 339 330 339 239 339 c 2,17,-1
 207 339 l 1,18,-1
 216 384 l 1,19,-1
 249 384 l 2,20,21
 359 384 359 384 421.5 426 c 128,-1,22
 484 468 484 468 484 544 c 0,23,24
 484 604 484 604 445.5 638.5 c 128,-1,25
 407 673 407 673 342 673 c 0,26,27
 281 673 281 673 228 643.5 c 128,-1,28
 175 614 175 614 147 567 c 1,29,-1
 117 599 l 1,30,31
 135 627 135 627 161.5 649 c 128,-1,32
 188 671 188 671 219 686.5 c 128,-1,33
 250 702 250 702 284.5 710.5 c 128,-1,34
 319 719 319 719 354 719 c 0,35,36
 396 719 396 719 430 706.5 c 128,-1,37
 464 694 464 694 488 672 c 128,-1,38
 512 650 512 650 525 619 c 128,-1,39
 538 588 538 588 538 551 c 0,40,41
 538 482 538 482 494 432.5 c 128,-1,42
 450 383 450 383 366 363 c 1,43,44
 422 351 422 351 453 310 c 128,-1,45
 484 269 484 269 484 214 c 0,46,47
 484 165 484 165 460.5 124 c 128,-1,48
 437 83 437 83 398.5 53.5 c 128,-1,49
 360 24 360 24 310.5 7.5 c 128,-1,50
 261 -9 261 -9 210 -9 c 0,0,1
EndSplineSet
Substitution2: "'lnum' Lining Figures in Latin lookup 3 subtable" three.lnum
Substitution2: "'aalt' Access All Alternates in Latin lookup 0 subtable" three.lnum
EndChar

StartChar: four
Encoding: 52 52 24
Width: 539
GlyphClass: 2
Flags: W
LayerCount: 2
Fore
SplineSet
305 0 m 1,0,-1
 347 198 l 1,1,-1
 5 198 l 1,2,-1
 15 242 l 1,3,-1
 471 710 l 1,4,-1
 506 710 l 1,5,-1
 407 244 l 1,6,-1
 491 244 l 1,7,-1
 481 198 l 1,8,-1
 397 198 l 1,9,-1
 355 0 l 1,10,-1
 305 0 l 1,0,-1
361 244 m 1,11,-1
 443 630 l 1,12,-1
 71 244 l 1,13,-1
 361 244 l 1,11,-1
EndSplineSet
Substitution2: "'lnum' Lining Figures in Latin lookup 3 subtable" four.lnum
Substitution2: "'aalt' Access All Alternates in Latin lookup 0 subtable" four.lnum
EndChar

StartChar: five
Encoding: 53 53 25
Width: 536
GlyphClass: 2
Flags: W
LayerCount: 2
Fore
SplineSet
193 -10 m 0,0,1
 121 -10 121 -10 72 28.5 c 128,-1,2
 23 67 23 67 7 130 c 1,3,-1
 48 151 l 1,4,5
 63 99 63 99 104 67.5 c 128,-1,6
 145 36 145 36 202 36 c 0,7,8
 245 36 245 36 285.5 53 c 128,-1,9
 326 70 326 70 357.5 100 c 128,-1,10
 389 130 389 130 407.5 170.5 c 128,-1,11
 426 211 426 211 426 258 c 0,12,13
 426 323 426 323 388 363.5 c 128,-1,14
 350 404 350 404 287 404 c 0,15,16
 239 404 239 404 192 381.5 c 128,-1,17
 145 359 145 359 109 317 c 1,18,-1
 61 317 l 1,19,20
 64 324 64 324 72.5 345 c 128,-1,21
 81 366 81 366 92.5 395 c 128,-1,22
 104 424 104 424 118 458.5 c 128,-1,23
 132 493 132 493 146 528 c 0,24,25
 179 610 179 610 219 710 c 1,26,-1
 543 710 l 1,27,-1
 533 663 l 1,28,-1
 247 663 l 1,29,-1
 136 382 l 1,30,31
 171 414 171 414 213.5 431.5 c 128,-1,32
 256 449 256 449 301 449 c 0,33,34
 340 449 340 449 373 435.5 c 128,-1,35
 406 422 406 422 429 398 c 128,-1,36
 452 374 452 374 465 340.5 c 128,-1,37
 478 307 478 307 478 267 c 0,38,39
 478 207 478 207 453.5 156 c 128,-1,40
 429 105 429 105 389.5 68 c 128,-1,41
 350 31 350 31 298.5 10.5 c 128,-1,42
 247 -10 247 -10 193 -10 c 0,0,1
EndSplineSet
Substitution2: "'lnum' Lining Figures in Latin lookup 3 subtable" five.lnum
Substitution2: "'aalt' Access All Alternates in Latin lookup 0 subtable" five.lnum
EndChar

StartChar: six
Encoding: 54 54 26
Width: 585
GlyphClass: 2
Flags: W
LayerCount: 2
Fore
SplineSet
237 -10 m 0,0,1
 150 -10 150 -10 99 48 c 128,-1,2
 48 106 48 106 48 208 c 0,3,4
 48 307 48 307 73.5 398.5 c 128,-1,5
 99 490 99 490 145 560.5 c 128,-1,6
 191 631 191 631 255 673 c 128,-1,7
 319 715 319 715 397 715 c 0,8,9
 464 715 464 715 509.5 678 c 128,-1,10
 555 641 555 641 566 577 c 1,11,-1
 526 550 l 1,12,13
 518 604 518 604 480.5 637 c 128,-1,14
 443 670 443 670 386 670 c 0,15,16
 342 670 342 670 301 647.5 c 128,-1,17
 260 625 260 625 225 581.5 c 128,-1,18
 190 538 190 538 162.5 475 c 128,-1,19
 135 412 135 412 117 331 c 1,20,21
 135 363 135 363 160.5 389.5 c 128,-1,22
 186 416 186 416 216 435 c 128,-1,23
 246 454 246 454 279 464.5 c 128,-1,24
 312 475 312 475 346 475 c 0,25,26
 388 475 388 475 422.5 459.5 c 128,-1,27
 457 444 457 444 481 417.5 c 128,-1,28
 505 391 505 391 518.5 355 c 128,-1,29
 532 319 532 319 532 277 c 0,30,31
 532 219 532 219 507 167 c 128,-1,32
 482 115 482 115 441 75.5 c 128,-1,33
 400 36 400 36 347 13 c 128,-1,34
 294 -10 294 -10 237 -10 c 0,0,1
248 35 m 0,35,36
 292 35 292 35 334 54 c 128,-1,37
 376 73 376 73 409 105 c 128,-1,38
 442 137 442 137 462 179 c 128,-1,39
 482 221 482 221 482 268 c 0,40,41
 482 302 482 302 471 332 c 128,-1,42
 460 362 460 362 440 384 c 128,-1,43
 420 406 420 406 392.5 419 c 128,-1,44
 365 432 365 432 332 432 c 0,45,46
 288 432 288 432 246 413 c 128,-1,47
 204 394 204 394 171 361.5 c 128,-1,48
 138 329 138 329 117.5 287 c 128,-1,49
 97 245 97 245 97 199 c 0,50,51
 97 165 97 165 108 135 c 128,-1,52
 119 105 119 105 139 83 c 128,-1,53
 159 61 159 61 187 48 c 128,-1,54
 215 35 215 35 248 35 c 0,35,36
EndSplineSet
Substitution2: "'lnum' Lining Figures in Latin lookup 3 subtable" six.lnum
Substitution2: "'aalt' Access All Alternates in Latin lookup 0 subtable" six.lnum
EndChar

StartChar: seven
Encoding: 55 55 27
Width: 486
GlyphClass: 2
Flags: W
LayerCount: 2
Fore
SplineSet
476 663 m 1,0,-1
 100 663 l 1,1,-1
 109 710 l 1,2,-1
 567 710 l 1,3,-1
 72 0 l 1,4,-1
 16 0 l 1,5,-1
 476 663 l 1,0,-1
EndSplineSet
Substitution2: "'lnum' Lining Figures in Latin lookup 3 subtable" seven.lnum
Substitution2: "'aalt' Access All Alternates in Latin lookup 0 subtable" seven.lnum
EndChar

StartChar: eight
Encoding: 56 56 28
Width: 565
GlyphClass: 2
Flags: W
LayerCount: 2
Fore
SplineSet
496 226 m 0,0,1
 496 174 496 174 472 131 c 128,-1,2
 448 88 448 88 408 57.5 c 128,-1,3
 368 27 368 27 317.5 10 c 128,-1,4
 267 -7 267 -7 214 -7 c 0,5,6
 170 -7 170 -7 135 6.5 c 128,-1,7
 100 20 100 20 75.5 43 c 128,-1,8
 51 66 51 66 38 97.5 c 128,-1,9
 25 129 25 129 25 164 c 0,10,11
 25 206 25 206 42 241.5 c 128,-1,12
 59 277 59 277 85.5 304.5 c 128,-1,13
 112 332 112 332 145 351.5 c 128,-1,14
 178 371 178 371 210 381 c 1,15,16
 172 397 172 397 146.5 430 c 128,-1,17
 121 463 121 463 121 508 c 0,18,19
 121 556 121 556 144 593.5 c 128,-1,20
 167 631 167 631 203.5 657 c 128,-1,21
 240 683 240 683 284 696.5 c 128,-1,22
 328 710 328 710 370 710 c 0,23,24
 403 710 403 710 434.5 700 c 128,-1,25
 466 690 466 690 490.5 671.5 c 128,-1,26
 515 653 515 653 529.5 625.5 c 128,-1,27
 544 598 544 598 544 563 c 0,28,29
 544 529 544 529 530.5 500.5 c 128,-1,30
 517 472 517 472 495.5 449 c 128,-1,31
 474 426 474 426 446 409 c 128,-1,32
 418 392 418 392 388 381 c 1,33,34
 435 363 435 363 465.5 322.5 c 128,-1,35
 496 282 496 282 496 226 c 0,0,1
445 224 m 0,36,37
 445 256 445 256 432 281 c 128,-1,38
 419 306 419 306 397.5 323.5 c 128,-1,39
 376 341 376 341 348.5 350 c 128,-1,40
 321 359 321 359 293 359 c 0,41,42
 257 359 257 359 218.5 345 c 128,-1,43
 180 331 180 331 148.5 306.5 c 128,-1,44
 117 282 117 282 96.5 247.5 c 128,-1,45
 76 213 76 213 76 171 c 0,46,47
 76 139 76 139 89 114.5 c 128,-1,48
 102 90 102 90 123.5 72.5 c 128,-1,49
 145 55 145 55 172 46 c 128,-1,50
 199 37 199 37 227 37 c 0,51,52
 263 37 263 37 302 50.5 c 128,-1,53
 341 64 341 64 372.5 88.5 c 128,-1,54
 404 113 404 113 424.5 147.5 c 128,-1,55
 445 182 445 182 445 224 c 0,36,37
171 511 m 0,56,57
 171 484 171 484 182.5 463.5 c 128,-1,58
 194 443 194 443 213 429 c 128,-1,59
 232 415 232 415 255.5 407.5 c 128,-1,60
 279 400 279 400 303 400 c 0,61,62
 333 400 333 400 366.5 410.5 c 128,-1,63
 400 421 400 421 427.5 440.5 c 128,-1,64
 455 460 455 460 473.5 488.5 c 128,-1,65
 492 517 492 517 492 554 c 0,66,67
 492 580 492 580 481.5 600.5 c 128,-1,68
 471 621 471 621 452.5 635 c 128,-1,69
 434 649 434 649 410 656.5 c 128,-1,70
 386 664 386 664 359 664 c 0,71,72
 325 664 325 664 291.5 653 c 128,-1,73
 258 642 258 642 231 622 c 128,-1,74
 204 602 204 602 187.5 574 c 128,-1,75
 171 546 171 546 171 511 c 0,56,57
EndSplineSet
Substitution2: "'lnum' Lining Figures in Latin lookup 3 subtable" eight.lnum
Substitution2: "'aalt' Access All Alternates in Latin lookup 0 subtable" eight.lnum
EndChar

StartChar: nine
Encoding: 57 57 29
Width: 585
GlyphClass: 2
Flags: W
LayerCount: 2
Fore
SplineSet
75 428 m 0,0,1
 75 486 75 486 100 538 c 128,-1,2
 125 590 125 590 166 629.5 c 128,-1,3
 207 669 207 669 260 692 c 128,-1,4
 313 715 313 715 370 715 c 0,5,6
 458 715 458 715 508.5 657 c 128,-1,7
 559 599 559 599 559 497 c 0,8,9
 559 399 559 399 533.5 307.5 c 128,-1,10
 508 216 508 216 462.5 145.5 c 128,-1,11
 417 75 417 75 353 32.5 c 128,-1,12
 289 -10 289 -10 211 -10 c 0,13,14
 144 -10 144 -10 98.5 27 c 128,-1,15
 53 64 53 64 41 128 c 1,16,-1
 81 155 l 1,17,18
 89 101 89 101 127 68.5 c 128,-1,19
 165 36 165 36 221 36 c 0,20,21
 265 36 265 36 306 58.5 c 128,-1,22
 347 81 347 81 382 124.5 c 128,-1,23
 417 168 417 168 444.5 230.5 c 128,-1,24
 472 293 472 293 490 374 c 1,25,26
 472 342 472 342 447 315.5 c 128,-1,27
 422 289 422 289 392 270 c 128,-1,28
 362 251 362 251 328.5 240.5 c 128,-1,29
 295 230 295 230 261 230 c 0,30,31
 219 230 219 230 185 245.5 c 128,-1,32
 151 261 151 261 126.5 288 c 128,-1,33
 102 315 102 315 88.5 351 c 128,-1,34
 75 387 75 387 75 428 c 0,0,1
360 671 m 0,35,36
 316 671 316 671 274 652 c 128,-1,37
 232 633 232 633 199 601 c 128,-1,38
 166 569 166 569 146 526.5 c 128,-1,39
 126 484 126 484 126 438 c 0,40,41
 126 404 126 404 137 374 c 128,-1,42
 148 344 148 344 167.5 321.5 c 128,-1,43
 187 299 187 299 215 286 c 128,-1,44
 243 273 243 273 276 273 c 0,45,46
 319 273 319 273 361.5 292 c 128,-1,47
 404 311 404 311 437 343.5 c 128,-1,48
 470 376 470 376 490.5 418 c 128,-1,49
 511 460 511 460 511 506 c 0,50,51
 511 540 511 540 500 570 c 128,-1,52
 489 600 489 600 469 622.5 c 128,-1,53
 449 645 449 645 421 658 c 128,-1,54
 393 671 393 671 360 671 c 0,35,36
EndSplineSet
Substitution2: "'lnum' Lining Figures in Latin lookup 3 subtable" nine.lnum
Substitution2: "'aalt' Access All Alternates in Latin lookup 0 subtable" nine.lnum
EndChar

StartChar: colon
Encoding: 58 58 30
Width: 174
GlyphClass: 2
Flags: W
LayerCount: 2
Fore
SplineSet
92 432 m 1,0,-1
 111 517 l 1,1,-1
 154 517 l 1,2,-1
 136 432 l 1,3,-1
 92 432 l 1,0,-1
1 0 m 1,4,-1
 19 85 l 1,5,-1
 62 85 l 1,6,-1
 44 0 l 1,7,-1
 1 0 l 1,4,-1
EndSplineSet
EndChar

StartChar: semicolon
Encoding: 59 59 31
Width: 179
GlyphClass: 2
Flags: W
LayerCount: 2
Fore
SplineSet
94 432 m 1,0,-1
 112 517 l 1,1,-1
 156 517 l 1,2,-1
 137 432 l 1,3,-1
 94 432 l 1,0,-1
-12 -81 m 1,4,-1
 19 -2 l 1,5,-1
 1 -2 l 1,6,-1
 20 85 l 1,7,-1
 70 85 l 1,8,-1
 51 -2 l 1,9,-1
 15 -81 l 1,10,-1
 -12 -81 l 1,4,-1
EndSplineSet
EndChar

StartChar: less
Encoding: 60 60 32
Width: 544
GlyphClass: 2
Flags: W
LayerCount: 2
Fore
SplineSet
31 273 m 1,0,-1
 449 524 l 1,1,-1
 449 470 l 1,2,-1
 103 259 l 1,3,-1
 449 48 l 1,4,-1
 449 -7 l 1,5,-1
 31 243 l 1,6,-1
 31 273 l 1,0,-1
EndSplineSet
EndChar

StartChar: equal
Encoding: 61 61 33
Width: 464
GlyphClass: 2
Flags: W
LayerCount: 2
Fore
SplineSet
77 208 m 1,0,-1
 77 246 l 1,1,-1
 375 246 l 1,2,-1
 375 208 l 1,3,-1
 77 208 l 1,0,-1
77 306 m 1,4,-1
 77 344 l 1,5,-1
 375 344 l 1,6,-1
 375 306 l 1,7,-1
 77 306 l 1,4,-1
EndSplineSet
EndChar

StartChar: greater
Encoding: 62 62 34
Width: 543
GlyphClass: 2
Flags: W
LayerCount: 2
Fore
SplineSet
495 243 m 1,0,-1
 76 -7 l 1,1,-1
 76 48 l 1,2,-1
 422 259 l 1,3,-1
 76 470 l 1,4,-1
 76 524 l 1,5,-1
 495 273 l 1,6,-1
 495 243 l 1,0,-1
EndSplineSet
EndChar

StartChar: question
Encoding: 63 63 35
Width: 455
GlyphClass: 2
Flags: W
LayerCount: 2
Fore
SplineSet
131 193 m 1,0,1
 147 270 147 270 176 308.5 c 128,-1,2
 205 347 205 347 249 370 c 0,3,4
 275 384 275 384 305.5 398 c 128,-1,5
 336 412 336 412 362 432.5 c 128,-1,6
 388 453 388 453 405 484.5 c 128,-1,7
 422 516 422 516 422 564 c 0,8,9
 422 620 422 620 389 648 c 128,-1,10
 356 676 356 676 310 676 c 0,11,12
 257 676 257 676 207.5 646 c 128,-1,13
 158 616 158 616 126 568 c 1,14,-1
 94 590 l 1,15,16
 114 621 114 621 140.5 645 c 128,-1,17
 167 669 167 669 196.5 685.5 c 128,-1,18
 226 702 226 702 258 710.5 c 128,-1,19
 290 719 290 719 320 719 c 256,20,21
 350 719 350 719 377 709.5 c 128,-1,22
 404 700 404 700 424.5 681.5 c 128,-1,23
 445 663 445 663 457 635 c 128,-1,24
 469 607 469 607 469 570 c 0,25,26
 469 518 469 518 453.5 483 c 128,-1,27
 438 448 438 448 412.5 423 c 128,-1,28
 387 398 387 398 355 381 c 128,-1,29
 323 364 323 364 289 349 c 0,30,31
 271 341 271 341 254 330 c 128,-1,32
 237 319 237 319 222 302 c 128,-1,33
 207 285 207 285 195 258.5 c 128,-1,34
 183 232 183 232 175 193 c 1,35,-1
 131 193 l 1,0,1
91 0 m 1,36,-1
 112 98 l 1,37,-1
 155 98 l 1,38,-1
 135 0 l 1,39,-1
 91 0 l 1,36,-1
EndSplineSet
EndChar

StartChar: at
Encoding: 64 64 36
Width: 799
GlyphClass: 2
Flags: W
LayerCount: 2
Fore
SplineSet
553 15 m 0,0,1
 585 15 585 15 613 42 c 128,-1,2
 641 69 641 69 661.5 111 c 128,-1,3
 682 153 682 153 694 203.5 c 128,-1,4
 706 254 706 254 706 301 c 0,5,6
 706 358 706 358 688 408 c 128,-1,7
 670 458 670 458 636.5 494.5 c 128,-1,8
 603 531 603 531 555.5 552.5 c 128,-1,9
 508 574 508 574 449 574 c 0,10,11
 375 574 375 574 304 540.5 c 128,-1,12
 233 507 233 507 177.5 450.5 c 128,-1,13
 122 394 122 394 88.5 319 c 128,-1,14
 55 244 55 244 55 161 c 0,15,16
 55 101 55 101 73 50.5 c 128,-1,17
 91 0 91 0 124.5 -37.5 c 128,-1,18
 158 -75 158 -75 204.5 -96 c 128,-1,19
 251 -117 251 -117 308 -117 c 0,20,21
 347 -117 347 -117 384 -107.5 c 128,-1,22
 421 -98 421 -98 459 -79 c 1,23,-1
 465 -106 l 1,24,25
 423 -126 423 -126 380 -136 c 128,-1,26
 337 -146 337 -146 298 -146 c 0,27,28
 238 -146 238 -146 188 -123 c 128,-1,29
 138 -100 138 -100 102 -59.5 c 128,-1,30
 66 -19 66 -19 45.5 36.5 c 128,-1,31
 25 92 25 92 25 158 c 0,32,33
 25 219 25 219 42.5 276 c 128,-1,34
 60 333 60 333 90 382.5 c 128,-1,35
 120 432 120 432 161.5 472.5 c 128,-1,36
 203 513 203 513 250.5 542 c 128,-1,37
 298 571 298 571 350.5 587 c 128,-1,38
 403 603 403 603 455 603 c 0,39,40
 518 603 518 603 570 580 c 128,-1,41
 622 557 622 557 659 517.5 c 128,-1,42
 696 478 696 478 716 424 c 128,-1,43
 736 370 736 370 736 308 c 0,44,45
 736 259 736 259 723 202 c 128,-1,46
 710 145 710 145 685 96.5 c 128,-1,47
 660 48 660 48 623.5 16 c 128,-1,48
 587 -16 587 -16 541 -16 c 0,49,50
 513 -16 513 -16 498 -1.5 c 128,-1,51
 483 13 483 13 483 47 c 0,52,53
 483 54 483 54 483.5 62.5 c 128,-1,54
 484 71 484 71 486 79 c 1,55,56
 452 47 452 47 408 26.5 c 128,-1,57
 364 6 364 6 321 6 c 0,58,59
 287 6 287 6 259.5 19.5 c 128,-1,60
 232 33 232 33 212.5 57 c 128,-1,61
 193 81 193 81 182.5 113.5 c 128,-1,62
 172 146 172 146 172 184 c 0,63,64
 172 237 172 237 191.5 285.5 c 128,-1,65
 211 334 211 334 244 371.5 c 128,-1,66
 277 409 277 409 320.5 431 c 128,-1,67
 364 453 364 453 411 453 c 0,68,69
 461 453 461 453 494.5 428.5 c 128,-1,70
 528 404 528 404 544 362 c 1,71,-1
 562 450 l 1,72,-1
 598 450 l 1,73,-1
 523 99 l 2,74,75
 519 82 519 82 518 71.5 c 128,-1,76
 517 61 517 61 517 55 c 0,77,78
 517 15 517 15 553 15 c 0,0,1
335 40 m 0,79,80
 359 40 359 40 384.5 48.5 c 128,-1,81
 410 57 410 57 432.5 72 c 128,-1,82
 455 87 455 87 472.5 107 c 128,-1,83
 490 127 490 127 499 150 c 1,84,-1
 532 319 l 1,85,86
 518 369 518 369 485 394 c 128,-1,87
 452 419 452 419 409 419 c 0,88,89
 371 419 371 419 335.5 400.5 c 128,-1,90
 300 382 300 382 271.5 351 c 128,-1,91
 243 320 243 320 226 279 c 128,-1,92
 209 238 209 238 209 192 c 0,93,94
 209 159 209 159 218.5 131 c 128,-1,95
 228 103 228 103 244.5 82.5 c 128,-1,96
 261 62 261 62 284.5 51 c 128,-1,97
 308 40 308 40 335 40 c 0,79,80
EndSplineSet
EndChar

StartChar: A
Encoding: 65 65 37
Width: 649
GlyphClass: 2
Flags: W
LayerCount: 2
Fore
SplineSet
394 710 m 1,0,-1
 438 710 l 1,1,-1
 571 0 l 1,2,-1
 517 0 l 1,3,-1
 473 234 l 1,4,-1
 154 234 l 1,5,-1
 12 0 l 1,6,-1
 -43 0 l 1,7,-1
 394 710 l 1,0,-1
469 276 m 1,8,-1
 403 648 l 1,9,-1
 175 276 l 1,10,-1
 469 276 l 1,8,-1
EndSplineSet
EndChar

StartChar: B
Encoding: 66 66 38
Width: 636
GlyphClass: 2
Flags: W
LayerCount: 2
Fore
SplineSet
178 710 m 1,0,-1
 494 710 l 2,1,2
 524 710 524 710 546.5 697.5 c 128,-1,3
 569 685 569 685 584 665 c 128,-1,4
 599 645 599 645 606.5 619 c 128,-1,5
 614 593 614 593 614 565 c 0,6,7
 614 533 614 533 604 502 c 128,-1,8
 594 471 594 471 575.5 445 c 128,-1,9
 557 419 557 419 532 398 c 128,-1,10
 507 377 507 377 477 364 c 1,11,12
 522 349 522 349 545.5 309.5 c 128,-1,13
 569 270 569 270 569 219 c 0,14,15
 569 173 569 173 549.5 133 c 128,-1,16
 530 93 530 93 498.5 63.5 c 128,-1,17
 467 34 467 34 426.5 17 c 128,-1,18
 386 0 386 0 344 0 c 2,19,-1
 27 0 l 1,20,-1
 178 710 l 1,0,-1
353 46 m 2,21,22
 384 46 384 46 413.5 61 c 128,-1,23
 443 76 443 76 466.5 100 c 128,-1,24
 490 124 490 124 504 155 c 128,-1,25
 518 186 518 186 518 219 c 0,26,27
 518 243 518 243 511.5 264 c 128,-1,28
 505 285 505 285 492.5 301.5 c 128,-1,29
 480 318 480 318 462 327.5 c 128,-1,30
 444 337 444 337 422 337 c 2,31,-1
 150 337 l 1,32,-1
 88 46 l 1,33,-1
 353 46 l 2,21,22
404 380 m 2,34,35
 435 380 435 380 463.5 394.5 c 128,-1,36
 492 409 492 409 514 433 c 128,-1,37
 536 457 536 457 549 488 c 128,-1,38
 562 519 562 519 562 552 c 0,39,40
 562 599 562 599 538 631.5 c 128,-1,41
 514 664 514 664 470 664 c 2,42,-1
 219 664 l 1,43,-1
 159 380 l 1,44,-1
 404 380 l 2,34,35
EndSplineSet
EndChar

StartChar: C
Encoding: 67 67 39
Width: 659
GlyphClass: 2
Flags: W
LayerCount: 2
Fore
SplineSet
295 -6 m 0,0,1
 236 -6 236 -6 190.5 19 c 128,-1,2
 145 44 145 44 113.5 86 c 128,-1,3
 82 128 82 128 65.5 182 c 128,-1,4
 49 236 49 236 49 293 c 0,5,6
 49 366 49 366 79.5 440.5 c 128,-1,7
 110 515 110 515 164 576 c 128,-1,8
 218 637 218 637 292 675.5 c 128,-1,9
 366 714 366 714 453 714 c 0,10,11
 498 714 498 714 534 702.5 c 128,-1,12
 570 691 570 691 597 670.5 c 128,-1,13
 624 650 624 650 642 621.5 c 128,-1,14
 660 593 660 593 668 559 c 1,15,-1
 621 535 l 1,16,17
 612 572 612 572 593 597 c 128,-1,18
 574 622 574 622 549.5 637.5 c 128,-1,19
 525 653 525 653 496.5 660 c 128,-1,20
 468 667 468 667 439 667 c 0,21,22
 390 667 390 667 345.5 651.5 c 128,-1,23
 301 636 301 636 263.5 609 c 128,-1,24
 226 582 226 582 195.5 545.5 c 128,-1,25
 165 509 165 509 144 468 c 128,-1,26
 123 427 123 427 111.5 382.5 c 128,-1,27
 100 338 100 338 100 296 c 0,28,29
 100 244 100 244 114.5 198 c 128,-1,30
 129 152 129 152 156 117 c 128,-1,31
 183 82 183 82 221.5 61.5 c 128,-1,32
 260 41 260 41 308 41 c 0,33,34
 338 41 338 41 372 49 c 128,-1,35
 406 57 406 57 439 74 c 128,-1,36
 472 91 472 91 502.5 117.5 c 128,-1,37
 533 144 533 144 558 180 c 1,38,-1
 598 159 l 1,39,40
 572 119 572 119 536.5 88 c 128,-1,41
 501 57 501 57 460 36 c 128,-1,42
 419 15 419 15 376.5 4.5 c 128,-1,43
 334 -6 334 -6 295 -6 c 0,0,1
EndSplineSet
EndChar

StartChar: D
Encoding: 68 68 40
Width: 688
GlyphClass: 2
Flags: W
LayerCount: 2
Fore
SplineSet
178 710 m 1,0,-1
 403 710 l 2,1,2
 469 710 469 710 517.5 689 c 128,-1,3
 566 668 566 668 597.5 631.5 c 128,-1,4
 629 595 629 595 644.5 545.5 c 128,-1,5
 660 496 660 496 660 439 c 0,6,7
 660 344 660 344 629.5 264 c 128,-1,8
 599 184 599 184 544.5 125 c 128,-1,9
 490 66 490 66 415 33 c 128,-1,10
 340 0 340 0 252 0 c 2,11,-1
 27 0 l 1,12,-1
 178 710 l 1,0,-1
262 46 m 2,13,14
 342 46 342 46 406 77.5 c 128,-1,15
 470 109 470 109 514.5 162 c 128,-1,16
 559 215 559 215 583 284.5 c 128,-1,17
 607 354 607 354 607 430 c 0,18,19
 607 481 607 481 593.5 524 c 128,-1,20
 580 567 580 567 553 598 c 128,-1,21
 526 629 526 629 486 646.5 c 128,-1,22
 446 664 446 664 393 664 c 2,23,-1
 219 664 l 1,24,-1
 88 46 l 1,25,-1
 262 46 l 2,13,14
EndSplineSet
EndChar

StartChar: E
Encoding: 69 69 41
Width: 584
GlyphClass: 2
Flags: W
LayerCount: 2
Fore
SplineSet
178 710 m 1,0,-1
 619 710 l 1,1,-1
 610 664 l 1,2,-1
 219 664 l 1,3,-1
 160 385 l 1,4,-1
 501 385 l 1,5,-1
 491 341 l 1,6,-1
 151 341 l 1,7,-1
 88 46 l 1,8,-1
 487 46 l 1,9,-1
 477 0 l 1,10,-1
 27 0 l 1,11,-1
 178 710 l 1,0,-1
EndSplineSet
EndChar

StartChar: F
Encoding: 70 70 42
Width: 578
GlyphClass: 2
Flags: W
LayerCount: 2
Fore
SplineSet
178 710 m 1,0,-1
 618 710 l 1,1,-1
 608 664 l 1,2,-1
 219 664 l 1,3,-1
 160 382 l 1,4,-1
 489 382 l 1,5,-1
 480 338 l 1,6,-1
 150 338 l 1,7,-1
 78 0 l 1,8,-1
 27 0 l 1,9,-1
 178 710 l 1,0,-1
EndSplineSet
EndChar

StartChar: G
Encoding: 71 71 43
Width: 687
GlyphClass: 2
Flags: W
LayerCount: 2
Fore
SplineSet
546 110 m 1,0,1
 425 -5 425 -5 298 -5 c 0,2,3
 239 -5 239 -5 193 20 c 128,-1,4
 147 45 147 45 115 86.5 c 128,-1,5
 83 128 83 128 66 181.5 c 128,-1,6
 49 235 49 235 49 292 c 0,7,8
 49 371 49 371 81.5 447 c 128,-1,9
 114 523 114 523 169 582.5 c 128,-1,10
 224 642 224 642 295.5 678.5 c 128,-1,11
 367 715 367 715 444 715 c 0,12,13
 495 715 495 715 533 703.5 c 128,-1,14
 571 692 571 692 598 671.5 c 128,-1,15
 625 651 625 651 642.5 622.5 c 128,-1,16
 660 594 660 594 669 560 c 1,17,-1
 623 535 l 1,18,19
 603 605 603 605 554 636.5 c 128,-1,20
 505 668 505 668 433 668 c 0,21,22
 364 668 364 668 303.5 634.5 c 128,-1,23
 243 601 243 601 198 547.5 c 128,-1,24
 153 494 153 494 126.5 427.5 c 128,-1,25
 100 361 100 361 100 295 c 0,26,27
 100 244 100 244 115 198 c 128,-1,28
 130 152 130 152 157.5 117.5 c 128,-1,29
 185 83 185 83 223.5 62.5 c 128,-1,30
 262 42 262 42 310 42 c 0,31,32
 371 42 371 42 432 71.5 c 128,-1,33
 493 101 493 101 558 166 c 1,34,-1
 588 304 l 1,35,-1
 436 304 l 1,36,-1
 445 345 l 1,37,-1
 641 345 l 1,38,-1
 568 0 l 1,39,-1
 523 0 l 1,40,-1
 546 110 l 1,0,1
EndSplineSet
Substitution2: "'ss01' Style Set 1 in Latin lookup 8 subtable" G.alt
Substitution2: "'salt' Stylistic Alternatives in Latin lookup 5 subtable" G.alt
Substitution2: "'aalt' Access All Alternates in Latin lookup 0 subtable" G.alt
EndChar

StartChar: H
Encoding: 72 72 44
Width: 706
GlyphClass: 2
Flags: W
LayerCount: 2
Fore
SplineSet
178 710 m 1,0,-1
 229 710 l 1,1,-1
 160 386 l 1,2,-1
 582 386 l 1,3,-1
 651 710 l 1,4,-1
 702 710 l 1,5,-1
 551 0 l 1,6,-1
 500 0 l 1,7,-1
 572 340 l 1,8,-1
 151 340 l 1,9,-1
 78 0 l 1,10,-1
 27 0 l 1,11,-1
 178 710 l 1,0,-1
EndSplineSet
EndChar

StartChar: I
Encoding: 73 73 45
Width: 233
GlyphClass: 2
Flags: W
LayerCount: 2
Fore
SplineSet
178 709 m 1,0,-1
 229 709 l 1,1,-1
 78 0 l 1,2,-1
 27 0 l 1,3,-1
 178 709 l 1,0,-1
EndSplineSet
EndChar

StartChar: J
Encoding: 74 74 46
Width: 464
GlyphClass: 2
Flags: W
LayerCount: 2
Fore
SplineSet
102 -11 m 0,0,1
 17 -11 17 -11 -35 33 c 1,2,-1
 -10 74 l 1,3,4
 9 57 9 57 40 46.5 c 128,-1,5
 71 36 71 36 112 36 c 0,6,7
 166 36 166 36 203 57 c 128,-1,8
 240 78 240 78 265.5 118 c 128,-1,9
 291 158 291 158 308 216.5 c 128,-1,10
 325 275 325 275 341 349 c 2,11,-1
 418 709 l 1,12,-1
 469 709 l 1,13,-1
 392 349 l 2,14,15
 375 268 375 268 354 201.5 c 128,-1,16
 333 135 333 135 301 88 c 128,-1,17
 269 41 269 41 221 15 c 128,-1,18
 173 -11 173 -11 102 -11 c 0,0,1
EndSplineSet
EndChar

StartChar: K
Encoding: 75 75 47
Width: 606
GlyphClass: 2
Flags: W
LayerCount: 2
Fore
SplineSet
178 709 m 1,0,-1
 229 709 l 1,1,-1
 137 279 l 1,2,-1
 619 710 l 1,3,-1
 678 710 l 1,4,-1
 332 399 l 1,5,-1
 541 0 l 1,6,-1
 483 0 l 1,7,-1
 293 368 l 1,8,-1
 125 219 l 1,9,-1
 78 0 l 1,10,-1
 27 0 l 1,11,-1
 178 709 l 1,0,-1
EndSplineSet
EndChar

StartChar: L
Encoding: 76 76 48
Width: 555
GlyphClass: 2
Flags: W
LayerCount: 2
Fore
SplineSet
178 710 m 1,0,-1
 229 710 l 1,1,-1
 88 46 l 1,2,-1
 489 46 l 1,3,-1
 479 0 l 1,4,-1
 27 0 l 1,5,-1
 178 710 l 1,0,-1
EndSplineSet
EndChar

StartChar: M
Encoding: 77 77 49
Width: 842
GlyphClass: 2
Flags: W
LayerCount: 2
Fore
SplineSet
178 710 m 1,0,-1
 229 710 l 1,1,-1
 400 202 l 1,2,-1
 788 710 l 1,3,-1
 838 710 l 1,4,-1
 687 0 l 1,5,-1
 636 0 l 1,6,-1
 767 614 l 1,7,-1
 402 135 l 1,8,-1
 370 135 l 1,9,-1
 209 614 l 1,10,-1
 78 0 l 1,11,-1
 27 0 l 1,12,-1
 178 710 l 1,0,-1
EndSplineSet
EndChar

StartChar: N
Encoding: 78 78 50
Width: 741
GlyphClass: 2
Flags: W
LayerCount: 2
Fore
SplineSet
178 710 m 1,0,-1
 218 710 l 1,1,-1
 554 85 l 1,2,-1
 686 709 l 1,3,-1
 737 709 l 1,4,-1
 586 0 l 1,5,-1
 541 0 l 1,6,-1
 209 614 l 1,7,-1
 78 0 l 1,8,-1
 27 0 l 1,9,-1
 178 710 l 1,0,-1
EndSplineSet
EndChar

StartChar: O
Encoding: 79 79 51
Width: 724
GlyphClass: 2
Flags: W
LayerCount: 2
Fore
SplineSet
297 -5 m 0,0,1
 237 -5 237 -5 190.5 19 c 128,-1,2
 144 43 144 43 112.5 83.5 c 128,-1,3
 81 124 81 124 64.5 177 c 128,-1,4
 48 230 48 230 48 287 c 0,5,6
 48 369 48 369 82 446 c 128,-1,7
 116 523 116 523 172 583 c 128,-1,8
 228 643 228 643 301 679 c 128,-1,9
 374 715 374 715 451 715 c 0,10,11
 511 715 511 715 557 690 c 128,-1,12
 603 665 603 665 634.5 624 c 128,-1,13
 666 583 666 583 682 530 c 128,-1,14
 698 477 698 477 698 421 c 0,15,16
 698 340 698 340 664 263 c 128,-1,17
 630 186 630 186 574 126.5 c 128,-1,18
 518 67 518 67 446 31 c 128,-1,19
 374 -5 374 -5 297 -5 c 0,0,1
307 42 m 0,20,21
 376 42 376 42 438 75.5 c 128,-1,22
 500 109 500 109 546 162.5 c 128,-1,23
 592 216 592 216 619 283 c 128,-1,24
 646 350 646 350 646 416 c 0,25,26
 646 467 646 467 632 512.5 c 128,-1,27
 618 558 618 558 591.5 592.5 c 128,-1,28
 565 627 565 627 526.5 647.5 c 128,-1,29
 488 668 488 668 440 668 c 0,30,31
 371 668 371 668 309 634.5 c 128,-1,32
 247 601 247 601 200.5 547.5 c 128,-1,33
 154 494 154 494 127 427 c 128,-1,34
 100 360 100 360 100 293 c 0,35,36
 100 242 100 242 114 196.5 c 128,-1,37
 128 151 128 151 154.5 116.5 c 128,-1,38
 181 82 181 82 219.5 62 c 128,-1,39
 258 42 258 42 307 42 c 0,20,21
EndSplineSet
EndChar

StartChar: P
Encoding: 80 80 52
Width: 598
GlyphClass: 2
Flags: W
LayerCount: 2
Fore
SplineSet
178 710 m 1,0,-1
 456 710 l 2,1,2
 493 710 493 710 521.5 694.5 c 128,-1,3
 550 679 550 679 570 653.5 c 128,-1,4
 590 628 590 628 600.5 595.5 c 128,-1,5
 611 563 611 563 611 528 c 0,6,7
 611 481 611 481 591.5 434.5 c 128,-1,8
 572 388 572 388 539 351 c 128,-1,9
 506 314 506 314 461.5 291 c 128,-1,10
 417 268 417 268 368 268 c 2,11,-1
 135 268 l 1,12,-1
 78 0 l 1,13,-1
 27 0 l 1,14,-1
 178 710 l 1,0,-1
376 315 m 2,15,16
 414 315 414 315 447.5 333.5 c 128,-1,17
 481 352 481 352 505.5 382 c 128,-1,18
 530 412 530 412 544.5 449 c 128,-1,19
 559 486 559 486 559 523 c 0,20,21
 559 552 559 552 550.5 577.5 c 128,-1,22
 542 603 542 603 527 622.5 c 128,-1,23
 512 642 512 642 490.5 653 c 128,-1,24
 469 664 469 664 443 664 c 2,25,-1
 219 664 l 1,26,-1
 145 315 l 1,27,-1
 376 315 l 2,15,16
EndSplineSet
EndChar

StartChar: Q
Encoding: 81 81 53
Width: 723
GlyphClass: 2
Flags: W
LayerCount: 2
Fore
SplineSet
502 64 m 1,0,1
 455 32 455 32 403 13.5 c 128,-1,2
 351 -5 351 -5 297 -5 c 0,3,4
 237 -5 237 -5 191 19 c 128,-1,5
 145 43 145 43 113 83.5 c 128,-1,6
 81 124 81 124 64.5 177 c 128,-1,7
 48 230 48 230 48 287 c 0,8,9
 48 369 48 369 82 446 c 128,-1,10
 116 523 116 523 172 583 c 128,-1,11
 228 643 228 643 301 679 c 128,-1,12
 374 715 374 715 451 715 c 0,13,14
 511 715 511 715 557 690 c 128,-1,15
 603 665 603 665 634.5 624 c 128,-1,16
 666 583 666 583 682 530 c 128,-1,17
 698 477 698 477 698 421 c 0,18,19
 698 374 698 374 686.5 328.5 c 128,-1,20
 675 283 675 283 654 240.5 c 128,-1,21
 633 198 633 198 603.5 160.5 c 128,-1,22
 574 123 574 123 538 92 c 1,23,-1
 593 0 l 1,24,-1
 540 0 l 1,25,-1
 502 64 l 1,0,1
307 42 m 0,26,27
 355 42 355 42 398.5 58 c 128,-1,28
 442 74 442 74 480 102 c 1,29,-1
 420 206 l 1,30,-1
 472 206 l 1,31,-1
 516 131 l 1,32,33
 545 159 545 159 569 192.5 c 128,-1,34
 593 226 593 226 610 263 c 128,-1,35
 627 300 627 300 636.5 339 c 128,-1,36
 646 378 646 378 646 416 c 0,37,38
 646 467 646 467 632 512.5 c 128,-1,39
 618 558 618 558 591.5 592.5 c 128,-1,40
 565 627 565 627 526.5 647.5 c 128,-1,41
 488 668 488 668 440 668 c 0,42,43
 371 668 371 668 309 634.5 c 128,-1,44
 247 601 247 601 200.5 547.5 c 128,-1,45
 154 494 154 494 127 427 c 128,-1,46
 100 360 100 360 100 293 c 0,47,48
 100 242 100 242 114 196.5 c 128,-1,49
 128 151 128 151 154.5 116.5 c 128,-1,50
 181 82 181 82 219.5 62 c 128,-1,51
 258 42 258 42 307 42 c 0,26,27
EndSplineSet
EndChar

StartChar: R
Encoding: 82 82 54
Width: 624
GlyphClass: 2
Flags: W
LayerCount: 2
Fore
SplineSet
27 0 m 1,0,-1
 178 710 l 1,1,-1
 460 710 l 2,2,3
 496 710 496 710 525 694.5 c 128,-1,4
 554 679 554 679 574 653.5 c 128,-1,5
 594 628 594 628 604.5 595.5 c 128,-1,6
 615 563 615 563 615 528 c 0,7,8
 615 484 615 484 598.5 441.5 c 128,-1,9
 582 399 582 399 553.5 364.5 c 128,-1,10
 525 330 525 330 487.5 306 c 128,-1,11
 450 282 450 282 407 276 c 1,12,-1
 515 0 l 1,13,-1
 457 0 l 1,14,-1
 351 268 l 1,15,-1
 135 268 l 1,16,-1
 78 0 l 1,17,-1
 27 0 l 1,0,-1
380 315 m 2,18,19
 417 315 417 315 450.5 333.5 c 128,-1,20
 484 352 484 352 508.5 381.5 c 128,-1,21
 533 411 533 411 547.5 448 c 128,-1,22
 562 485 562 485 562 522 c 0,23,24
 562 550 562 550 553.5 576 c 128,-1,25
 545 602 545 602 530 621.5 c 128,-1,26
 515 641 515 641 494 652.5 c 128,-1,27
 473 664 473 664 447 664 c 2,28,-1
 219 664 l 1,29,-1
 145 315 l 1,30,-1
 380 315 l 2,18,19
EndSplineSet
EndChar

StartChar: S
Encoding: 83 83 55
Width: 583
GlyphClass: 2
Flags: W
LayerCount: 2
Fore
SplineSet
240 -6 m 0,0,1
 82 -6 82 -6 -6 100 c 1,2,-1
 30 141 l 1,3,4
 62 94 62 94 117.5 66.5 c 128,-1,5
 173 39 173 39 251 39 c 0,6,7
 352 39 352 39 411 81 c 128,-1,8
 470 123 470 123 470 202 c 0,9,10
 470 257 470 257 423.5 285.5 c 128,-1,11
 377 314 377 314 289 334 c 0,12,13
 244 344 244 344 209.5 356 c 128,-1,14
 175 368 175 368 151 384.5 c 128,-1,15
 127 401 127 401 114.5 424.5 c 128,-1,16
 102 448 102 448 102 481 c 0,17,18
 102 536 102 536 124 579.5 c 128,-1,19
 146 623 146 623 184 653 c 128,-1,20
 222 683 222 683 274.5 699 c 128,-1,21
 327 715 327 715 388 715 c 0,22,23
 454 715 454 715 501.5 694.5 c 128,-1,24
 549 674 549 674 581 632 c 1,25,-1
 546 592 l 1,26,27
 498 669 498 669 378 669 c 0,28,29
 319 669 319 669 277.5 655.5 c 128,-1,30
 236 642 236 642 209 619 c 128,-1,31
 182 596 182 596 169.5 564.5 c 128,-1,32
 157 533 157 533 157 496 c 0,33,34
 157 470 157 470 167.5 452 c 128,-1,35
 178 434 178 434 199 421 c 128,-1,36
 220 408 220 408 251.5 398 c 128,-1,37
 283 388 283 388 325 378 c 0,38,39
 370 367 370 367 407.5 354.5 c 128,-1,40
 445 342 445 342 471 323.5 c 128,-1,41
 497 305 497 305 511.5 279.5 c 128,-1,42
 526 254 526 254 526 217 c 0,43,44
 526 163 526 163 504.5 121 c 128,-1,45
 483 79 483 79 444.5 51 c 128,-1,46
 406 23 406 23 353.5 8.5 c 128,-1,47
 301 -6 301 -6 240 -6 c 0,0,1
EndSplineSet
EndChar

StartChar: T
Encoding: 84 84 56
Width: 579
GlyphClass: 2
Flags: W
LayerCount: 2
Fore
SplineSet
339 664 m 1,0,-1
 93 664 l 1,1,-1
 102 710 l 1,2,-1
 646 710 l 1,3,-1
 636 664 l 1,4,-1
 390 664 l 1,5,-1
 248 0 l 1,6,-1
 198 0 l 1,7,-1
 339 664 l 1,0,-1
EndSplineSet
EndChar

StartChar: U
Encoding: 85 85 57
Width: 724
GlyphClass: 2
Flags: W
LayerCount: 2
Fore
SplineSet
298 -5 m 0,0,1
 236 -5 236 -5 194 13.5 c 128,-1,2
 152 32 152 32 126.5 63.5 c 128,-1,3
 101 95 101 95 89.5 137.5 c 128,-1,4
 78 180 78 180 78 229 c 0,5,6
 78 288 78 288 92 353 c 2,7,-1
 168 710 l 1,8,-1
 219 710 l 1,9,-1
 143 353 l 2,10,11
 137 323 137 323 133 294 c 128,-1,12
 129 265 129 265 129 237 c 0,13,14
 129 196 129 196 138 160.5 c 128,-1,15
 147 125 147 125 168 98.5 c 128,-1,16
 189 72 189 72 223 57 c 128,-1,17
 257 42 257 42 307 42 c 0,18,19
 375 42 375 42 425.5 69 c 128,-1,20
 476 96 476 96 511.5 140 c 128,-1,21
 547 184 547 184 569.5 240 c 128,-1,22
 592 296 592 296 604 353 c 2,23,-1
 679 710 l 1,24,-1
 730 710 l 1,25,-1
 655 353 l 2,26,27
 640 281 640 281 611.5 216.5 c 128,-1,28
 583 152 583 152 539 102.5 c 128,-1,29
 495 53 495 53 435.5 24 c 128,-1,30
 376 -5 376 -5 298 -5 c 0,0,1
EndSplineSet
EndChar

StartChar: V
Encoding: 86 86 58
Width: 647
GlyphClass: 2
Flags: W
LayerCount: 2
Fore
SplineSet
98 710 m 1,0,-1
 152 710 l 1,1,-1
 270 64 l 1,2,-1
 661 710 l 1,3,-1
 715 710 l 1,4,-1
 279 0 l 1,5,-1
 232 0 l 1,6,-1
 98 710 l 1,0,-1
EndSplineSet
EndChar

StartChar: W
Encoding: 87 87 59
Width: 993
GlyphClass: 2
Flags: W
LayerCount: 2
Fore
SplineSet
97 710 m 1,0,-1
 153 710 l 1,1,-1
 271 60 l 1,2,-1
 484 406 l 1,3,-1
 428 705 l 1,4,-1
 478 705 l 1,5,-1
 523 447 l 1,6,-1
 678 705 l 1,7,-1
 728 705 l 1,8,-1
 546 406 l 1,9,-1
 612 60 l 1,10,-1
 1006 710 l 1,11,-1
 1062 710 l 1,12,-1
 623 0 l 1,13,-1
 577 0 l 1,14,-1
 507 365 l 1,15,-1
 280 0 l 1,16,-1
 234 0 l 1,17,-1
 97 710 l 1,0,-1
EndSplineSet
Substitution2: "'ss01' Style Set 1 in Latin lookup 8 subtable" W.alt
Substitution2: "'salt' Stylistic Alternatives in Latin lookup 5 subtable" W.alt
Substitution2: "'aalt' Access All Alternates in Latin lookup 0 subtable" W.alt
EndChar

StartChar: X
Encoding: 88 88 60
Width: 598
GlyphClass: 2
Flags: W
LayerCount: 2
Fore
SplineSet
281 350 m 1,0,-1
 94 710 l 1,1,-1
 152 710 l 1,2,-1
 318 387 l 1,3,-1
 620 710 l 1,4,-1
 678 710 l 1,5,-1
 338 350 l 1,6,-1
 519 0 l 1,7,-1
 461 0 l 1,8,-1
 302 313 l 1,9,-1
 9 0 l 1,10,-1
 -49 0 l 1,11,-1
 281 350 l 1,0,-1
EndSplineSet
EndChar

StartChar: Y
Encoding: 89 89 61
Width: 602
GlyphClass: 2
Flags: W
LayerCount: 2
Fore
SplineSet
264 270 m 1,0,-1
 93 710 l 1,1,-1
 150 710 l 1,2,-1
 300 317 l 1,3,-1
 618 710 l 1,4,-1
 674 710 l 1,5,-1
 315 268 l 1,6,-1
 257 0 l 1,7,-1
 207 0 l 1,8,-1
 264 270 l 1,0,-1
EndSplineSet
EndChar

StartChar: Z
Encoding: 90 90 62
Width: 593
GlyphClass: 2
Flags: W
LayerCount: 2
Fore
SplineSet
-28 42 m 1,0,-1
 580 664 l 1,1,-1
 110 664 l 1,2,-1
 120 710 l 1,3,-1
 651 710 l 1,4,-1
 641 668 l 1,5,-1
 36 46 l 1,6,-1
 507 46 l 1,7,-1
 498 0 l 1,8,-1
 -37 0 l 1,9,-1
 -28 42 l 1,0,-1
EndSplineSet
EndChar

StartChar: bracketleft
Encoding: 91 91 63
Width: 238
GlyphClass: 2
Flags: W
LayerCount: 2
Fore
SplineSet
17 -40 m 1,0,-1
 183 740 l 1,1,-1
 281 740 l 1,2,-1
 272 697 l 1,3,-1
 221 697 l 1,4,-1
 73 3 l 1,5,-1
 125 3 l 1,6,-1
 116 -40 l 1,7,-1
 17 -40 l 1,0,-1
EndSplineSet
EndChar

StartChar: backslash
Encoding: 92 92 64
Width: 514
GlyphClass: 2
Flags: W
LayerCount: 2
Fore
SplineSet
164 710 m 1,0,-1
 426 0 l 1,1,-1
 369 0 l 1,2,-1
 106 710 l 1,3,-1
 164 710 l 1,0,-1
EndSplineSet
EndChar

StartChar: bracketright
Encoding: 93 93 65
Width: 237
GlyphClass: 2
Flags: W
LayerCount: 2
Fore
SplineSet
-23 -40 m 1,0,-1
 -14 3 l 1,1,-1
 37 3 l 1,2,-1
 185 697 l 1,3,-1
 134 697 l 1,4,-1
 143 740 l 1,5,-1
 241 740 l 1,6,-1
 76 -40 l 1,7,-1
 -23 -40 l 1,0,-1
EndSplineSet
EndChar

StartChar: asciicircum
Encoding: 94 94 66
Width: 528
GlyphClass: 2
Flags: W
LayerCount: 2
Fore
SplineSet
53 303 m 1,0,-1
 251 710 l 1,1,-1
 294 710 l 1,2,-1
 491 303 l 1,3,-1
 445 303 l 1,4,-1
 273 659 l 1,5,-1
 97 303 l 1,6,-1
 53 303 l 1,0,-1
EndSplineSet
EndChar

StartChar: underscore
Encoding: 95 95 67
Width: 500
GlyphClass: 2
Flags: W
LayerCount: 2
Fore
SplineSet
-9 -46 m 1,0,-1
 1 0 l 1,1,-1
 367 0 l 1,2,-1
 357 -46 l 1,3,-1
 -9 -46 l 1,0,-1
EndSplineSet
EndChar

StartChar: grave
Encoding: 96 96 68
Width: 204
GlyphClass: 2
Flags: W
LayerCount: 2
Fore
SplineSet
63 730 m 1,0,-1
 118 730 l 1,1,-1
 159 645 l 1,2,-1
 122 629 l 1,3,-1
 63 730 l 1,0,-1
EndSplineSet
EndChar

StartChar: a
Encoding: 97 97 69
Width: 591
GlyphClass: 2
Flags: W
LayerCount: 2
Fore
SplineSet
212 -10 m 0,0,1
 169 -10 169 -10 134.5 8 c 128,-1,2
 100 26 100 26 76 56 c 128,-1,3
 52 86 52 86 39.5 125.5 c 128,-1,4
 27 165 27 165 27 209 c 0,5,6
 27 270 27 270 51 327.5 c 128,-1,7
 75 385 75 385 115.5 430 c 128,-1,8
 156 475 156 475 208 502 c 128,-1,9
 260 529 260 529 317 529 c 0,10,11
 350 529 350 529 376.5 519 c 128,-1,12
 403 509 403 509 424 492.5 c 128,-1,13
 445 476 445 476 460 454 c 128,-1,14
 475 432 475 432 484 407 c 1,15,-1
 508 520 l 1,16,-1
 559 520 l 1,17,-1
 463 72 l 2,18,19
 461 64 461 64 461 60 c 0,20,21
 461 45 461 45 478 45 c 1,22,-1
 468 0 l 1,23,24
 463 -1 463 -1 459.5 -1.5 c 128,-1,25
 456 -2 456 -2 453 -2 c 0,26,27
 433 -2 433 -2 422.5 8 c 128,-1,28
 412 18 412 18 412 34 c 0,29,30
 412 37 412 37 412.5 41.5 c 128,-1,31
 413 46 413 46 414.5 53.5 c 128,-1,32
 416 61 416 61 418 73 c 128,-1,33
 420 85 420 85 424 104 c 1,34,35
 383 52 383 52 326 21 c 128,-1,36
 269 -10 269 -10 212 -10 c 0,0,1
230 35 m 0,37,38
 257 35 257 35 289 46.5 c 128,-1,39
 321 58 321 58 350.5 77 c 128,-1,40
 380 96 380 96 403 121.5 c 128,-1,41
 426 147 426 147 435 175 c 2,42,-1
 471 346 l 1,43,44
 467 374 467 374 453.5 399 c 128,-1,45
 440 424 440 424 419.5 443 c 128,-1,46
 399 462 399 462 373 473 c 128,-1,47
 347 484 347 484 317 484 c 0,48,49
 269 484 269 484 226 460 c 128,-1,50
 183 436 183 436 150.5 397.5 c 128,-1,51
 118 359 118 359 98.5 311 c 128,-1,52
 79 263 79 263 79 215 c 0,53,54
 79 179 79 179 90 146 c 128,-1,55
 101 113 101 113 121 88.5 c 128,-1,56
 141 64 141 64 169 49.5 c 128,-1,57
 197 35 197 35 230 35 c 0,37,38
EndSplineSet
Substitution2: "'ss02' Style Set 2 in Latin lookup 9 subtable" a.alt2
Substitution2: "'ss01' Style Set 1 in Latin lookup 8 subtable" a.alt
Substitution2: "'salt' Stylistic Alternatives in Latin lookup 5 subtable" a.alt
Substitution2: "'smcp' Lowercase to Small Capitals in Latin lookup 2 subtable" A.sc
AlternateSubs2: "'aalt' Access All Alternates in Latin lookup 1 subtable" A.sc a.alt a.alt2
EndChar

StartChar: b
Encoding: 98 98 70
Width: 586
GlyphClass: 2
Flags: W
LayerCount: 2
Fore
SplineSet
245 -10 m 0,0,1
 181 -10 181 -10 139 23 c 128,-1,2
 97 56 97 56 79 104 c 1,3,-1
 57 0 l 1,4,-1
 12 0 l 1,5,-1
 167 730 l 1,6,-1
 217 730 l 1,7,-1
 148 407 l 1,8,9
 195 461 195 461 249.5 495 c 128,-1,10
 304 529 304 529 365 529 c 0,11,12
 410 529 410 529 443 510.5 c 128,-1,13
 476 492 476 492 498.5 462 c 128,-1,14
 521 432 521 432 532 393.5 c 128,-1,15
 543 355 543 355 543 315 c 0,16,17
 543 251 543 251 517.5 192 c 128,-1,18
 492 133 492 133 450 88 c 128,-1,19
 408 43 408 43 354.5 16.5 c 128,-1,20
 301 -10 301 -10 245 -10 c 0,0,1
245 35 m 0,21,22
 292 35 292 35 336.5 58 c 128,-1,23
 381 81 381 81 415 119.5 c 128,-1,24
 449 158 449 158 469.5 207 c 128,-1,25
 490 256 490 256 490 308 c 0,26,27
 490 342 490 342 480.5 374 c 128,-1,28
 471 406 471 406 452 430.5 c 128,-1,29
 433 455 433 455 406 469.5 c 128,-1,30
 379 484 379 484 343 484 c 0,31,32
 313 484 313 484 284.5 473 c 128,-1,33
 256 462 256 462 230 444 c 128,-1,34
 204 426 204 426 180.5 402 c 128,-1,35
 157 378 157 378 136 351 c 1,36,-1
 96 159 l 1,37,38
 99 132 99 132 112 109 c 128,-1,39
 125 86 125 86 145 69.5 c 128,-1,40
 165 53 165 53 190.5 44 c 128,-1,41
 216 35 216 35 245 35 c 0,21,22
EndSplineSet
Substitution2: "'smcp' Lowercase to Small Capitals in Latin lookup 2 subtable" B.sc
Substitution2: "'aalt' Access All Alternates in Latin lookup 0 subtable" B.sc
EndChar

StartChar: c
Encoding: 99 99 71
Width: 522
GlyphClass: 2
Flags: W
LayerCount: 2
Fore
SplineSet
222 -10 m 0,0,1
 177 -10 177 -10 141 7 c 128,-1,2
 105 24 105 24 79.5 54 c 128,-1,3
 54 84 54 84 40.5 124 c 128,-1,4
 27 164 27 164 27 210 c 0,5,6
 27 274 27 274 52 331.5 c 128,-1,7
 77 389 77 389 119.5 433 c 128,-1,8
 162 477 162 477 217.5 503 c 128,-1,9
 273 529 273 529 335 529 c 0,10,11
 403 529 403 529 447.5 497 c 128,-1,12
 492 465 492 465 506 408 c 1,13,-1
 453 392 l 1,14,15
 441 435 441 435 406 459.5 c 128,-1,16
 371 484 371 484 323 484 c 0,17,18
 276 484 276 484 232 462.5 c 128,-1,19
 188 441 188 441 154 404.5 c 128,-1,20
 120 368 120 368 99 319.5 c 128,-1,21
 78 271 78 271 78 217 c 0,22,23
 78 179 78 179 89 145.5 c 128,-1,24
 100 112 100 112 119.5 87.5 c 128,-1,25
 139 63 139 63 167 49 c 128,-1,26
 195 35 195 35 228 35 c 0,27,28
 254 35 254 35 281 43 c 128,-1,29
 308 51 308 51 332 64 c 128,-1,30
 356 77 356 77 374.5 94.5 c 128,-1,31
 393 112 393 112 403 131 c 1,32,-1
 449 117 l 1,33,34
 434 90 434 90 409.5 66.5 c 128,-1,35
 385 43 385 43 355 26 c 128,-1,36
 325 9 325 9 290.5 -0.5 c 128,-1,37
 256 -10 256 -10 222 -10 c 0,0,1
EndSplineSet
Substitution2: "'smcp' Lowercase to Small Capitals in Latin lookup 2 subtable" C.sc
Substitution2: "'aalt' Access All Alternates in Latin lookup 0 subtable" C.sc
EndChar

StartChar: d
Encoding: 100 100 72
Width: 591
GlyphClass: 2
Flags: W
LayerCount: 2
Fore
SplineSet
214 -10 m 0,0,1
 170 -10 170 -10 135 8 c 128,-1,2
 100 26 100 26 76 56 c 128,-1,3
 52 86 52 86 39.5 125.5 c 128,-1,4
 27 165 27 165 27 209 c 0,5,6
 27 270 27 270 51 327.5 c 128,-1,7
 75 385 75 385 115.5 430 c 128,-1,8
 156 475 156 475 208.5 502 c 128,-1,9
 261 529 261 529 318 529 c 0,10,11
 350 529 350 529 376.5 519 c 128,-1,12
 403 509 403 509 424 492.5 c 128,-1,13
 445 476 445 476 460 454 c 128,-1,14
 475 432 475 432 484 407 c 1,15,-1
 552 730 l 1,16,-1
 603 730 l 1,17,-1
 463 72 l 2,18,19
 461 62 461 62 461 60 c 0,20,21
 461 45 461 45 478 45 c 1,22,-1
 468 0 l 1,23,24
 461 -1 461 -1 456 -1 c 128,-1,25
 451 -1 451 -1 446 -1 c 0,26,27
 412 4 412 4 412 35 c 0,28,29
 412 38 412 38 412.5 41.5 c 128,-1,30
 413 45 413 45 414 52.5 c 128,-1,31
 415 60 415 60 417.5 72 c 128,-1,32
 420 84 420 84 424 104 c 1,33,34
 383 52 383 52 326 21 c 128,-1,35
 269 -10 269 -10 214 -10 c 0,0,1
233 35 m 0,36,37
 258 35 258 35 289.5 46 c 128,-1,38
 321 57 321 57 350 76.5 c 128,-1,39
 379 96 379 96 402.5 121 c 128,-1,40
 426 146 426 146 435 175 c 2,41,-1
 471 346 l 1,42,43
 467 374 467 374 453 399.5 c 128,-1,44
 439 425 439 425 418.5 443.5 c 128,-1,45
 398 462 398 462 372.5 473 c 128,-1,46
 347 484 347 484 320 484 c 0,47,48
 271 484 271 484 227 460 c 128,-1,49
 183 436 183 436 150 397.5 c 128,-1,50
 117 359 117 359 98 311.5 c 128,-1,51
 79 264 79 264 79 217 c 0,52,53
 79 180 79 180 90 147 c 128,-1,54
 101 114 101 114 121 89 c 128,-1,55
 141 64 141 64 169.5 49.5 c 128,-1,56
 198 35 198 35 233 35 c 0,36,37
EndSplineSet
Substitution2: "'ss01' Style Set 1 in Latin lookup 8 subtable" d.alt
Substitution2: "'salt' Stylistic Alternatives in Latin lookup 5 subtable" d.alt
Substitution2: "'smcp' Lowercase to Small Capitals in Latin lookup 2 subtable" D.sc
AlternateSubs2: "'aalt' Access All Alternates in Latin lookup 1 subtable" D.sc d.alt
EndChar

StartChar: e
Encoding: 101 101 73
Width: 529
GlyphClass: 2
Flags: W
LayerCount: 2
Fore
SplineSet
224 -10 m 0,0,1
 177 -10 177 -10 140.5 7.5 c 128,-1,2
 104 25 104 25 78.5 55 c 128,-1,3
 53 85 53 85 40 125 c 128,-1,4
 27 165 27 165 27 210 c 0,5,6
 27 271 27 271 50.5 328.5 c 128,-1,7
 74 386 74 386 116 430.5 c 128,-1,8
 158 475 158 475 214.5 502 c 128,-1,9
 271 529 271 529 337 529 c 0,10,11
 368 529 368 529 397 520 c 128,-1,12
 426 511 426 511 448.5 493.5 c 128,-1,13
 471 476 471 476 484.5 450 c 128,-1,14
 498 424 498 424 498 390 c 0,15,16
 498 240 498 240 226 240 c 0,17,18
 194 240 194 240 158.5 241 c 128,-1,19
 123 242 123 242 80 245 c 1,20,21
 79 237 79 237 78.5 228 c 128,-1,22
 78 219 78 219 78 211 c 0,23,24
 78 174 78 174 87.5 141 c 128,-1,25
 97 108 97 108 116.5 83.5 c 128,-1,26
 136 59 136 59 165.5 44.5 c 128,-1,27
 195 30 195 30 234 30 c 0,28,29
 259 30 259 30 285.5 37.5 c 128,-1,30
 312 45 312 45 336 58.5 c 128,-1,31
 360 72 360 72 380.5 91.5 c 128,-1,32
 401 111 401 111 415 135 c 1,33,-1
 457 122 l 1,34,35
 439 92 439 92 413.5 68 c 128,-1,36
 388 44 388 44 357.5 26.5 c 128,-1,37
 327 9 327 9 293 -0.5 c 128,-1,38
 259 -10 259 -10 224 -10 c 0,0,1
331 488 m 0,39,40
 284 488 284 488 244.5 470.5 c 128,-1,41
 205 453 205 453 174 424.5 c 128,-1,42
 143 396 143 396 121 359 c 128,-1,43
 99 322 99 322 88 283 c 1,44,45
 130 280 130 280 163.5 279 c 128,-1,46
 197 278 197 278 229 278 c 0,47,48
 291 278 291 278 333.5 286.5 c 128,-1,49
 376 295 376 295 402 310 c 128,-1,50
 428 325 428 325 439.5 345.5 c 128,-1,51
 451 366 451 366 451 391 c 256,52,53
 451 416 451 416 440.5 434.5 c 128,-1,54
 430 453 430 453 413.5 465 c 128,-1,55
 397 477 397 477 375 482.5 c 128,-1,56
 353 488 353 488 331 488 c 0,39,40
EndSplineSet
Substitution2: "'smcp' Lowercase to Small Capitals in Latin lookup 2 subtable" E.sc
Substitution2: "'aalt' Access All Alternates in Latin lookup 0 subtable" E.sc
EndChar

StartChar: f
Encoding: 102 102 74
Width: 311
GlyphClass: 2
Flags: W
LayerCount: 2
Fore
SplineSet
133 479 m 1,0,-1
 64 479 l 1,1,-1
 73 520 l 1,2,-1
 143 520 l 1,3,-1
 146 537 l 2,4,5
 165 633 165 633 214.5 686.5 c 128,-1,6
 264 740 264 740 330 740 c 0,7,8
 358 740 358 740 382.5 731 c 128,-1,9
 407 722 407 722 422 707 c 1,10,-1
 396 671 l 1,11,12
 386 682 386 682 367.5 689 c 128,-1,13
 349 696 349 696 329 696 c 0,14,15
 281 696 281 696 245 656 c 128,-1,16
 209 616 209 616 196 538 c 2,17,-1
 193 520 l 1,18,-1
 332 520 l 1,19,-1
 323 479 l 1,20,-1
 183 479 l 1,21,-1
 37 -213 l 1,22,-1
 -13 -213 l 1,23,-1
 133 479 l 1,0,-1
EndSplineSet
Substitution2: "'smcp' Lowercase to Small Capitals in Latin lookup 2 subtable" F.sc
Substitution2: "'aalt' Access All Alternates in Latin lookup 0 subtable" F.sc
EndChar

StartChar: g
Encoding: 103 103 75
Width: 586
GlyphClass: 2
Flags: W
LayerCount: 2
Fore
SplineSet
165 -223 m 0,0,1
 79 -223 79 -223 34.5 -190.5 c 128,-1,2
 -10 -158 -10 -158 -29 -103 c 1,3,-1
 9 -80 l 1,4,5
 27 -133 27 -133 72 -157.5 c 128,-1,6
 117 -182 117 -182 174 -182 c 0,7,8
 211 -182 211 -182 247 -171 c 128,-1,9
 283 -160 283 -160 312.5 -138.5 c 128,-1,10
 342 -117 342 -117 363.5 -85 c 128,-1,11
 385 -53 385 -53 394 -10 c 2,12,-1
 418 104 l 1,13,14
 398 79 398 79 373 58.5 c 128,-1,15
 348 38 348 38 321 23 c 128,-1,16
 294 8 294 8 265 0 c 128,-1,17
 236 -8 236 -8 209 -8 c 0,18,19
 166 -8 166 -8 132 10 c 128,-1,20
 98 28 98 28 74.5 58 c 128,-1,21
 51 88 51 88 38.5 127 c 128,-1,22
 26 166 26 166 26 209 c 0,23,24
 26 269 26 269 50 326.5 c 128,-1,25
 74 384 74 384 114.5 429 c 128,-1,26
 155 474 155 474 208 501.5 c 128,-1,27
 261 529 261 529 320 529 c 0,28,29
 384 529 384 529 424.5 493.5 c 128,-1,30
 465 458 465 458 488 407 c 1,31,-1
 512 520 l 1,32,-1
 557 520 l 1,33,-1
 444 -10 l 2,34,35
 433 -63 433 -63 405.5 -103 c 128,-1,36
 378 -143 378 -143 340 -169.5 c 128,-1,37
 302 -196 302 -196 257 -209.5 c 128,-1,38
 212 -223 212 -223 165 -223 c 0,0,1
231 35 m 0,39,40
 262 35 262 35 294.5 47.5 c 128,-1,41
 327 60 327 60 355 80 c 128,-1,42
 383 100 383 100 404 125 c 128,-1,43
 425 150 425 150 434 175 c 2,44,-1
 470 346 l 1,45,46
 465 376 465 376 451.5 401.5 c 128,-1,47
 438 427 438 427 418 445 c 128,-1,48
 398 463 398 463 372 473.5 c 128,-1,49
 346 484 346 484 318 484 c 0,50,51
 267 484 267 484 223.5 459 c 128,-1,52
 180 434 180 434 147.5 395.5 c 128,-1,53
 115 357 115 357 96.5 309.5 c 128,-1,54
 78 262 78 262 78 217 c 0,55,56
 78 180 78 180 89 147 c 128,-1,57
 100 114 100 114 120 89 c 128,-1,58
 140 64 140 64 168 49.5 c 128,-1,59
 196 35 196 35 231 35 c 0,39,40
EndSplineSet
Substitution2: "'smcp' Lowercase to Small Capitals in Latin lookup 2 subtable" G.sc
Substitution2: "'aalt' Access All Alternates in Latin lookup 0 subtable" G.sc
EndChar

StartChar: h
Encoding: 104 104 76
Width: 552
GlyphClass: 2
Flags: W
LayerCount: 2
Fore
SplineSet
167 730 m 1,0,-1
 217 730 l 1,1,-1
 146 396 l 1,2,3
 189 457 189 457 250 493 c 128,-1,4
 311 529 311 529 373 529 c 0,5,6
 436 529 436 529 464 493.5 c 128,-1,7
 492 458 492 458 492 394 c 0,8,9
 492 373 492 373 489.5 349 c 128,-1,10
 487 325 487 325 481 299 c 2,11,-1
 418 0 l 1,12,-1
 368 0 l 1,13,-1
 429 290 l 2,14,15
 439 337 439 337 439 373 c 0,16,17
 439 483 439 483 348 483 c 0,18,19
 318 483 318 483 286.5 471 c 128,-1,20
 255 459 255 459 225.5 437 c 128,-1,21
 196 415 196 415 171 385.5 c 128,-1,22
 146 356 146 356 130 322 c 1,23,-1
 62 0 l 1,24,-1
 12 0 l 1,25,-1
 167 730 l 1,0,-1
EndSplineSet
Substitution2: "'smcp' Lowercase to Small Capitals in Latin lookup 2 subtable" H.sc
Substitution2: "'aalt' Access All Alternates in Latin lookup 0 subtable" H.sc
EndChar

StartChar: i
Encoding: 105 105 77
Width: 201
GlyphClass: 2
Flags: W
LayerCount: 2
Fore
SplineSet
122 520 m 1,0,-1
 172 520 l 1,1,-1
 62 0 l 1,2,-1
 12 0 l 1,3,-1
 122 520 l 1,0,-1
167 730 m 1,4,-1
 217 730 l 1,5,-1
 198 638 l 1,6,-1
 148 638 l 1,7,-1
 167 730 l 1,4,-1
EndSplineSet
Substitution2: "'smcp' Lowercase to Small Capitals in Latin lookup 2 subtable" I.sc
Substitution2: "'aalt' Access All Alternates in Latin lookup 0 subtable" I.sc
EndChar

StartChar: j
Encoding: 106 106 78
Width: 209
GlyphClass: 2
Flags: W
LayerCount: 2
Fore
SplineSet
-109 -177 m 0,0,1
 -139 -177 -139 -177 -163.5 -168.5 c 128,-1,2
 -188 -160 -188 -160 -205 -140 c 1,3,-1
 -171 -107 l 1,4,5
 -159 -121 -159 -121 -141 -126 c 128,-1,6
 -123 -131 -123 -131 -104 -131 c 0,7,8
 -86 -131 -86 -131 -67.5 -123.5 c 128,-1,9
 -49 -116 -49 -116 -33 -102.5 c 128,-1,10
 -17 -89 -17 -89 -5 -70.5 c 128,-1,11
 7 -52 7 -52 12 -30 c 2,12,-1
 129 520 l 1,13,-1
 179 520 l 1,14,-1
 63 -28 l 2,15,16
 56 -61 56 -61 38 -88 c 128,-1,17
 20 -115 20 -115 -4 -135 c 128,-1,18
 -28 -155 -28 -155 -55.5 -166 c 128,-1,19
 -83 -177 -83 -177 -109 -177 c 0,0,1
174 730 m 1,20,-1
 224 730 l 1,21,-1
 204 638 l 1,22,-1
 154 638 l 1,23,-1
 174 730 l 1,20,-1
EndSplineSet
Substitution2: "'ss01' Style Set 1 in Latin lookup 8 subtable" j.alt
Substitution2: "'salt' Stylistic Alternatives in Latin lookup 5 subtable" j.alt
Substitution2: "'smcp' Lowercase to Small Capitals in Latin lookup 2 subtable" J.sc
AlternateSubs2: "'aalt' Access All Alternates in Latin lookup 1 subtable" J.sc j.alt
EndChar

StartChar: k
Encoding: 107 107 79
Width: 530
GlyphClass: 2
Flags: W
LayerCount: 2
Fore
SplineSet
167 730 m 1,0,-1
 217 730 l 1,1,-1
 139 361 l 1,2,3
 196 439 196 439 260.5 485 c 128,-1,4
 325 531 325 531 396 531 c 0,5,6
 453 531 453 531 482.5 503 c 128,-1,7
 512 475 512 475 512 426 c 0,8,9
 512 360 512 360 459.5 309 c 128,-1,10
 407 258 407 258 311 232 c 1,11,-1
 429 0 l 1,12,-1
 374 0 l 1,13,-1
 250 255 l 1,14,15
 355 277 355 277 409.5 321 c 128,-1,16
 464 365 464 365 464 419 c 0,17,18
 464 454 464 454 443 471.5 c 128,-1,19
 422 489 422 489 384 489 c 0,20,21
 318 489 318 489 250 434.5 c 128,-1,22
 182 380 182 380 122 282 c 1,23,-1
 62 0 l 1,24,-1
 12 0 l 1,25,-1
 167 730 l 1,0,-1
EndSplineSet
Substitution2: "'smcp' Lowercase to Small Capitals in Latin lookup 2 subtable" K.sc
Substitution2: "'aalt' Access All Alternates in Latin lookup 0 subtable" K.sc
EndChar

StartChar: l
Encoding: 108 108 80
Width: 249
GlyphClass: 2
Flags: W
LayerCount: 2
Fore
SplineSet
103 -6 m 0,0,1
 69 -6 69 -6 50 12.5 c 128,-1,2
 31 31 31 31 31 63 c 0,3,4
 31 74 31 74 34 88 c 2,5,-1
 170 730 l 1,6,-1
 220 730 l 1,7,-1
 87 103 l 2,8,9
 86 98 86 98 85.5 94 c 128,-1,10
 85 90 85 90 85 85 c 0,11,12
 85 64 85 64 97.5 52 c 128,-1,13
 110 40 110 40 134 40 c 0,14,15
 145 40 145 40 160 42.5 c 128,-1,16
 175 45 175 45 188 50 c 1,17,-1
 188 10 l 1,18,19
 171 3 171 3 145.5 -1.5 c 128,-1,20
 120 -6 120 -6 103 -6 c 0,0,1
EndSplineSet
Substitution2: "'ss01' Style Set 1 in Latin lookup 8 subtable" l.alt
Substitution2: "'salt' Stylistic Alternatives in Latin lookup 5 subtable" l.alt
Substitution2: "'smcp' Lowercase to Small Capitals in Latin lookup 2 subtable" L.sc
AlternateSubs2: "'aalt' Access All Alternates in Latin lookup 1 subtable" L.sc l.alt
EndChar

StartChar: m
Encoding: 109 109 81
Width: 874
GlyphClass: 2
Flags: W
LayerCount: 2
Fore
SplineSet
122 520 m 1,0,-1
 169 520 l 1,1,-1
 142 396 l 1,2,3
 186 459 186 459 243 494 c 128,-1,4
 300 529 300 529 359 529 c 0,5,6
 420 529 420 529 448.5 491.5 c 128,-1,7
 477 454 477 454 477 385 c 1,8,9
 519 456 519 456 578.5 492.5 c 128,-1,10
 638 529 638 529 701 529 c 0,11,12
 761 529 761 529 788 495.5 c 128,-1,13
 815 462 815 462 815 400 c 0,14,15
 815 356 815 356 803 299 c 2,16,-1
 739 0 l 1,17,-1
 689 0 l 1,18,-1
 751 290 l 2,19,20
 761 339 761 339 761 379 c 0,21,22
 761 483 761 483 675 483 c 0,23,24
 645 483 645 483 615.5 471 c 128,-1,25
 586 459 586 459 559 438 c 128,-1,26
 532 417 532 417 508.5 387 c 128,-1,27
 485 357 485 357 468 321 c 1,28,-1
 401 0 l 1,29,-1
 351 0 l 1,30,-1
 412 290 l 2,31,32
 418 317 418 317 420.5 339.5 c 128,-1,33
 423 362 423 362 423 381 c 0,34,35
 423 483 423 483 338 483 c 0,36,37
 308 483 308 483 278 471.5 c 128,-1,38
 248 460 248 460 221 438.5 c 128,-1,39
 194 417 194 417 171 387.5 c 128,-1,40
 148 358 148 358 130 322 c 1,41,-1
 62 0 l 1,42,-1
 12 0 l 1,43,-1
 122 520 l 1,0,-1
EndSplineSet
Substitution2: "'smcp' Lowercase to Small Capitals in Latin lookup 2 subtable" M.sc
Substitution2: "'aalt' Access All Alternates in Latin lookup 0 subtable" M.sc
EndChar

StartChar: n
Encoding: 110 110 82
Width: 552
GlyphClass: 2
Flags: W
LayerCount: 2
Fore
SplineSet
122 520 m 1,0,-1
 169 520 l 1,1,-1
 142 396 l 1,2,3
 163 426 163 426 191 450.5 c 128,-1,4
 219 475 219 475 250.5 492.5 c 128,-1,5
 282 510 282 510 315.5 519.5 c 128,-1,6
 349 529 349 529 382 529 c 0,7,8
 442 529 442 529 468 497 c 128,-1,9
 494 465 494 465 494 404 c 0,10,11
 494 381 494 381 490.5 355 c 128,-1,12
 487 329 487 329 481 299 c 2,13,-1
 418 0 l 1,14,-1
 368 0 l 1,15,-1
 429 290 l 2,16,17
 435 318 435 318 437.5 341 c 128,-1,18
 440 364 440 364 440 383 c 0,19,20
 440 483 440 483 357 483 c 0,21,22
 326 483 326 483 293 471 c 128,-1,23
 260 459 260 459 229.5 437 c 128,-1,24
 199 415 199 415 173 385.5 c 128,-1,25
 147 356 147 356 130 322 c 1,26,-1
 62 0 l 1,27,-1
 12 0 l 1,28,-1
 122 520 l 1,0,-1
EndSplineSet
Substitution2: "'smcp' Lowercase to Small Capitals in Latin lookup 2 subtable" N.sc
Substitution2: "'aalt' Access All Alternates in Latin lookup 0 subtable" N.sc
EndChar

StartChar: o
Encoding: 111 111 83
Width: 569
GlyphClass: 2
Flags: W
LayerCount: 2
Fore
SplineSet
218 -10 m 0,0,1
 173 -10 173 -10 137.5 7 c 128,-1,2
 102 24 102 24 77.5 53.5 c 128,-1,3
 53 83 53 83 39.5 122.5 c 128,-1,4
 26 162 26 162 26 207 c 0,5,6
 26 270 26 270 51.5 328.5 c 128,-1,7
 77 387 77 387 120 431.5 c 128,-1,8
 163 476 163 476 218.5 502.5 c 128,-1,9
 274 529 274 529 333 529 c 0,10,11
 377 529 377 529 412.5 511.5 c 128,-1,12
 448 494 448 494 472.5 464.5 c 128,-1,13
 497 435 497 435 510.5 395 c 128,-1,14
 524 355 524 355 524 310 c 0,15,16
 524 248 524 248 498.5 190 c 128,-1,17
 473 132 473 132 430.5 87.5 c 128,-1,18
 388 43 388 43 333 16.5 c 128,-1,19
 278 -10 278 -10 218 -10 c 0,0,1
227 35 m 0,20,21
 272 35 272 35 316.5 57 c 128,-1,22
 361 79 361 79 395.5 116 c 128,-1,23
 430 153 430 153 451.5 201.5 c 128,-1,24
 473 250 473 250 473 303 c 0,25,26
 473 341 473 341 462 374 c 128,-1,27
 451 407 451 407 431.5 431.5 c 128,-1,28
 412 456 412 456 384 470 c 128,-1,29
 356 484 356 484 323 484 c 0,30,31
 278 484 278 484 234.5 462 c 128,-1,32
 191 440 191 440 156 402.5 c 128,-1,33
 121 365 121 365 99.5 316 c 128,-1,34
 78 267 78 267 78 213 c 0,35,36
 78 175 78 175 89 142.5 c 128,-1,37
 100 110 100 110 119.5 86 c 128,-1,38
 139 62 139 62 166.5 48.5 c 128,-1,39
 194 35 194 35 227 35 c 0,20,21
EndSplineSet
Substitution2: "'smcp' Lowercase to Small Capitals in Latin lookup 2 subtable" O.sc
Substitution2: "'aalt' Access All Alternates in Latin lookup 0 subtable" O.sc
EndChar

StartChar: p
Encoding: 112 112 84
Width: 587
GlyphClass: 2
Flags: W
LayerCount: 2
Fore
SplineSet
123 520 m 1,0,-1
 168 520 l 1,1,-1
 146 416 l 1,2,3
 187 466 187 466 243.5 497.5 c 128,-1,4
 300 529 300 529 357 529 c 0,5,6
 401 529 401 529 435.5 511 c 128,-1,7
 470 493 470 493 493.5 462.5 c 128,-1,8
 517 432 517 432 529.5 392 c 128,-1,9
 542 352 542 352 542 309 c 0,10,11
 542 249 542 249 519 191.5 c 128,-1,12
 496 134 496 134 456.5 89 c 128,-1,13
 417 44 417 44 364 17 c 128,-1,14
 311 -10 311 -10 252 -10 c 0,15,16
 189 -10 189 -10 147 25.5 c 128,-1,17
 105 61 105 61 86 112 c 1,18,-1
 17 -213 l 1,19,-1
 -33 -213 l 1,20,-1
 123 520 l 1,0,-1
250 35 m 0,21,22
 299 35 299 35 342.5 59 c 128,-1,23
 386 83 386 83 419 121 c 128,-1,24
 452 159 452 159 471 206.5 c 128,-1,25
 490 254 490 254 490 302 c 0,26,27
 490 339 490 339 479 372 c 128,-1,28
 468 405 468 405 448 430 c 128,-1,29
 428 455 428 455 400 469.5 c 128,-1,30
 372 484 372 484 337 484 c 0,31,32
 311 484 311 484 280 472.5 c 128,-1,33
 249 461 249 461 220 441.5 c 128,-1,34
 191 422 191 422 167.5 397 c 128,-1,35
 144 372 144 372 135 344 c 2,36,-1
 98 173 l 1,37,38
 104 144 104 144 117.5 119 c 128,-1,39
 131 94 131 94 150.5 75 c 128,-1,40
 170 56 170 56 195.5 45.5 c 128,-1,41
 221 35 221 35 250 35 c 0,21,22
EndSplineSet
Substitution2: "'smcp' Lowercase to Small Capitals in Latin lookup 2 subtable" P.sc
Substitution2: "'aalt' Access All Alternates in Latin lookup 0 subtable" P.sc
EndChar

StartChar: q
Encoding: 113 113 85
Width: 586
GlyphClass: 2
Flags: W
LayerCount: 2
Fore
SplineSet
202 -10 m 0,0,1
 159 -10 159 -10 126.5 7.5 c 128,-1,2
 94 25 94 25 71.5 54.5 c 128,-1,3
 49 84 49 84 37.5 122.5 c 128,-1,4
 26 161 26 161 26 204 c 0,5,6
 26 268 26 268 52 326.5 c 128,-1,7
 78 385 78 385 120 430 c 128,-1,8
 162 475 162 475 216 502 c 128,-1,9
 270 529 270 529 327 529 c 0,10,11
 385 529 385 529 428 496.5 c 128,-1,12
 471 464 471 464 489 415 c 1,13,-1
 511 520 l 1,14,-1
 557 520 l 1,15,-1
 417 -141 l 2,16,17
 415 -149 415 -149 415 -151 c 0,18,19
 415 -166 415 -166 431 -167 c 1,20,-1
 422 -211 l 2,21,22
 420 -211 420 -211 418 -211.5 c 128,-1,23
 416 -212 416 -212 414 -212 c 0,24,25
 392 -212 392 -212 376.5 -202.5 c 128,-1,26
 361 -193 361 -193 361 -171 c 0,27,28
 361 -167 361 -167 363 -159 c 2,29,-1
 420 112 l 1,30,31
 318 -10 318 -10 202 -10 c 0,0,1
224 35 m 0,32,33
 255 35 255 35 284.5 46 c 128,-1,34
 314 57 314 57 340.5 75 c 128,-1,35
 367 93 367 93 390 117.5 c 128,-1,36
 413 142 413 142 432 169 c 1,37,-1
 470 345 l 1,38,39
 467 373 467 373 455.5 398.5 c 128,-1,40
 444 424 444 424 425.5 443 c 128,-1,41
 407 462 407 462 381.5 473 c 128,-1,42
 356 484 356 484 326 484 c 0,43,44
 277 484 277 484 232.5 460 c 128,-1,45
 188 436 188 436 153.5 397.5 c 128,-1,46
 119 359 119 359 98.5 310.5 c 128,-1,47
 78 262 78 262 78 212 c 0,48,49
 78 176 78 176 88 144 c 128,-1,50
 98 112 98 112 117 87.5 c 128,-1,51
 136 63 136 63 163 49 c 128,-1,52
 190 35 190 35 224 35 c 0,32,33
EndSplineSet
Substitution2: "'ss01' Style Set 1 in Latin lookup 8 subtable" q.alt
Substitution2: "'salt' Stylistic Alternatives in Latin lookup 5 subtable" q.alt
Substitution2: "'smcp' Lowercase to Small Capitals in Latin lookup 2 subtable" Q.sc
AlternateSubs2: "'aalt' Access All Alternates in Latin lookup 1 subtable" Q.sc q.alt
EndChar

StartChar: r
Encoding: 114 114 86
Width: 333
GlyphClass: 2
Flags: W
LayerCount: 2
Fore
SplineSet
122 520 m 1,0,-1
 170 520 l 1,1,-1
 142 392 l 1,2,3
 184 452 184 452 238.5 486.5 c 128,-1,4
 293 521 293 521 344 521 c 0,5,6
 354 521 354 521 358 520 c 1,7,-1
 348 475 l 1,8,9
 281 473 281 473 223.5 433.5 c 128,-1,10
 166 394 166 394 131 325 c 1,11,-1
 62 0 l 1,12,-1
 12 0 l 1,13,-1
 122 520 l 1,0,-1
EndSplineSet
Substitution2: "'smcp' Lowercase to Small Capitals in Latin lookup 2 subtable" R.sc
Substitution2: "'aalt' Access All Alternates in Latin lookup 0 subtable" R.sc
EndChar

StartChar: s
Encoding: 115 115 87
Width: 461
GlyphClass: 2
Flags: W
LayerCount: 2
Fore
SplineSet
167 -10 m 0,0,1
 110 -10 110 -10 61.5 10 c 128,-1,2
 13 30 13 30 -17 70 c 1,3,-1
 14 104 l 1,4,5
 47 66 47 66 85.5 48 c 128,-1,6
 124 30 124 30 175 30 c 0,7,8
 211 30 211 30 241.5 39 c 128,-1,9
 272 48 272 48 294.5 64 c 128,-1,10
 317 80 317 80 329.5 103 c 128,-1,11
 342 126 342 126 342 155 c 0,12,13
 342 193 342 193 307 211 c 128,-1,14
 272 229 272 229 207 246 c 0,15,16
 172 255 172 255 146 264 c 128,-1,17
 120 273 120 273 102.5 284.5 c 128,-1,18
 85 296 85 296 76 312 c 128,-1,19
 67 328 67 328 67 351 c 0,20,21
 67 394 67 394 85 427.5 c 128,-1,22
 103 461 103 461 133 483.5 c 128,-1,23
 163 506 163 506 202.5 517.5 c 128,-1,24
 242 529 242 529 285 529 c 0,25,26
 343 529 343 529 383.5 508.5 c 128,-1,27
 424 488 424 488 441 456 c 1,28,-1
 408 429 l 1,29,30
 391 459 391 459 354.5 474 c 128,-1,31
 318 489 318 489 273 489 c 0,32,33
 242 489 242 489 214 481.5 c 128,-1,34
 186 474 186 474 164.5 458.5 c 128,-1,35
 143 443 143 443 130 419.5 c 128,-1,36
 117 396 117 396 117 364 c 0,37,38
 117 347 117 347 124 335.5 c 128,-1,39
 131 324 131 324 144.5 315.5 c 128,-1,40
 158 307 158 307 179 300.5 c 128,-1,41
 200 294 200 294 228 287 c 0,42,43
 267 277 267 277 297.5 267 c 128,-1,44
 328 257 328 257 349.5 243.5 c 128,-1,45
 371 230 371 230 382 211.5 c 128,-1,46
 393 193 393 193 393 167 c 0,47,48
 393 128 393 128 376 95.5 c 128,-1,49
 359 63 359 63 329 39.5 c 128,-1,50
 299 16 299 16 257.5 3 c 128,-1,51
 216 -10 216 -10 167 -10 c 0,0,1
EndSplineSet
Substitution2: "'smcp' Lowercase to Small Capitals in Latin lookup 2 subtable" S.sc
Substitution2: "'aalt' Access All Alternates in Latin lookup 0 subtable" S.sc
EndChar

StartChar: t
Encoding: 116 116 88
Width: 306
GlyphClass: 2
Flags: W
LayerCount: 2
Fore
SplineSet
129 -6 m 0,0,1
 94 -6 94 -6 71 12 c 128,-1,2
 48 30 48 30 48 65 c 0,3,4
 48 70 48 70 48.5 75.5 c 128,-1,5
 49 81 49 81 50 87 c 2,6,-1
 134 479 l 1,7,-1
 64 479 l 1,8,-1
 73 520 l 1,9,-1
 143 520 l 1,10,-1
 180 698 l 1,11,-1
 230 698 l 1,12,-1
 193 520 l 1,13,-1
 308 520 l 1,14,-1
 299 479 l 1,15,-1
 184 479 l 1,16,-1
 109 127 l 2,17,18
 102 95 102 95 102 87 c 0,19,20
 102 64 102 64 116.5 52.5 c 128,-1,21
 131 41 131 41 152 41 c 0,22,23
 167 41 167 41 180.5 44 c 128,-1,24
 194 47 194 47 205 51.5 c 128,-1,25
 216 56 216 56 223.5 59.5 c 128,-1,26
 231 63 231 63 234 65 c 2,27,-1
 240 25 l 1,28,29
 236 22 236 22 225.5 17 c 128,-1,30
 215 12 215 12 200 6.5 c 128,-1,31
 185 1 185 1 167 -2.5 c 128,-1,32
 149 -6 149 -6 129 -6 c 0,0,1
EndSplineSet
Substitution2: "'ss01' Style Set 1 in Latin lookup 8 subtable" t.alt
Substitution2: "'salt' Stylistic Alternatives in Latin lookup 5 subtable" t.alt
Substitution2: "'smcp' Lowercase to Small Capitals in Latin lookup 2 subtable" T.sc
AlternateSubs2: "'aalt' Access All Alternates in Latin lookup 1 subtable" T.sc t.alt
EndChar

StartChar: u
Encoding: 117 117 89
Width: 562
GlyphClass: 2
Flags: W
LayerCount: 2
Fore
SplineSet
162 -10 m 0,0,1
 41 -10 41 -10 41 126 c 0,2,3
 41 146 41 146 43.5 169.5 c 128,-1,4
 46 193 46 193 52 220 c 2,5,-1
 117 520 l 1,6,-1
 166 520 l 1,7,-1
 104 227 l 2,8,9
 93 177 93 177 93 142 c 0,10,11
 93 35 93 35 186 35 c 0,12,13
 217 35 217 35 249 46.5 c 128,-1,14
 281 58 281 58 310.5 78.5 c 128,-1,15
 340 99 340 99 366 128 c 128,-1,16
 392 157 392 157 410 192 c 1,17,-1
 479 520 l 1,18,-1
 529 520 l 1,19,-1
 437 85 l 2,20,21
 435 77 435 77 433.5 70 c 128,-1,22
 432 63 432 63 432 61 c 0,23,24
 432 45 432 45 449 45 c 1,25,-1
 439 0 l 1,26,27
 432 -1 432 -1 427 -1 c 128,-1,28
 422 -1 422 -1 417 -1 c 0,29,30
 401 -1 401 -1 392.5 9.5 c 128,-1,31
 384 20 384 20 384 34 c 0,32,33
 384 37 384 37 384.5 41 c 128,-1,34
 385 45 385 45 386.5 54 c 128,-1,35
 388 63 388 63 391.5 79.5 c 128,-1,36
 395 96 395 96 401 123 c 1,37,38
 355 60 355 60 291.5 25 c 128,-1,39
 228 -10 228 -10 162 -10 c 0,0,1
EndSplineSet
Substitution2: "'smcp' Lowercase to Small Capitals in Latin lookup 2 subtable" U.sc
Substitution2: "'aalt' Access All Alternates in Latin lookup 0 subtable" U.sc
EndChar

StartChar: v
Encoding: 118 118 90
Width: 476
GlyphClass: 2
Flags: W
LayerCount: 2
Fore
SplineSet
60 520 m 1,0,-1
 112 520 l 1,1,-1
 182 50 l 1,2,3
 273 162 273 162 336.5 285 c 128,-1,4
 400 408 400 408 432 520 c 1,5,-1
 480 520 l 1,6,7
 442 389 442 389 371.5 258 c 128,-1,8
 301 127 301 127 195 0 c 1,9,-1
 143 0 l 1,10,-1
 60 520 l 1,0,-1
EndSplineSet
Substitution2: "'smcp' Lowercase to Small Capitals in Latin lookup 2 subtable" V.sc
Substitution2: "'aalt' Access All Alternates in Latin lookup 0 subtable" V.sc
EndChar

StartChar: w
Encoding: 119 119 91
Width: 743
GlyphClass: 2
Flags: W
LayerCount: 2
Fore
SplineSet
56 520 m 1,0,-1
 108 520 l 1,1,-1
 193 50 l 1,2,3
 240 103 240 103 279 161 c 128,-1,4
 318 219 318 219 350 278 c 1,5,-1
 298 520 l 1,6,-1
 350 520 l 1,7,-1
 385 344 l 1,8,9
 408 390 408 390 425 434 c 128,-1,10
 442 478 442 478 455 520 c 1,11,-1
 503 520 l 1,12,13
 467 401 467 401 400 277 c 1,14,-1
 446 50 l 1,15,16
 540 162 540 162 604 285 c 128,-1,17
 668 408 668 408 701 520 c 1,18,-1
 750 520 l 1,19,20
 710 389 710 389 639 258 c 128,-1,21
 568 127 568 127 459 0 c 1,22,-1
 407 0 l 1,23,-1
 364 217 l 1,24,25
 332 162 332 162 293 107.5 c 128,-1,26
 254 53 254 53 207 0 c 1,27,-1
 155 0 l 1,28,-1
 56 520 l 1,0,-1
EndSplineSet
Substitution2: "'ss01' Style Set 1 in Latin lookup 8 subtable" w.alt
Substitution2: "'salt' Stylistic Alternatives in Latin lookup 5 subtable" w.alt
Substitution2: "'smcp' Lowercase to Small Capitals in Latin lookup 2 subtable" W.sc
AlternateSubs2: "'aalt' Access All Alternates in Latin lookup 1 subtable" W.sc w.alt
EndChar

StartChar: x
Encoding: 120 120 92
Width: 472
GlyphClass: 2
Flags: W
LayerCount: 2
Fore
SplineSet
198 259 m 1,0,-1
 62 520 l 1,1,-1
 117 520 l 1,2,-1
 229 305 l 1,3,-1
 233 291 l 1,4,-1
 243 303 l 1,5,-1
 448 520 l 1,6,-1
 503 520 l 1,7,-1
 256 259 l 1,8,-1
 392 0 l 1,9,-1
 336 0 l 1,10,-1
 225 214 l 1,11,-1
 220 227 l 1,12,-1
 210 215 l 1,13,-1
 8 0 l 1,14,-1
 -48 0 l 1,15,-1
 198 259 l 1,0,-1
EndSplineSet
Substitution2: "'smcp' Lowercase to Small Capitals in Latin lookup 2 subtable" X.sc
Substitution2: "'aalt' Access All Alternates in Latin lookup 0 subtable" X.sc
EndChar

StartChar: y
Encoding: 121 121 93
Width: 478
GlyphClass: 2
Flags: W
LayerCount: 2
Fore
SplineSet
-36 -183 m 1,0,1
 -5 -178 -5 -178 16.5 -169.5 c 128,-1,2
 38 -161 38 -161 56 -147 c 128,-1,3
 74 -133 74 -133 90.5 -111.5 c 128,-1,4
 107 -90 107 -90 127 -59 c 2,5,-1
 163 -5 l 1,6,-1
 52 520 l 1,7,-1
 104 520 l 1,8,-1
 198 49 l 1,9,-1
 246 125 l 2,10,11
 291 197 291 197 321.5 250.5 c 128,-1,12
 352 304 352 304 374 349 c 128,-1,13
 396 394 396 394 411 434.5 c 128,-1,14
 426 475 426 475 438 520 c 1,15,-1
 488 520 l 1,16,17
 474 472 474 472 459 430.5 c 128,-1,18
 444 389 444 389 421.5 342.5 c 128,-1,19
 399 296 399 296 365.5 239 c 128,-1,20
 332 182 332 182 282 103 c 2,21,-1
 200 -26 l 2,22,23
 165 -82 165 -82 137.5 -118.5 c 128,-1,24
 110 -155 110 -155 84 -177.5 c 128,-1,25
 58 -200 58 -200 31 -210.5 c 128,-1,26
 4 -221 4 -221 -30 -224 c 1,27,-1
 -36 -183 l 1,0,1
EndSplineSet
Substitution2: "'ss01' Style Set 1 in Latin lookup 8 subtable" y.alt
Substitution2: "'salt' Stylistic Alternatives in Latin lookup 5 subtable" y.alt
Substitution2: "'smcp' Lowercase to Small Capitals in Latin lookup 2 subtable" Y.sc
AlternateSubs2: "'aalt' Access All Alternates in Latin lookup 1 subtable" Y.sc y.alt
EndChar

StartChar: z
Encoding: 122 122 94
Width: 463
GlyphClass: 2
Flags: W
LayerCount: 2
Fore
SplineSet
-28 36 m 1,0,-1
 412 481 l 1,1,-1
 73 481 l 1,2,-1
 82 520 l 1,3,-1
 478 520 l 1,4,-1
 470 484 l 1,5,-1
 32 39 l 1,6,-1
 375 39 l 1,7,-1
 366 0 l 1,8,-1
 -36 0 l 1,9,-1
 -28 36 l 1,0,-1
EndSplineSet
Substitution2: "'smcp' Lowercase to Small Capitals in Latin lookup 2 subtable" Z.sc
Substitution2: "'aalt' Access All Alternates in Latin lookup 0 subtable" Z.sc
EndChar

StartChar: braceleft
Encoding: 123 123 95
Width: 238
GlyphClass: 2
Flags: W
LayerCount: 2
Fore
SplineSet
222 697 m 1,0,-1
 163 420 l 2,1,2
 161 410 161 410 152.5 392 c 128,-1,3
 144 374 144 374 126 360 c 1,4,5
 134 352 134 352 136.5 341 c 128,-1,6
 139 330 139 330 139 319 c 0,7,8
 139 314 139 314 138.5 308.5 c 128,-1,9
 138 303 138 303 138 300 c 2,10,-1
 76 12 l 1,11,-1
 129 12 l 1,12,-1
 119 -31 l 1,13,-1
 42 -31 l 2,14,15
 36 -31 36 -31 31 -27 c 128,-1,16
 26 -23 26 -23 26 -12 c 0,17,18
 26 -5 26 -5 27 -1 c 2,19,-1
 89 289 l 2,20,21
 90 293 90 293 90 297 c 128,-1,22
 90 301 90 301 90 305 c 0,23,24
 90 319 90 319 84.5 329 c 128,-1,25
 79 339 79 339 66 341 c 1,26,-1
 74 381 l 1,27,28
 84 381 84 381 92 387 c 128,-1,29
 100 393 100 393 105.5 401 c 128,-1,30
 111 409 111 409 114.5 417.5 c 128,-1,31
 118 426 118 426 119 431 c 2,32,-1
 178 710 l 2,33,34
 182 730 182 730 191.5 735 c 128,-1,35
 201 740 201 740 206 740 c 2,36,-1
 283 740 l 1,37,-1
 274 697 l 1,38,-1
 222 697 l 1,0,-1
EndSplineSet
EndChar

StartChar: bar
Encoding: 124 124 96
Width: 275
GlyphClass: 2
Flags: W
LayerCount: 2
Fore
SplineSet
120 -130 m 1,0,-1
 120 775 l 1,1,-1
 165 775 l 1,2,-1
 165 -130 l 1,3,-1
 120 -130 l 1,0,-1
EndSplineSet
EndChar

StartChar: braceright
Encoding: 125 125 97
Width: 238
GlyphClass: 2
Flags: W
LayerCount: 2
Fore
SplineSet
133 697 m 1,0,-1
 142 740 l 1,1,-1
 218 740 l 2,2,3
 222 740 222 740 228.5 736.5 c 128,-1,4
 235 733 235 733 235 719 c 0,5,6
 235 713 235 713 234 710 c 2,7,-1
 174 431 l 2,8,9
 173 429 173 429 173 425 c 128,-1,10
 173 421 173 421 173 416 c 0,11,12
 173 404 173 404 178.5 392.5 c 128,-1,13
 184 381 184 381 198 381 c 1,14,-1
 189 341 l 1,15,16
 171 339 171 339 159.5 323 c 128,-1,17
 148 307 148 307 144 289 c 2,18,-1
 83 -1 l 2,19,20
 79 -18 79 -18 70.5 -24.5 c 128,-1,21
 62 -31 62 -31 54 -31 c 2,22,-1
 -22 -31 l 1,23,-1
 -13 12 l 1,24,-1
 39 12 l 1,25,-1
 100 300 l 2,26,27
 102 309 102 309 110.5 327.5 c 128,-1,28
 119 346 119 346 136 360 c 1,29,30
 129 369 129 369 126.5 379.5 c 128,-1,31
 124 390 124 390 124 400 c 0,32,33
 124 412 124 412 126 420 c 2,34,-1
 185 697 l 1,35,-1
 133 697 l 1,0,-1
EndSplineSet
EndChar

StartChar: asciitilde
Encoding: 126 126 98
Width: 473
GlyphClass: 2
Flags: W
LayerCount: 2
Fore
SplineSet
53 245 m 1,0,1
 54 248 54 248 61 263.5 c 128,-1,2
 68 279 68 279 81 296 c 128,-1,3
 94 313 94 313 114 326.5 c 128,-1,4
 134 340 134 340 160 340 c 0,5,6
 182 340 182 340 200.5 330.5 c 128,-1,7
 219 321 219 321 236 310 c 128,-1,8
 253 299 253 299 270.5 289.5 c 128,-1,9
 288 280 288 280 308 280 c 0,10,11
 326 280 326 280 340 287.5 c 128,-1,12
 354 295 354 295 363 304.5 c 128,-1,13
 372 314 372 314 376.5 322.5 c 128,-1,14
 381 331 381 331 381 333 c 2,15,-1
 415 333 l 2,16,17
 415 331 415 331 408 317.5 c 128,-1,18
 401 304 401 304 387.5 287.5 c 128,-1,19
 374 271 374 271 352.5 258 c 128,-1,20
 331 245 331 245 302 245 c 0,21,22
 278 245 278 245 258.5 254 c 128,-1,23
 239 263 239 263 221.5 274.5 c 128,-1,24
 204 286 204 286 188 295 c 128,-1,25
 172 304 172 304 155 304 c 256,26,27
 138 304 138 304 125.5 295 c 128,-1,28
 113 286 113 286 104.5 275 c 128,-1,29
 96 264 96 264 91.5 255 c 128,-1,30
 87 246 87 246 87 245 c 2,31,-1
 53 245 l 1,32,-1
 53 245 l 1,0,1
EndSplineSet
EndChar

StartChar: exclamdown
Encoding: 161 161 100
Width: 239
GlyphClass: 2
Flags: W
LayerCount: 2
Fore
SplineSet
186 498 m 1,0,-1
 80 -1 l 1,1,-1
 30 -1 l 1,2,-1
 136 498 l 1,3,-1
 186 498 l 1,0,-1
232 716 m 1,4,-1
 211 614 l 1,5,-1
 158 614 l 1,6,-1
 182 716 l 1,7,-1
 232 716 l 1,4,-1
EndSplineSet
EndChar

StartChar: cent
Encoding: 162 162 101
Width: 533
GlyphClass: 2
Flags: W
LayerCount: 2
Fore
SplineSet
175 -120 m 1,0,-1
 199 -9 l 1,1,2
 159 -6 159 -6 127.5 14 c 128,-1,3
 96 34 96 34 74.5 64 c 128,-1,4
 53 94 53 94 41.5 132 c 128,-1,5
 30 170 30 170 30 210 c 0,6,7
 30 266 30 266 52 321 c 128,-1,8
 74 376 74 376 112 420.5 c 128,-1,9
 150 465 150 465 202 494 c 128,-1,10
 254 523 254 523 313 528 c 1,11,-1
 338 645 l 1,12,-1
 368 645 l 1,13,-1
 343 528 l 1,14,15
 415 526 415 526 454.5 494 c 128,-1,16
 494 462 494 462 508 408 c 1,17,-1
 456 392 l 1,18,19
 442 437 442 437 410.5 459 c 128,-1,20
 379 481 379 481 334 483 c 1,21,-1
 239 36 l 1,22,23
 259 36 259 36 283.5 43 c 128,-1,24
 308 50 308 50 332 62.5 c 128,-1,25
 356 75 356 75 376 92.5 c 128,-1,26
 396 110 396 110 406 131 c 1,27,-1
 452 117 l 1,28,29
 435 85 435 85 407.5 61.5 c 128,-1,30
 380 38 380 38 349.5 22 c 128,-1,31
 319 6 319 6 287 -2 c 128,-1,32
 255 -10 255 -10 229 -10 c 1,33,-1
 205 -120 l 1,34,-1
 175 -120 l 1,0,-1
81 216 m 0,35,36
 81 183 81 183 90 152.5 c 128,-1,37
 99 122 99 122 115.5 98 c 128,-1,38
 132 74 132 74 155.5 58 c 128,-1,39
 179 42 179 42 209 38 c 1,40,-1
 303 481 l 1,41,42
 255 477 255 477 214.5 451.5 c 128,-1,43
 174 426 174 426 144.5 388 c 128,-1,44
 115 350 115 350 98 304.5 c 128,-1,45
 81 259 81 259 81 216 c 0,35,36
EndSplineSet
EndChar

StartChar: sterling
Encoding: 163 163 102
Width: 466
GlyphClass: 2
Flags: W
LayerCount: 2
Fore
SplineSet
66 370 m 1,0,-1
 160 370 l 1,1,2
 149 408 149 408 137.5 443 c 128,-1,3
 126 478 126 478 126 516 c 0,4,5
 126 556 126 556 144 592.5 c 128,-1,6
 162 629 162 629 191 656 c 128,-1,7
 220 683 220 683 257 699 c 128,-1,8
 294 715 294 715 333 715 c 0,9,10
 384 715 384 715 422 686.5 c 128,-1,11
 460 658 460 658 477 610 c 1,12,-1
 440 579 l 1,13,14
 426 622 426 622 394 647 c 128,-1,15
 362 672 362 672 322 672 c 0,16,17
 294 672 294 672 267.5 660 c 128,-1,18
 241 648 241 648 220 627 c 128,-1,19
 199 606 199 606 186.5 578 c 128,-1,20
 174 550 174 550 174 519 c 0,21,22
 174 483 174 483 186 447 c 128,-1,23
 198 411 198 411 208 370 c 1,24,-1
 377 370 l 1,25,-1
 368 329 l 1,26,-1
 216 329 l 1,27,28
 217 321 217 321 217.5 312 c 128,-1,29
 218 303 218 303 218 295 c 0,30,31
 218 265 218 265 213 239 c 128,-1,32
 208 213 208 213 192 184.5 c 128,-1,33
 176 156 176 156 145.5 121.5 c 128,-1,34
 115 87 115 87 65 41 c 1,35,36
 102 49 102 49 135 49 c 0,37,38
 156 49 156 49 172.5 46 c 128,-1,39
 189 43 189 43 204.5 39.5 c 128,-1,40
 220 36 220 36 235 33 c 128,-1,41
 250 30 250 30 268 30 c 0,42,43
 303 30 303 30 360 49 c 1,44,-1
 364 9 l 1,45,46
 308 -15 308 -15 256 -15 c 0,47,48
 235 -15 235 -15 217 -11.5 c 128,-1,49
 199 -8 199 -8 182 -4 c 128,-1,50
 165 0 165 0 146.5 3.5 c 128,-1,51
 128 7 128 7 106 7 c 0,52,53
 85 7 85 7 57 3 c 128,-1,54
 29 -1 29 -1 5 -7 c 1,55,-1
 -2 30 l 1,56,57
 53 79 53 79 87.5 114 c 128,-1,58
 122 149 122 149 140.5 177.5 c 128,-1,59
 159 206 159 206 165.5 232 c 128,-1,60
 172 258 172 258 172 290 c 0,61,62
 172 309 172 309 169 329 c 1,63,-1
 58 329 l 1,64,-1
 66 370 l 1,0,-1
EndSplineSet
EndChar

StartChar: currency
Encoding: 164 164 103
Width: 558
GlyphClass: 2
Flags: W
LayerCount: 2
Fore
SplineSet
169 475 m 1,0,1
 192 495 192 495 221 506.5 c 128,-1,2
 250 518 250 518 284 518 c 256,3,4
 318 518 318 518 347.5 506 c 128,-1,5
 377 494 377 494 400 474 c 1,6,-1
 471 545 l 1,7,-1
 497 519 l 1,8,-1
 426 448 l 1,9,10
 443 425 443 425 453 396.5 c 128,-1,11
 463 368 463 368 463 336 c 0,12,13
 463 273 463 273 424 223 c 1,14,-1
 497 152 l 1,15,-1
 473 128 l 1,16,-1
 400 198 l 1,17,18
 377 178 377 178 348 167 c 128,-1,19
 319 156 319 156 284 156 c 0,20,21
 250 156 250 156 221 166.5 c 128,-1,22
 192 177 192 177 169 197 c 1,23,-1
 98 128 l 1,24,-1
 74 152 l 1,25,-1
 145 222 l 1,26,27
 106 272 106 272 106 336 c 0,28,29
 106 368 106 368 116 397 c 128,-1,30
 126 426 126 426 143 449 c 1,31,-1
 74 519 l 1,32,-1
 101 545 l 1,33,-1
 169 475 l 1,0,1
149 335 m 256,34,35
 149 305 149 305 159.5 279.5 c 128,-1,36
 170 254 170 254 188.5 234.5 c 128,-1,37
 207 215 207 215 231.5 204 c 128,-1,38
 256 193 256 193 284 193 c 256,39,40
 312 193 312 193 336.5 204.5 c 128,-1,41
 361 216 361 216 379.5 235.5 c 128,-1,42
 398 255 398 255 409 281 c 128,-1,43
 420 307 420 307 420 337 c 256,44,45
 420 367 420 367 409 393 c 128,-1,46
 398 419 398 419 379.5 438.5 c 128,-1,47
 361 458 361 458 336.5 469 c 128,-1,48
 312 480 312 480 284 480 c 0,49,50
 257 480 257 480 232.5 468.5 c 128,-1,51
 208 457 208 457 189.5 437.5 c 128,-1,52
 171 418 171 418 160 391.5 c 128,-1,53
 149 365 149 365 149 335 c 256,34,35
EndSplineSet
EndChar

StartChar: yen
Encoding: 165 165 104
Width: 642
GlyphClass: 2
Flags: W
LayerCount: 2
Fore
SplineSet
404 357 m 1,0,-1
 487 357 l 1,1,-1
 479 319 l 1,2,-1
 375 319 l 1,3,-1
 333 268 l 1,4,-1
 328 242 l 1,5,-1
 463 242 l 1,6,-1
 456 205 l 1,7,-1
 320 205 l 1,8,-1
 276 0 l 1,9,-1
 225 0 l 1,10,-1
 269 205 l 1,11,-1
 134 205 l 1,12,-1
 142 242 l 1,13,-1
 277 242 l 1,14,-1
 283 270 l 1,15,-1
 264 319 l 1,16,-1
 159 319 l 1,17,-1
 167 357 l 1,18,-1
 251 357 l 1,19,-1
 112 710 l 1,20,-1
 169 710 l 1,21,-1
 318 317 l 1,22,-1
 636 710 l 1,23,-1
 693 710 l 1,24,-1
 404 357 l 1,0,-1
EndSplineSet
EndChar

StartChar: brokenbar
Encoding: 166 166 105
Width: 269
GlyphClass: 2
Flags: W
LayerCount: 2
Fore
SplineSet
162 280 m 1,0,-1
 162 -130 l 1,1,-1
 117 -130 l 1,2,-1
 117 280 l 1,3,-1
 162 280 l 1,0,-1
162 775 m 1,4,-1
 162 365 l 1,5,-1
 117 365 l 1,6,-1
 117 775 l 1,7,-1
 162 775 l 1,4,-1
EndSplineSet
EndChar

StartChar: section
Encoding: 167 167 106
Width: 481
GlyphClass: 2
Flags: W
LayerCount: 2
Fore
SplineSet
366 190 m 1,0,1
 395 169 395 169 395 117 c 0,2,3
 395 66 395 66 372.5 27.5 c 128,-1,4
 350 -11 350 -11 316 -36.5 c 128,-1,5
 282 -62 282 -62 241.5 -75 c 128,-1,6
 201 -88 201 -88 166 -88 c 0,7,8
 134 -88 134 -88 108 -80.5 c 128,-1,9
 82 -73 82 -73 62 -60.5 c 128,-1,10
 42 -48 42 -48 26.5 -32 c 128,-1,11
 11 -16 11 -16 0 0 c 1,12,-1
 40 31 l 1,13,14
 68 -5 68 -5 100.5 -22.5 c 128,-1,15
 133 -40 133 -40 175 -40 c 0,16,17
 203 -40 203 -40 232.5 -30 c 128,-1,18
 262 -20 262 -20 286 -1.5 c 128,-1,19
 310 17 310 17 325.5 43.5 c 128,-1,20
 341 70 341 70 341 104 c 0,21,22
 341 128 341 128 331 143 c 128,-1,23
 321 158 321 158 305 166.5 c 128,-1,24
 289 175 289 175 269 178.5 c 128,-1,25
 249 182 249 182 229 183 c 0,26,27
 162 186 162 186 119 217.5 c 128,-1,28
 76 249 76 249 76 311 c 0,29,30
 76 349 76 349 92 380.5 c 128,-1,31
 108 412 108 412 126 430 c 1,32,33
 112 441 112 441 104 464.5 c 128,-1,34
 96 488 96 488 96 517 c 0,35,36
 96 562 96 562 117 599 c 128,-1,37
 138 636 138 636 170 661.5 c 128,-1,38
 202 687 202 687 241.5 701 c 128,-1,39
 281 715 281 715 318 715 c 0,40,41
 352 715 352 715 377 708 c 128,-1,42
 402 701 402 701 419.5 689 c 128,-1,43
 437 677 437 677 449 661 c 128,-1,44
 461 645 461 645 469 627 c 1,45,-1
 425 609 l 1,46,47
 420 627 420 627 408 638.5 c 128,-1,48
 396 650 396 650 380 656.5 c 128,-1,49
 364 663 364 663 346 666 c 128,-1,50
 328 669 328 669 310 669 c 0,51,52
 282 669 282 669 253 659 c 128,-1,53
 224 649 224 649 200.5 630 c 128,-1,54
 177 611 177 611 162 584.5 c 128,-1,55
 147 558 147 558 147 524 c 0,56,57
 147 476 147 476 179 457 c 128,-1,58
 211 438 211 438 262 436 c 0,59,60
 292 435 292 435 320.5 428.5 c 128,-1,61
 349 422 349 422 371.5 407 c 128,-1,62
 394 392 394 392 407.5 369 c 128,-1,63
 421 346 421 346 421 312 c 0,64,65
 421 275 421 275 404.5 242 c 128,-1,66
 388 209 388 209 366 190 c 1,0,1
124 311 m 0,67,68
 124 270 124 270 147 252 c 128,-1,69
 170 234 170 234 201.5 227 c 128,-1,70
 233 220 233 220 266.5 217.5 c 128,-1,71
 300 215 300 215 322 205 c 1,72,73
 343 221 343 221 357.5 248 c 128,-1,74
 372 275 372 275 372 304 c 0,75,76
 372 329 372 329 361 346 c 128,-1,77
 350 363 350 363 333 373.5 c 128,-1,78
 316 384 316 384 295.5 388.5 c 128,-1,79
 275 393 275 393 255 393 c 0,80,81
 203 393 203 393 169 410 c 1,82,83
 152 395 152 395 138 368.5 c 128,-1,84
 124 342 124 342 124 311 c 0,67,68
EndSplineSet
EndChar

StartChar: dieresis
Encoding: 168 168 107
Width: 284
GlyphClass: 2
Flags: W
LayerCount: 2
Fore
SplineSet
55 640 m 1,0,-1
 73 728 l 1,1,-1
 117 728 l 1,2,-1
 98 640 l 1,3,-1
 55 640 l 1,0,-1
186 640 m 1,4,-1
 205 728 l 1,5,-1
 248 728 l 1,6,-1
 230 640 l 1,7,-1
 186 640 l 1,4,-1
EndSplineSet
EndChar

StartChar: copyright
Encoding: 169 169 108
Width: 842
GlyphClass: 2
Flags: W
LayerCount: 2
Fore
SplineSet
431 -7 m 0,0,1
 353 -7 353 -7 286 20.5 c 128,-1,2
 219 48 219 48 170.5 96.5 c 128,-1,3
 122 145 122 145 94.5 211 c 128,-1,4
 67 277 67 277 67 355 c 0,5,6
 67 432 67 432 94.5 498 c 128,-1,7
 122 564 122 564 170.5 612 c 128,-1,8
 219 660 219 660 286 687.5 c 128,-1,9
 353 715 353 715 431 715 c 0,10,11
 510 715 510 715 577 687.5 c 128,-1,12
 644 660 644 660 693 612 c 128,-1,13
 742 564 742 564 770 498 c 128,-1,14
 798 432 798 432 798 355 c 0,15,16
 798 277 798 277 770 211 c 128,-1,17
 742 145 742 145 693 96.5 c 128,-1,18
 644 48 644 48 577 20.5 c 128,-1,19
 510 -7 510 -7 431 -7 c 0,0,1
432 21 m 0,20,21
 503 21 503 21 564.5 45 c 128,-1,22
 626 69 626 69 671 113 c 128,-1,23
 716 157 716 157 742 217.5 c 128,-1,24
 768 278 768 278 768 352 c 0,25,26
 768 424 768 424 742.5 485.5 c 128,-1,27
 717 547 717 547 672 592 c 128,-1,28
 627 637 627 637 565.5 662 c 128,-1,29
 504 687 504 687 432 687 c 256,30,31
 360 687 360 687 298.5 662 c 128,-1,32
 237 637 237 637 192 592.5 c 128,-1,33
 147 548 147 548 121.5 487 c 128,-1,34
 96 426 96 426 96 354 c 0,35,36
 96 283 96 283 121 222 c 128,-1,37
 146 161 146 161 191 116.5 c 128,-1,38
 236 72 236 72 297.5 46.5 c 128,-1,39
 359 21 359 21 432 21 c 0,20,21
439 124 m 0,40,41
 396 124 396 124 355 140 c 128,-1,42
 314 156 314 156 282 186 c 128,-1,43
 250 216 250 216 230.5 259 c 128,-1,44
 211 302 211 302 211 355 c 0,45,46
 211 396 211 396 224 437.5 c 128,-1,47
 237 479 237 479 264.5 512.5 c 128,-1,48
 292 546 292 546 333.5 567 c 128,-1,49
 375 588 375 588 432 588 c 0,50,51
 494 588 494 588 544 561 c 128,-1,52
 594 534 594 534 616 481 c 1,53,-1
 568 465 l 1,54,55
 557 489 557 489 540 504.5 c 128,-1,56
 523 520 523 520 504.5 528.5 c 128,-1,57
 486 537 486 537 466.5 540 c 128,-1,58
 447 543 447 543 432 543 c 0,59,60
 388 543 388 543 356 526 c 128,-1,61
 324 509 324 509 303 482 c 128,-1,62
 282 455 282 455 272 421.5 c 128,-1,63
 262 388 262 388 262 355 c 0,64,65
 262 310 262 310 278 275.5 c 128,-1,66
 294 241 294 241 319.5 217.5 c 128,-1,67
 345 194 345 194 375.5 181.5 c 128,-1,68
 406 169 406 169 435 169 c 0,69,70
 455 169 455 169 476 174.5 c 128,-1,71
 497 180 497 180 516.5 190.5 c 128,-1,72
 536 201 536 201 551.5 216.5 c 128,-1,73
 567 232 567 232 576 251 c 1,74,-1
 624 237 l 1,75,76
 618 220 618 220 602.5 200.5 c 128,-1,77
 587 181 587 181 563 164 c 128,-1,78
 539 147 539 147 507.5 135.5 c 128,-1,79
 476 124 476 124 439 124 c 0,40,41
EndSplineSet
EndChar

StartChar: ordfeminine
Encoding: 170 170 109
Width: 410
GlyphClass: 2
Flags: W
LayerCount: 2
Fore
SplineSet
168 348 m 256,0,1
 126 348 126 348 101 374 c 128,-1,2
 76 400 76 400 76 438 c 0,3,4
 76 465 76 465 89 488 c 128,-1,5
 102 511 102 511 125 527.5 c 128,-1,6
 148 544 148 544 178 553.5 c 128,-1,7
 208 563 208 563 243 563 c 0,8,9
 270 563 270 563 295 558.5 c 128,-1,10
 320 554 320 554 340 545 c 1,11,-1
 346 576 l 2,12,13
 349 589 349 589 349 602 c 0,14,15
 349 635 349 635 329 654.5 c 128,-1,16
 309 674 309 674 272 674 c 0,17,18
 222 674 222 674 154 633 c 1,19,-1
 144 664 l 1,20,21
 220 710 220 710 283 710 c 0,22,23
 337 710 337 710 367 684 c 128,-1,24
 397 658 397 658 397 610 c 0,25,26
 397 589 397 589 393 570 c 2,27,-1
 360 417 l 2,28,29
 359 415 359 415 359 410 c 0,30,31
 359 399 359 399 372 397 c 1,32,-1
 363 354 l 1,33,34
 334 354 334 354 325.5 364 c 128,-1,35
 317 374 317 374 317 395 c 0,36,37
 317 399 317 399 317 403.5 c 128,-1,38
 317 408 317 408 318 413 c 1,39,40
 288 381 288 381 249 364.5 c 128,-1,41
 210 348 210 348 168 348 c 256,0,1
188 386 m 0,42,43
 209 386 209 386 231 392 c 128,-1,44
 253 398 253 398 272 407.5 c 128,-1,45
 291 417 291 417 304.5 430.5 c 128,-1,46
 318 444 318 444 321 459 c 2,47,-1
 333 514 l 1,48,49
 313 524 313 524 290.5 527.5 c 128,-1,50
 268 531 268 531 244 531 c 0,51,52
 192 531 192 531 157.5 508 c 128,-1,53
 123 485 123 485 123 447 c 0,54,55
 123 421 123 421 141 403.5 c 128,-1,56
 159 386 159 386 188 386 c 0,42,43
EndSplineSet
EndChar

StartChar: guillemotleft
Encoding: 171 171 110
Width: 532
GlyphClass: 2
Flags: W
LayerCount: 2
Fore
SplineSet
36 273 m 1,0,-1
 305 448 l 1,1,-1
 296 403 l 1,2,-1
 75 259 l 1,3,-1
 235 116 l 1,4,-1
 225 71 l 1,5,-1
 29 243 l 1,6,-1
 36 273 l 1,0,-1
230 273 m 1,7,-1
 500 448 l 1,8,-1
 490 403 l 1,9,-1
 269 259 l 1,10,-1
 429 116 l 1,11,-1
 420 71 l 1,12,-1
 224 243 l 1,13,-1
 230 273 l 1,7,-1
EndSplineSet
EndChar

StartChar: logicalnot
Encoding: 172 172 111
Width: 554
GlyphClass: 2
Flags: W
LayerCount: 2
Fore
SplineSet
495 354 m 1,0,-1
 447 131 l 1,1,-1
 403 131 l 1,2,-1
 441 308 l 1,3,-1
 79 308 l 1,4,-1
 89 354 l 1,5,-1
 495 354 l 1,0,-1
EndSplineSet
EndChar

StartChar: uni00AD
Encoding: 173 173 112
Width: 537
GlyphClass: 2
Flags: W
LayerCount: 2
Fore
SplineSet
54 249 m 1,0,-1
 64 295 l 1,1,-1
 470 295 l 1,2,-1
 461 249 l 1,3,-1
 54 249 l 1,0,-1
EndSplineSet
EndChar

StartChar: registered
Encoding: 174 174 113
Width: 842
GlyphClass: 2
Flags: W
LayerCount: 2
Fore
SplineSet
432 -7 m 0,0,1
 353 -7 353 -7 286 20.5 c 128,-1,2
 219 48 219 48 170.5 96.5 c 128,-1,3
 122 145 122 145 94.5 211 c 128,-1,4
 67 277 67 277 67 355 c 0,5,6
 67 432 67 432 94.5 498 c 128,-1,7
 122 564 122 564 170.5 612 c 128,-1,8
 219 660 219 660 286 687.5 c 128,-1,9
 353 715 353 715 432 715 c 0,10,11
 510 715 510 715 577 687.5 c 128,-1,12
 644 660 644 660 693 612 c 128,-1,13
 742 564 742 564 770 498 c 128,-1,14
 798 432 798 432 798 355 c 0,15,16
 798 277 798 277 770 211 c 128,-1,17
 742 145 742 145 693 96.5 c 128,-1,18
 644 48 644 48 577 20.5 c 128,-1,19
 510 -7 510 -7 432 -7 c 0,0,1
432 21 m 0,20,21
 503 21 503 21 564 45 c 128,-1,22
 625 69 625 69 670 113 c 128,-1,23
 715 157 715 157 741 218.5 c 128,-1,24
 767 280 767 280 767 355 c 0,25,26
 767 426 767 426 742 486.5 c 128,-1,27
 717 547 717 547 672 591.5 c 128,-1,28
 627 636 627 636 565.5 661.5 c 128,-1,29
 504 687 504 687 432 687 c 256,30,31
 360 687 360 687 298.5 661.5 c 128,-1,32
 237 636 237 636 192 591.5 c 128,-1,33
 147 547 147 547 122 486.5 c 128,-1,34
 97 426 97 426 97 355 c 0,35,36
 97 283 97 283 122 222 c 128,-1,37
 147 161 147 161 191.5 116.5 c 128,-1,38
 236 72 236 72 297.5 46.5 c 128,-1,39
 359 21 359 21 432 21 c 0,20,21
282 581 m 1,40,-1
 472 581 l 2,41,42
 501 581 501 581 525.5 568.5 c 128,-1,43
 550 556 550 556 567.5 536 c 128,-1,44
 585 516 585 516 595 490.5 c 128,-1,45
 605 465 605 465 605 439 c 0,46,47
 605 414 605 414 597 391 c 128,-1,48
 589 368 589 368 575 349.5 c 128,-1,49
 561 331 561 331 540.5 318.5 c 128,-1,50
 520 306 520 306 496 303 c 1,51,-1
 610 125 l 1,52,-1
 564 125 l 1,53,-1
 454 298 l 1,54,-1
 323 298 l 1,55,-1
 323 125 l 1,56,-1
 282 125 l 1,57,-1
 282 581 l 1,40,-1
473 334 m 2,58,59
 518 334 518 334 541.5 365 c 128,-1,60
 565 396 565 396 565 439 c 0,61,62
 565 484 565 484 538 513.5 c 128,-1,63
 511 543 511 543 469 543 c 2,64,-1
 323 543 l 1,65,-1
 323 334 l 1,66,-1
 473 334 l 2,58,59
EndSplineSet
EndChar

StartChar: macron
Encoding: 175 175 114
Width: 372
GlyphClass: 2
Flags: W
LayerCount: 2
Fore
SplineSet
62 671 m 1,0,-1
 70 708 l 1,1,-1
 342 708 l 1,2,-1
 334 671 l 1,3,-1
 62 671 l 1,0,-1
EndSplineSet
EndChar

StartChar: degree
Encoding: 176 176 115
Width: 254
GlyphClass: 2
Flags: W
LayerCount: 2
Fore
SplineSet
181 568 m 0,0,1
 154 568 154 568 137.5 585.5 c 128,-1,2
 121 603 121 603 121 629 c 0,3,4
 121 647 121 647 128.5 664 c 128,-1,5
 136 681 136 681 148.5 694.5 c 128,-1,6
 161 708 161 708 178 716 c 128,-1,7
 195 724 195 724 214 724 c 0,8,9
 241 724 241 724 257.5 705.5 c 128,-1,10
 274 687 274 687 274 661 c 0,11,12
 274 642 274 642 266.5 625 c 128,-1,13
 259 608 259 608 246 595.5 c 128,-1,14
 233 583 233 583 216 575.5 c 128,-1,15
 199 568 199 568 181 568 c 0,0,1
188 600 m 0,16,17
 206 600 206 600 224 616 c 128,-1,18
 242 632 242 632 242 655 c 0,19,20
 242 672 242 672 232.5 681 c 128,-1,21
 223 690 223 690 207 690 c 0,22,23
 187 690 187 690 170.5 675 c 128,-1,24
 154 660 154 660 154 638 c 0,25,26
 154 621 154 621 163 610.5 c 128,-1,27
 172 600 172 600 188 600 c 0,16,17
EndSplineSet
EndChar

StartChar: plusminus
Encoding: 177 177 116
Width: 484
GlyphClass: 2
Flags: W
LayerCount: 2
Fore
SplineSet
71 70 m 1,0,-1
 71 113 l 1,1,-1
 385 113 l 1,2,-1
 385 70 l 1,3,-1
 71 70 l 1,0,-1
385 382 m 1,4,-1
 385 339 l 1,5,-1
 252 339 l 1,6,-1
 252 195 l 1,7,-1
 205 195 l 1,8,-1
 205 339 l 1,9,-1
 71 339 l 1,10,-1
 71 382 l 1,11,-1
 205 382 l 1,12,-1
 205 526 l 1,13,-1
 252 526 l 1,14,-1
 252 382 l 1,15,-1
 385 382 l 1,4,-1
EndSplineSet
EndChar

StartChar: twosuperior
Encoding: 178 178 117
Width: 367
GlyphClass: 2
Flags: W
LayerCount: 2
Fore
SplineSet
62 413 m 1,0,1
 70 451 70 451 84 479.5 c 128,-1,2
 98 508 98 508 117.5 529 c 128,-1,3
 137 550 137 550 162 565 c 128,-1,4
 187 580 187 580 219 592 c 0,5,6
 245 602 245 602 272.5 611 c 128,-1,7
 300 620 300 620 322.5 632.5 c 128,-1,8
 345 645 345 645 359.5 663.5 c 128,-1,9
 374 682 374 682 374 710 c 0,10,11
 374 737 374 737 353.5 757 c 128,-1,12
 333 777 333 777 289 777 c 0,13,14
 265 777 265 777 244 771 c 128,-1,15
 223 765 223 765 206.5 756.5 c 128,-1,16
 190 748 190 748 177 738 c 128,-1,17
 164 728 164 728 156 720 c 1,18,-1
 137 744 l 1,19,20
 140 748 140 748 153 759 c 128,-1,21
 166 770 166 770 187.5 781.5 c 128,-1,22
 209 793 209 793 237.5 802 c 128,-1,23
 266 811 266 811 301 811 c 0,24,25
 359 811 359 811 386.5 784 c 128,-1,26
 414 757 414 757 414 718 c 0,27,28
 414 684 414 684 400 661 c 128,-1,29
 386 638 386 638 363 622 c 128,-1,30
 340 606 340 606 310.5 594.5 c 128,-1,31
 281 583 281 583 250 573 c 0,32,33
 214 561 214 561 190.5 545 c 128,-1,34
 167 529 167 529 153 512 c 128,-1,35
 139 495 139 495 132 478 c 128,-1,36
 125 461 125 461 122 447 c 1,37,-1
 355 447 l 1,38,-1
 348 413 l 1,39,-1
 62 413 l 1,0,1
EndSplineSet
EndChar

StartChar: threesuperior
Encoding: 179 179 118
Width: 370
GlyphClass: 2
Flags: W
LayerCount: 2
Fore
SplineSet
205 407 m 0,0,1
 146 407 146 407 114 432.5 c 128,-1,2
 82 458 82 458 77 499 c 1,3,-1
 105 520 l 1,4,5
 105 488 105 488 131.5 465.5 c 128,-1,6
 158 443 158 443 211 443 c 0,7,8
 237 443 237 443 260.5 449.5 c 128,-1,9
 284 456 284 456 302 467.5 c 128,-1,10
 320 479 320 479 331 494.5 c 128,-1,11
 342 510 342 510 342 529 c 0,12,13
 342 561 342 561 308.5 579.5 c 128,-1,14
 275 598 275 598 216 598 c 2,15,-1
 195 598 l 1,16,-1
 201 630 l 1,17,-1
 223 630 l 2,18,19
 291 630 291 630 329.5 651 c 128,-1,20
 368 672 368 672 368 711 c 0,21,22
 368 742 368 742 342.5 760 c 128,-1,23
 317 778 317 778 277 778 c 0,24,25
 238 778 238 778 205.5 762.5 c 128,-1,26
 173 747 173 747 154 721 c 1,27,-1
 135 747 l 1,28,29
 158 776 158 776 198.5 793.5 c 128,-1,30
 239 811 239 811 284 811 c 0,31,32
 340 811 340 811 373 785 c 128,-1,33
 406 759 406 759 406 717 c 0,34,35
 406 679 406 679 379 652.5 c 128,-1,36
 352 626 352 626 300 615 c 1,37,38
 336 608 336 608 356.5 585.5 c 128,-1,39
 377 563 377 563 377 531 c 0,40,41
 377 503 377 503 362 480 c 128,-1,42
 347 457 347 457 323 441 c 128,-1,43
 299 425 299 425 268 416 c 128,-1,44
 237 407 237 407 205 407 c 0,0,1
EndSplineSet
EndChar

StartChar: acute
Encoding: 180 180 119
Width: 203
GlyphClass: 2
Flags: W
LayerCount: 2
Fore
SplineSet
66 629 m 1,0,-1
 35 645 l 1,1,-1
 111 730 l 1,2,-1
 168 730 l 1,3,-1
 66 629 l 1,0,-1
EndSplineSet
EndChar

StartChar: mu
Encoding: 181 181 120
Width: 591
GlyphClass: 2
Flags: W
LayerCount: 2
Fore
SplineSet
131 520 m 1,0,-1
 181 520 l 1,1,-1
 119 227 l 2,2,3
 108 177 108 177 108 142 c 0,4,5
 108 35 108 35 202 35 c 0,6,7
 232 35 232 35 264 46.5 c 128,-1,8
 296 58 296 58 325.5 78.5 c 128,-1,9
 355 99 355 99 380.5 128 c 128,-1,10
 406 157 406 157 424 192 c 1,11,-1
 494 520 l 1,12,-1
 545 520 l 1,13,-1
 449 70 l 2,14,15
 448 67 448 67 448 60 c 0,16,17
 448 45 448 45 465 45 c 1,18,-1
 454 0 l 1,19,20
 419 0 419 0 410.5 11.5 c 128,-1,21
 402 23 402 23 402 40 c 0,22,23
 402 42 402 42 403.5 52.5 c 128,-1,24
 405 63 405 63 407 76 c 128,-1,25
 409 89 409 89 411.5 102 c 128,-1,26
 414 115 414 115 416 123 c 1,27,28
 396 94 396 94 369.5 69.5 c 128,-1,29
 343 45 343 45 313.5 27.5 c 128,-1,30
 284 10 284 10 252.5 0 c 128,-1,31
 221 -10 221 -10 190 -10 c 0,32,33
 142 -10 142 -10 116.5 14.5 c 128,-1,34
 91 39 91 39 85 82 c 1,35,-1
 25 -212 l 1,36,-1
 -25 -212 l 1,37,-1
 131 520 l 1,0,-1
EndSplineSet
EndChar

StartChar: paragraph
Encoding: 182 182 121
Width: 565
GlyphClass: 2
Flags: W
LayerCount: 2
Fore
SplineSet
64 424 m 0,0,1
 64 488 64 488 87 541 c 128,-1,2
 110 594 110 594 152.5 631.5 c 128,-1,3
 195 669 195 669 255 689.5 c 128,-1,4
 315 710 315 710 389 710 c 2,5,-1
 605 710 l 1,6,-1
 596 669 l 1,7,-1
 530 669 l 1,8,-1
 370 -80 l 1,9,-1
 326 -80 l 1,10,-1
 394 237 l 1,11,-1
 318 237 l 1,12,-1
 250 -80 l 1,13,-1
 206 -80 l 1,14,-1
 273 237 l 1,15,16
 173 239 173 239 118.5 288.5 c 128,-1,17
 64 338 64 338 64 424 c 0,0,1
109 434 m 0,18,19
 109 395 109 395 122.5 366.5 c 128,-1,20
 136 338 136 338 159 319.5 c 128,-1,21
 182 301 182 301 214 291 c 128,-1,22
 246 281 246 281 282 279 c 1,23,-1
 365 669 l 1,24,25
 304 669 304 669 256.5 651 c 128,-1,26
 209 633 209 633 176 602 c 128,-1,27
 143 571 143 571 126 528 c 128,-1,28
 109 485 109 485 109 434 c 0,18,19
485 669 m 1,29,-1
 410 669 l 1,30,-1
 327 279 l 1,31,-1
 402 279 l 1,32,-1
 485 669 l 1,29,-1
EndSplineSet
EndChar

StartChar: periodcentered
Encoding: 183 183 122
Width: 174
GlyphClass: 2
Flags: W
LayerCount: 2
Fore
SplineSet
53 248 m 1,0,-1
 75 349 l 1,1,-1
 118 349 l 1,2,-1
 97 248 l 1,3,-1
 53 248 l 1,0,-1
EndSplineSet
EndChar

StartChar: cedilla
Encoding: 184 184 123
Width: 258
GlyphClass: 2
Flags: W
LayerCount: 2
Fore
SplineSet
8 -125 m 1,0,1
 21 -132 21 -132 42 -138 c 128,-1,2
 63 -144 63 -144 87 -144 c 0,3,4
 152 -144 152 -144 152 -99 c 0,5,6
 152 -83 152 -83 140.5 -77 c 128,-1,7
 129 -71 129 -71 111 -71 c 0,8,9
 91 -71 91 -71 68 -76 c 128,-1,10
 45 -81 45 -81 32 -85 c 1,11,-1
 106 15 l 1,12,-1
 130 3 l 1,13,-1
 86 -53 l 1,14,15
 95 -49 95 -49 105.5 -48 c 128,-1,16
 116 -47 116 -47 124 -47 c 0,17,18
 182 -47 182 -47 182 -93 c 0,19,20
 182 -131 182 -131 155 -151 c 128,-1,21
 128 -171 128 -171 77 -171 c 0,22,23
 51 -171 51 -171 28.5 -165.5 c 128,-1,24
 6 -160 6 -160 -11 -152 c 1,25,-1
 8 -125 l 1,0,1
EndSplineSet
EndChar

StartChar: onesuperior
Encoding: 185 185 124
Width: 253
GlyphClass: 2
Flags: W
LayerCount: 2
Fore
SplineSet
264 447 m 1,0,-1
 257 412 l 1,1,-1
 72 412 l 1,2,-1
 79 447 l 1,3,-1
 157 447 l 1,4,-1
 225 769 l 1,5,6
 219 763 219 763 206.5 754.5 c 128,-1,7
 194 746 194 746 179.5 738.5 c 128,-1,8
 165 731 165 731 150.5 726 c 128,-1,9
 136 721 136 721 124 721 c 1,10,-1
 131 756 l 1,11,12
 146 756 146 756 164 764 c 128,-1,13
 182 772 182 772 197 782 c 128,-1,14
 212 792 212 792 222.5 801 c 128,-1,15
 233 810 233 810 234 811 c 2,16,-1
 270 811 l 1,17,-1
 192 447 l 1,18,-1
 264 447 l 1,0,-1
EndSplineSet
EndChar

StartChar: ordmasculine
Encoding: 186 186 125
Width: 431
GlyphClass: 2
Flags: W
LayerCount: 2
Fore
SplineSet
223 348 m 0,0,1
 191 348 191 348 166 359.5 c 128,-1,2
 141 371 141 371 123.5 391.5 c 128,-1,3
 106 412 106 412 97 438.5 c 128,-1,4
 88 465 88 465 88 495 c 0,5,6
 88 537 88 537 105.5 576 c 128,-1,7
 123 615 123 615 152 644.5 c 128,-1,8
 181 674 181 674 219.5 692 c 128,-1,9
 258 710 258 710 300 710 c 0,10,11
 331 710 331 710 356.5 698.5 c 128,-1,12
 382 687 382 687 400 667 c 128,-1,13
 418 647 418 647 427.5 620 c 128,-1,14
 437 593 437 593 437 562 c 0,15,16
 437 521 437 521 419.5 482.5 c 128,-1,17
 402 444 402 444 372.5 414 c 128,-1,18
 343 384 343 384 304.5 366 c 128,-1,19
 266 348 266 348 223 348 c 0,0,1
231 385 m 0,20,21
 261 385 261 385 290 399 c 128,-1,22
 319 413 319 413 342 436.5 c 128,-1,23
 365 460 365 460 379 491 c 128,-1,24
 393 522 393 522 393 556 c 0,25,26
 393 605 393 605 365 638 c 128,-1,27
 337 671 337 671 292 671 c 0,28,29
 262 671 262 671 233.5 657.5 c 128,-1,30
 205 644 205 644 182 620.5 c 128,-1,31
 159 597 159 597 145 566 c 128,-1,32
 131 535 131 535 131 500 c 0,33,34
 131 451 131 451 158.5 418 c 128,-1,35
 186 385 186 385 231 385 c 0,20,21
EndSplineSet
EndChar

StartChar: guillemotright
Encoding: 187 187 126
Width: 532
GlyphClass: 2
Flags: W
LayerCount: 2
Fore
SplineSet
477 243 m 1,0,-1
 209 71 l 1,1,-1
 218 116 l 1,2,-1
 439 259 l 1,3,-1
 279 403 l 1,4,-1
 288 448 l 1,5,-1
 484 273 l 1,6,-1
 477 243 l 1,0,-1
283 243 m 1,7,-1
 14 71 l 1,8,-1
 24 116 l 1,9,-1
 245 259 l 1,10,-1
 85 403 l 1,11,-1
 94 448 l 1,12,-1
 289 273 l 1,13,-1
 283 243 l 1,7,-1
EndSplineSet
EndChar

StartChar: onequarter
Encoding: 188 188 127
Width: 758
GlyphClass: 2
Flags: W
LayerCount: 2
Fore
SplineSet
591 106 m 1,0,-1
 373 106 l 1,1,-1
 380 138 l 1,2,-1
 663 393 l 1,3,-1
 687 393 l 1,4,-1
 633 140 l 1,5,-1
 687 140 l 1,6,-1
 680 106 l 1,7,-1
 626 106 l 1,8,-1
 603 0 l 1,9,-1
 569 0 l 1,10,-1
 591 106 l 1,0,-1
599 140 m 1,11,-1
 642 342 l 1,12,-1
 420 140 l 1,13,-1
 599 140 l 1,11,-1
53 21 m 1,14,-1
 726 713 l 1,15,-1
 749 690 l 1,16,-1
 76 -3 l 1,17,-1
 53 21 l 1,14,-1
254 367 m 1,18,-1
 247 332 l 1,19,-1
 62 332 l 1,20,-1
 69 367 l 1,21,-1
 147 367 l 1,22,-1
 215 689 l 1,23,24
 209 683 209 683 196.5 674.5 c 128,-1,25
 184 666 184 666 169.5 658.5 c 128,-1,26
 155 651 155 651 140.5 646 c 128,-1,27
 126 641 126 641 114 641 c 1,28,-1
 121 676 l 1,29,30
 136 676 136 676 154 684 c 128,-1,31
 172 692 172 692 187 702 c 128,-1,32
 202 712 202 712 212.5 721 c 128,-1,33
 223 730 223 730 224 731 c 2,34,-1
 260 731 l 1,35,-1
 182 367 l 1,36,-1
 254 367 l 1,18,-1
EndSplineSet
EndChar

StartChar: onehalf
Encoding: 189 189 128
Width: 795
GlyphClass: 2
Flags: W
LayerCount: 2
Fore
SplineSet
407 0 m 1,0,1
 423 76 423 76 461.5 116.5 c 128,-1,2
 500 157 500 157 563 180 c 0,3,4
 588 189 588 189 615 198 c 128,-1,5
 642 207 642 207 664 219.5 c 128,-1,6
 686 232 686 232 700 250.5 c 128,-1,7
 714 269 714 269 714 297 c 256,8,9
 714 325 714 325 694.5 344.5 c 128,-1,10
 675 364 675 364 632 364 c 0,11,12
 608 364 608 364 587.5 358 c 128,-1,13
 567 352 567 352 550.5 343.5 c 128,-1,14
 534 335 534 335 521.5 325 c 128,-1,15
 509 315 509 315 500 306 c 1,16,-1
 481 331 l 1,17,18
 485 335 485 335 497.5 346 c 128,-1,19
 510 357 510 357 531 368.5 c 128,-1,20
 552 380 552 380 580 389 c 128,-1,21
 608 398 608 398 643 398 c 0,22,23
 700 398 700 398 727 371 c 128,-1,24
 754 344 754 344 754 305 c 0,25,26
 754 272 754 272 740.5 249 c 128,-1,27
 727 226 727 226 704.5 210 c 128,-1,28
 682 194 682 194 653 182.5 c 128,-1,29
 624 171 624 171 592 160 c 0,30,31
 557 148 557 148 534 132 c 128,-1,32
 511 116 511 116 497 99 c 128,-1,33
 483 82 483 82 476 65 c 128,-1,34
 469 48 469 48 466 34 c 1,35,-1
 700 34 l 1,36,-1
 692 0 l 1,37,-1
 407 0 l 1,0,1
25 21 m 1,38,-1
 698 713 l 1,39,-1
 721 690 l 1,40,-1
 48 -3 l 1,41,-1
 25 21 l 1,38,-1
258 367 m 1,42,-1
 251 332 l 1,43,-1
 66 332 l 1,44,-1
 73 367 l 1,45,-1
 151 367 l 1,46,-1
 219 689 l 1,47,48
 213 683 213 683 200.5 674.5 c 128,-1,49
 188 666 188 666 173.5 658.5 c 128,-1,50
 159 651 159 651 144.5 646 c 128,-1,51
 130 641 130 641 118 641 c 1,52,-1
 125 676 l 1,53,54
 140 676 140 676 158 684 c 128,-1,55
 176 692 176 692 191 702 c 128,-1,56
 206 712 206 712 216.5 721 c 128,-1,57
 227 730 227 730 228 731 c 2,58,-1
 264 731 l 1,59,-1
 186 367 l 1,60,-1
 258 367 l 1,42,-1
EndSplineSet
EndChar

StartChar: threequarters
Encoding: 190 190 129
Width: 771
GlyphClass: 2
Flags: W
LayerCount: 2
Fore
SplineSet
189 327 m 0,0,1
 165 327 165 327 142.5 333 c 128,-1,2
 120 339 120 339 102.5 350.5 c 128,-1,3
 85 362 85 362 74 379 c 128,-1,4
 63 396 63 396 63 419 c 1,5,-1
 91 440 l 1,6,7
 91 411 91 411 118 387 c 128,-1,8
 145 363 145 363 196 363 c 0,9,10
 222 363 222 363 246 369.5 c 128,-1,11
 270 376 270 376 288 387.5 c 128,-1,12
 306 399 306 399 317 414.5 c 128,-1,13
 328 430 328 430 328 449 c 0,14,15
 328 481 328 481 294 499.5 c 128,-1,16
 260 518 260 518 202 518 c 2,17,-1
 181 518 l 1,18,-1
 187 550 l 1,19,-1
 209 550 l 2,20,21
 277 550 277 550 315.5 570.5 c 128,-1,22
 354 591 354 591 354 632 c 0,23,24
 354 662 354 662 328 680 c 128,-1,25
 302 698 302 698 263 698 c 256,26,27
 224 698 224 698 191.5 682.5 c 128,-1,28
 159 667 159 667 140 641 c 1,29,-1
 121 667 l 1,30,31
 144 696 144 696 184.5 713.5 c 128,-1,32
 225 731 225 731 270 731 c 0,33,34
 326 731 326 731 359 704.5 c 128,-1,35
 392 678 392 678 392 638 c 0,36,37
 392 557 392 557 286 535 c 1,38,39
 322 528 322 528 342.5 505 c 128,-1,40
 363 482 363 482 363 451 c 0,41,42
 363 423 363 423 348.5 400 c 128,-1,43
 334 377 334 377 309.5 361 c 128,-1,44
 285 345 285 345 253.5 336 c 128,-1,45
 222 327 222 327 189 327 c 0,0,1
600 106 m 1,46,-1
 382 106 l 1,47,-1
 389 138 l 1,48,-1
 672 393 l 1,49,-1
 696 393 l 1,50,-1
 642 140 l 1,51,-1
 696 140 l 1,52,-1
 689 106 l 1,53,-1
 635 106 l 1,54,-1
 612 0 l 1,55,-1
 578 0 l 1,56,-1
 600 106 l 1,46,-1
608 140 m 1,57,-1
 651 342 l 1,58,-1
 429 140 l 1,59,-1
 608 140 l 1,57,-1
86 21 m 1,60,-1
 759 713 l 1,61,-1
 782 690 l 1,62,-1
 109 -3 l 1,63,-1
 86 21 l 1,60,-1
EndSplineSet
EndChar

StartChar: questiondown
Encoding: 191 191 130
Width: 450
GlyphClass: 2
Flags: W
LayerCount: 2
Fore
SplineSet
301 313 m 1,0,1
 293 274 293 274 281.5 246 c 128,-1,2
 270 218 270 218 255.5 197.5 c 128,-1,3
 241 177 241 177 223 162.5 c 128,-1,4
 205 148 205 148 183 136 c 0,5,6
 157 122 157 122 126.5 108 c 128,-1,7
 96 94 96 94 70 73.5 c 128,-1,8
 44 53 44 53 27 21.5 c 128,-1,9
 10 -10 10 -10 10 -58 c 0,10,11
 10 -114 10 -114 43 -142 c 128,-1,12
 76 -170 76 -170 122 -170 c 0,13,14
 175 -170 175 -170 224.5 -140 c 128,-1,15
 274 -110 274 -110 306 -62 c 1,16,-1
 338 -84 l 1,17,18
 318 -115 318 -115 291.5 -139 c 128,-1,19
 265 -163 265 -163 235.5 -179.5 c 128,-1,20
 206 -196 206 -196 174 -204.5 c 128,-1,21
 142 -213 142 -213 112 -213 c 256,22,23
 82 -213 82 -213 55 -203.5 c 128,-1,24
 28 -194 28 -194 7.5 -175.5 c 128,-1,25
 -13 -157 -13 -157 -25 -129 c 128,-1,26
 -37 -101 -37 -101 -37 -64 c 0,27,28
 -37 -12 -37 -12 -21.5 23 c 128,-1,29
 -6 58 -6 58 19.5 83 c 128,-1,30
 45 108 45 108 77 125 c 128,-1,31
 109 142 109 142 143 157 c 0,32,33
 161 165 161 165 178 176 c 128,-1,34
 195 187 195 187 210 204 c 128,-1,35
 225 221 225 221 237 247.5 c 128,-1,36
 249 274 249 274 257 313 c 1,37,-1
 301 313 l 1,0,1
341 506 m 1,38,-1
 320 408 l 1,39,-1
 277 408 l 1,40,-1
 297 506 l 1,41,-1
 341 506 l 1,38,-1
EndSplineSet
EndChar

StartChar: Agrave
Encoding: 192 192 131
Width: 649
GlyphClass: 2
Flags: W
LayerCount: 2
Fore
SplineSet
394 710 m 1,0,-1
 438 710 l 1,1,-1
 571 0 l 1,2,-1
 517 0 l 1,3,-1
 473 234 l 1,4,-1
 154 234 l 1,5,-1
 12 0 l 1,6,-1
 -43 0 l 1,7,-1
 394 710 l 1,0,-1
469 276 m 1,8,-1
 403 648 l 1,9,-1
 175 276 l 1,10,-1
 469 276 l 1,8,-1
366 918 m 1,11,-1
 421 918 l 1,12,-1
 462 833 l 1,13,-1
 425 817 l 1,14,-1
 366 918 l 1,11,-1
EndSplineSet
EndChar

StartChar: Aacute
Encoding: 193 193 132
Width: 649
GlyphClass: 2
Flags: W
LayerCount: 2
Fore
SplineSet
394 710 m 1,0,-1
 438 710 l 1,1,-1
 571 0 l 1,2,-1
 517 0 l 1,3,-1
 473 234 l 1,4,-1
 154 234 l 1,5,-1
 12 0 l 1,6,-1
 -43 0 l 1,7,-1
 394 710 l 1,0,-1
469 276 m 1,8,-1
 403 648 l 1,9,-1
 175 276 l 1,10,-1
 469 276 l 1,8,-1
430 816 m 1,11,-1
 399 832 l 1,12,-1
 475 917 l 1,13,-1
 532 917 l 1,14,-1
 430 816 l 1,11,-1
EndSplineSet
EndChar

StartChar: Acircumflex
Encoding: 194 194 133
Width: 649
GlyphClass: 2
Flags: W
LayerCount: 2
Fore
SplineSet
394 710 m 1,0,-1
 438 710 l 1,1,-1
 571 0 l 1,2,-1
 517 0 l 1,3,-1
 473 234 l 1,4,-1
 154 234 l 1,5,-1
 12 0 l 1,6,-1
 -43 0 l 1,7,-1
 394 710 l 1,0,-1
469 276 m 1,8,-1
 403 648 l 1,9,-1
 175 276 l 1,10,-1
 469 276 l 1,8,-1
331 836 m 1,11,-1
 440 917 l 1,12,-1
 477 917 l 1,13,-1
 552 836 l 1,14,-1
 519 819 l 1,15,-1
 451 882 l 1,16,-1
 357 819 l 1,17,-1
 331 836 l 1,11,-1
EndSplineSet
EndChar

StartChar: Atilde
Encoding: 195 195 134
Width: 649
GlyphClass: 2
Flags: W
LayerCount: 2
Fore
SplineSet
394 710 m 1,0,-1
 438 710 l 1,1,-1
 571 0 l 1,2,-1
 517 0 l 1,3,-1
 473 234 l 1,4,-1
 154 234 l 1,5,-1
 12 0 l 1,6,-1
 -43 0 l 1,7,-1
 394 710 l 1,0,-1
469 276 m 1,8,-1
 403 648 l 1,9,-1
 175 276 l 1,10,-1
 469 276 l 1,8,-1
496 834 m 0,11,12
 475 834 475 834 460 840 c 128,-1,13
 445 846 445 846 433 853.5 c 128,-1,14
 421 861 421 861 410 867.5 c 128,-1,15
 399 874 399 874 384 874 c 0,16,17
 368 874 368 874 357 867 c 128,-1,18
 346 860 346 860 339.5 851.5 c 128,-1,19
 333 843 333 843 329.5 835.5 c 128,-1,20
 326 828 326 828 326 826 c 2,21,-1
 292 826 l 1,22,23
 293 830 293 830 299 843.5 c 128,-1,24
 305 857 305 857 317 871.5 c 128,-1,25
 329 886 329 886 347 897.5 c 128,-1,26
 365 909 365 909 391 909 c 0,27,28
 410 909 410 909 423.5 902.5 c 128,-1,29
 437 896 437 896 449 888.5 c 128,-1,30
 461 881 461 881 473 875 c 128,-1,31
 485 869 485 869 503 869 c 0,32,33
 522 869 522 869 534 876 c 128,-1,34
 546 883 546 883 553.5 891.5 c 128,-1,35
 561 900 561 900 564.5 907.5 c 128,-1,36
 568 915 568 915 568 917 c 2,37,-1
 601 917 l 1,38,39
 600 912 600 912 594 898.5 c 128,-1,40
 588 885 588 885 575.5 871 c 128,-1,41
 563 857 563 857 543.5 845.5 c 128,-1,42
 524 834 524 834 496 834 c 0,11,12
EndSplineSet
EndChar

StartChar: Adieresis
Encoding: 196 196 135
Width: 649
GlyphClass: 2
Flags: W
LayerCount: 2
Fore
SplineSet
394 710 m 1,0,-1
 438 710 l 1,1,-1
 571 0 l 1,2,-1
 517 0 l 1,3,-1
 473 234 l 1,4,-1
 154 234 l 1,5,-1
 12 0 l 1,6,-1
 -43 0 l 1,7,-1
 394 710 l 1,0,-1
469 276 m 1,8,-1
 403 648 l 1,9,-1
 175 276 l 1,10,-1
 469 276 l 1,8,-1
346 828 m 1,11,-1
 364 916 l 1,12,-1
 408 916 l 1,13,-1
 389 828 l 1,14,-1
 346 828 l 1,11,-1
477 828 m 1,15,-1
 496 916 l 1,16,-1
 539 916 l 1,17,-1
 521 828 l 1,18,-1
 477 828 l 1,15,-1
EndSplineSet
EndChar

StartChar: Aring
Encoding: 197 197 136
Width: 649
GlyphClass: 2
Flags: W
LayerCount: 2
Fore
SplineSet
394 710 m 1,0,-1
 438 710 l 1,1,-1
 571 0 l 1,2,-1
 517 0 l 1,3,-1
 473 234 l 1,4,-1
 154 234 l 1,5,-1
 12 0 l 1,6,-1
 -43 0 l 1,7,-1
 394 710 l 1,0,-1
469 276 m 1,8,-1
 403 648 l 1,9,-1
 175 276 l 1,10,-1
 469 276 l 1,8,-1
378 843 m 0,11,12
 378 875 378 875 402 896 c 128,-1,13
 426 917 426 917 458 917 c 0,14,15
 482 917 482 917 496 903 c 128,-1,16
 510 889 510 889 510 867 c 0,17,18
 510 835 510 835 486.5 813.5 c 128,-1,19
 463 792 463 792 431 792 c 0,20,21
 406 792 406 792 392 806 c 128,-1,22
 378 820 378 820 378 843 c 0,11,12
452 894 m 0,23,24
 434 894 434 894 419.5 881 c 128,-1,25
 405 868 405 868 405 847 c 0,26,27
 405 833 405 833 413.5 824 c 128,-1,28
 422 815 422 815 436 815 c 0,29,30
 452 815 452 815 468 828.5 c 128,-1,31
 484 842 484 842 484 862 c 0,32,33
 484 877 484 877 475 885.5 c 128,-1,34
 466 894 466 894 452 894 c 0,23,24
EndSplineSet
EndChar

StartChar: AE
Encoding: 198 198 137
Width: 922
GlyphClass: 2
Flags: W
LayerCount: 2
Fore
SplineSet
506 710 m 1,0,-1
 958 710 l 1,1,-1
 947 664 l 1,2,-1
 560 664 l 1,3,-1
 502 386 l 1,4,-1
 837 386 l 1,5,-1
 827 339 l 1,6,-1
 491 339 l 1,7,-1
 429 46 l 1,8,-1
 824 46 l 1,9,-1
 815 0 l 1,10,-1
 369 0 l 1,11,-1
 419 234 l 1,12,-1
 166 234 l 1,13,-1
 -25 0 l 1,14,-1
 -82 0 l 1,15,-1
 506 710 l 1,0,-1
426 280 m 1,16,-1
 503 646 l 1,17,-1
 200 280 l 1,18,-1
 426 280 l 1,16,-1
EndSplineSet
EndChar

StartChar: Ccedilla
Encoding: 199 199 138
Width: 655
GlyphClass: 2
Flags: W
LayerCount: 2
Fore
SplineSet
189 -125 m 1,0,1
 202 -132 202 -132 223 -138 c 128,-1,2
 244 -144 244 -144 268 -144 c 0,3,4
 333 -144 333 -144 333 -99 c 0,5,6
 333 -83 333 -83 321.5 -77 c 128,-1,7
 310 -71 310 -71 292 -71 c 0,8,9
 272 -71 272 -71 249 -76 c 128,-1,10
 226 -81 226 -81 213 -85 c 1,11,-1
 272 -5 l 1,12,13
 218 -1 218 -1 175.5 25.5 c 128,-1,14
 133 52 133 52 104.5 93 c 128,-1,15
 76 134 76 134 61 186 c 128,-1,16
 46 238 46 238 46 293 c 0,17,18
 46 366 46 366 76.5 440.5 c 128,-1,19
 107 515 107 515 161 576 c 128,-1,20
 215 637 215 637 289 675.5 c 128,-1,21
 363 714 363 714 450 714 c 0,22,23
 495 714 495 714 531 702.5 c 128,-1,24
 567 691 567 691 594 670.5 c 128,-1,25
 621 650 621 650 639 621.5 c 128,-1,26
 657 593 657 593 665 559 c 1,27,-1
 618 535 l 1,28,29
 609 572 609 572 590 597 c 128,-1,30
 571 622 571 622 546.5 637.5 c 128,-1,31
 522 653 522 653 493.5 660 c 128,-1,32
 465 667 465 667 436 667 c 0,33,34
 387 667 387 667 342.5 651.5 c 128,-1,35
 298 636 298 636 260.5 609 c 128,-1,36
 223 582 223 582 192.5 545.5 c 128,-1,37
 162 509 162 509 141 468 c 128,-1,38
 120 427 120 427 108.5 382.5 c 128,-1,39
 97 338 97 338 97 296 c 0,40,41
 97 244 97 244 111.5 198 c 128,-1,42
 126 152 126 152 153 117 c 128,-1,43
 180 82 180 82 218.5 61.5 c 128,-1,44
 257 41 257 41 305 41 c 0,45,46
 335 41 335 41 369 49 c 128,-1,47
 403 57 403 57 436 74 c 128,-1,48
 469 91 469 91 499.5 117.5 c 128,-1,49
 530 144 530 144 555 180 c 1,50,-1
 595 159 l 1,51,52
 570 120 570 120 536 90.5 c 128,-1,53
 502 61 502 61 463 40 c 128,-1,54
 424 19 424 19 383 7.5 c 128,-1,55
 342 -4 342 -4 304 -5 c 1,56,-1
 267 -53 l 1,57,58
 276 -49 276 -49 286.5 -48 c 128,-1,59
 297 -47 297 -47 305 -47 c 0,60,61
 363 -47 363 -47 363 -93 c 0,62,63
 363 -131 363 -131 336 -151 c 128,-1,64
 309 -171 309 -171 258 -171 c 0,65,66
 232 -171 232 -171 209.5 -165.5 c 128,-1,67
 187 -160 187 -160 170 -152 c 1,68,-1
 189 -125 l 1,0,1
EndSplineSet
EndChar

StartChar: Egrave
Encoding: 200 200 139
Width: 584
GlyphClass: 2
Flags: W
LayerCount: 2
Fore
SplineSet
178 710 m 1,0,-1
 619 710 l 1,1,-1
 610 664 l 1,2,-1
 219 664 l 1,3,-1
 160 385 l 1,4,-1
 501 385 l 1,5,-1
 491 341 l 1,6,-1
 151 341 l 1,7,-1
 88 46 l 1,8,-1
 487 46 l 1,9,-1
 477 0 l 1,10,-1
 27 0 l 1,11,-1
 178 710 l 1,0,-1
361 918 m 1,12,-1
 416 918 l 1,13,-1
 457 833 l 1,14,-1
 420 817 l 1,15,-1
 361 918 l 1,12,-1
EndSplineSet
EndChar

StartChar: Eacute
Encoding: 201 201 140
Width: 584
GlyphClass: 2
Flags: W
LayerCount: 2
Fore
SplineSet
413 816 m 1,0,-1
 382 832 l 1,1,-1
 458 917 l 1,2,-1
 515 917 l 1,3,-1
 413 816 l 1,0,-1
178 710 m 1,4,-1
 619 710 l 1,5,-1
 610 664 l 1,6,-1
 219 664 l 1,7,-1
 160 385 l 1,8,-1
 501 385 l 1,9,-1
 491 341 l 1,10,-1
 151 341 l 1,11,-1
 88 46 l 1,12,-1
 487 46 l 1,13,-1
 477 0 l 1,14,-1
 27 0 l 1,15,-1
 178 710 l 1,4,-1
EndSplineSet
EndChar

StartChar: Ecircumflex
Encoding: 202 202 141
Width: 584
GlyphClass: 2
Flags: W
LayerCount: 2
Fore
SplineSet
323 836 m 1,0,-1
 432 917 l 1,1,-1
 469 917 l 1,2,-1
 544 836 l 1,3,-1
 511 819 l 1,4,-1
 443 882 l 1,5,-1
 349 819 l 1,6,-1
 323 836 l 1,0,-1
178 710 m 1,7,-1
 619 710 l 1,8,-1
 610 664 l 1,9,-1
 219 664 l 1,10,-1
 160 385 l 1,11,-1
 501 385 l 1,12,-1
 491 341 l 1,13,-1
 151 341 l 1,14,-1
 88 46 l 1,15,-1
 487 46 l 1,16,-1
 477 0 l 1,17,-1
 27 0 l 1,18,-1
 178 710 l 1,7,-1
EndSplineSet
EndChar

StartChar: Edieresis
Encoding: 203 203 142
Width: 584
GlyphClass: 2
Flags: W
LayerCount: 2
Fore
SplineSet
336 828 m 1,0,-1
 354 916 l 1,1,-1
 398 916 l 1,2,-1
 379 828 l 1,3,-1
 336 828 l 1,0,-1
467 828 m 1,4,-1
 486 916 l 1,5,-1
 529 916 l 1,6,-1
 511 828 l 1,7,-1
 467 828 l 1,4,-1
178 710 m 1,8,-1
 619 710 l 1,9,-1
 610 664 l 1,10,-1
 219 664 l 1,11,-1
 160 385 l 1,12,-1
 501 385 l 1,13,-1
 491 341 l 1,14,-1
 151 341 l 1,15,-1
 88 46 l 1,16,-1
 487 46 l 1,17,-1
 477 0 l 1,18,-1
 27 0 l 1,19,-1
 178 710 l 1,8,-1
EndSplineSet
EndChar

StartChar: Igrave
Encoding: 204 204 143
Width: 233
GlyphClass: 2
Flags: W
LayerCount: 2
Fore
SplineSet
178 709 m 1,0,-1
 229 709 l 1,1,-1
 78 0 l 1,2,-1
 27 0 l 1,3,-1
 178 709 l 1,0,-1
162 918 m 1,4,-1
 217 918 l 1,5,-1
 258 833 l 1,6,-1
 221 817 l 1,7,-1
 162 918 l 1,4,-1
EndSplineSet
EndChar

StartChar: Iacute
Encoding: 205 205 144
Width: 233
GlyphClass: 2
Flags: W
LayerCount: 2
Fore
SplineSet
178 709 m 1,0,-1
 229 709 l 1,1,-1
 78 0 l 1,2,-1
 27 0 l 1,3,-1
 178 709 l 1,0,-1
218 816 m 1,4,-1
 187 832 l 1,5,-1
 263 917 l 1,6,-1
 320 917 l 1,7,-1
 218 816 l 1,4,-1
EndSplineSet
EndChar

StartChar: Icircumflex
Encoding: 206 206 145
Width: 233
GlyphClass: 2
Flags: W
LayerCount: 2
Fore
SplineSet
178 709 m 1,0,-1
 229 709 l 1,1,-1
 78 0 l 1,2,-1
 27 0 l 1,3,-1
 178 709 l 1,0,-1
119 836 m 1,4,-1
 228 917 l 1,5,-1
 265 917 l 1,6,-1
 340 836 l 1,7,-1
 307 819 l 1,8,-1
 239 882 l 1,9,-1
 145 819 l 1,10,-1
 119 836 l 1,4,-1
EndSplineSet
EndChar

StartChar: Idieresis
Encoding: 207 207 146
Width: 233
GlyphClass: 2
Flags: W
LayerCount: 2
Fore
SplineSet
178 709 m 1,0,-1
 229 709 l 1,1,-1
 78 0 l 1,2,-1
 27 0 l 1,3,-1
 178 709 l 1,0,-1
140 828 m 1,4,-1
 158 916 l 1,5,-1
 202 916 l 1,6,-1
 183 828 l 1,7,-1
 140 828 l 1,4,-1
271 828 m 1,8,-1
 290 916 l 1,9,-1
 333 916 l 1,10,-1
 315 828 l 1,11,-1
 271 828 l 1,8,-1
EndSplineSet
EndChar

StartChar: Eth
Encoding: 208 208 147
Width: 695
GlyphClass: 2
Flags: W
LayerCount: 2
Fore
SplineSet
54 378 m 1,0,-1
 114 378 l 1,1,-1
 185 710 l 1,2,-1
 410 710 l 2,3,4
 476 710 476 710 524.5 689 c 128,-1,5
 573 668 573 668 604.5 631.5 c 128,-1,6
 636 595 636 595 651.5 545.5 c 128,-1,7
 667 496 667 496 667 439 c 0,8,9
 667 344 667 344 636.5 264 c 128,-1,10
 606 184 606 184 551.5 125 c 128,-1,11
 497 66 497 66 422 33 c 128,-1,12
 347 0 347 0 259 0 c 2,13,-1
 34 0 l 1,14,-1
 105 336 l 1,15,-1
 45 336 l 1,16,-1
 54 378 l 1,0,-1
269 46 m 2,17,18
 349 46 349 46 413 77.5 c 128,-1,19
 477 109 477 109 521.5 162 c 128,-1,20
 566 215 566 215 590 284.5 c 128,-1,21
 614 354 614 354 614 430 c 0,22,23
 614 481 614 481 600.5 524 c 128,-1,24
 587 567 587 567 560 598 c 128,-1,25
 533 629 533 629 493 646.5 c 128,-1,26
 453 664 453 664 400 664 c 2,27,-1
 226 664 l 1,28,-1
 165 378 l 1,29,-1
 334 378 l 1,30,-1
 325 336 l 1,31,-1
 156 336 l 1,32,-1
 95 46 l 1,33,-1
 269 46 l 2,17,18
EndSplineSet
EndChar

StartChar: Ntilde
Encoding: 209 209 148
Width: 741
GlyphClass: 2
Flags: W
LayerCount: 2
Fore
SplineSet
178 710 m 1,0,-1
 218 710 l 1,1,-1
 554 85 l 1,2,-1
 686 709 l 1,3,-1
 737 709 l 1,4,-1
 586 0 l 1,5,-1
 541 0 l 1,6,-1
 209 614 l 1,7,-1
 78 0 l 1,8,-1
 27 0 l 1,9,-1
 178 710 l 1,0,-1
547 834 m 0,10,11
 526 834 526 834 511 840 c 128,-1,12
 496 846 496 846 484 853.5 c 128,-1,13
 472 861 472 861 461 867.5 c 128,-1,14
 450 874 450 874 435 874 c 0,15,16
 419 874 419 874 408 867 c 128,-1,17
 397 860 397 860 390.5 851.5 c 128,-1,18
 384 843 384 843 380.5 835.5 c 128,-1,19
 377 828 377 828 377 826 c 2,20,-1
 343 826 l 1,21,22
 344 830 344 830 350 843.5 c 128,-1,23
 356 857 356 857 368 871.5 c 128,-1,24
 380 886 380 886 398 897.5 c 128,-1,25
 416 909 416 909 442 909 c 0,26,27
 461 909 461 909 474.5 902.5 c 128,-1,28
 488 896 488 896 500 888.5 c 128,-1,29
 512 881 512 881 524 875 c 128,-1,30
 536 869 536 869 554 869 c 0,31,32
 573 869 573 869 585 876 c 128,-1,33
 597 883 597 883 604.5 891.5 c 128,-1,34
 612 900 612 900 615.5 907.5 c 128,-1,35
 619 915 619 915 619 917 c 2,36,-1
 652 917 l 1,37,38
 651 912 651 912 645 898.5 c 128,-1,39
 639 885 639 885 626.5 871 c 128,-1,40
 614 857 614 857 594.5 845.5 c 128,-1,41
 575 834 575 834 547 834 c 0,10,11
EndSplineSet
EndChar

StartChar: Ograve
Encoding: 210 210 149
Width: 724
GlyphClass: 2
Flags: W
LayerCount: 2
Fore
SplineSet
297 -5 m 0,0,1
 237 -5 237 -5 190.5 19 c 128,-1,2
 144 43 144 43 112.5 83.5 c 128,-1,3
 81 124 81 124 64.5 177 c 128,-1,4
 48 230 48 230 48 287 c 0,5,6
 48 369 48 369 82 446 c 128,-1,7
 116 523 116 523 172 583 c 128,-1,8
 228 643 228 643 301 679 c 128,-1,9
 374 715 374 715 451 715 c 0,10,11
 511 715 511 715 557 690 c 128,-1,12
 603 665 603 665 634.5 624 c 128,-1,13
 666 583 666 583 682 530 c 128,-1,14
 698 477 698 477 698 421 c 0,15,16
 698 340 698 340 664 263 c 128,-1,17
 630 186 630 186 574 126.5 c 128,-1,18
 518 67 518 67 446 31 c 128,-1,19
 374 -5 374 -5 297 -5 c 0,0,1
307 42 m 0,20,21
 376 42 376 42 438 75.5 c 128,-1,22
 500 109 500 109 546 162.5 c 128,-1,23
 592 216 592 216 619 283 c 128,-1,24
 646 350 646 350 646 416 c 0,25,26
 646 467 646 467 632 512.5 c 128,-1,27
 618 558 618 558 591.5 592.5 c 128,-1,28
 565 627 565 627 526.5 647.5 c 128,-1,29
 488 668 488 668 440 668 c 0,30,31
 371 668 371 668 309 634.5 c 128,-1,32
 247 601 247 601 200.5 547.5 c 128,-1,33
 154 494 154 494 127 427 c 128,-1,34
 100 360 100 360 100 293 c 0,35,36
 100 242 100 242 114 196.5 c 128,-1,37
 128 151 128 151 154.5 116.5 c 128,-1,38
 181 82 181 82 219.5 62 c 128,-1,39
 258 42 258 42 307 42 c 0,20,21
424 918 m 1,40,-1
 479 918 l 1,41,-1
 520 833 l 1,42,-1
 483 817 l 1,43,-1
 424 918 l 1,40,-1
EndSplineSet
EndChar

StartChar: Oacute
Encoding: 211 211 150
Width: 724
GlyphClass: 2
Flags: W
LayerCount: 2
Fore
SplineSet
469 816 m 1,0,-1
 438 832 l 1,1,-1
 514 917 l 1,2,-1
 571 917 l 1,3,-1
 469 816 l 1,0,-1
297 -5 m 0,4,5
 237 -5 237 -5 190.5 19 c 128,-1,6
 144 43 144 43 112.5 83.5 c 128,-1,7
 81 124 81 124 64.5 177 c 128,-1,8
 48 230 48 230 48 287 c 0,9,10
 48 369 48 369 82 446 c 128,-1,11
 116 523 116 523 172 583 c 128,-1,12
 228 643 228 643 301 679 c 128,-1,13
 374 715 374 715 451 715 c 0,14,15
 511 715 511 715 557 690 c 128,-1,16
 603 665 603 665 634.5 624 c 128,-1,17
 666 583 666 583 682 530 c 128,-1,18
 698 477 698 477 698 421 c 0,19,20
 698 340 698 340 664 263 c 128,-1,21
 630 186 630 186 574 126.5 c 128,-1,22
 518 67 518 67 446 31 c 128,-1,23
 374 -5 374 -5 297 -5 c 0,4,5
307 42 m 0,24,25
 376 42 376 42 438 75.5 c 128,-1,26
 500 109 500 109 546 162.5 c 128,-1,27
 592 216 592 216 619 283 c 128,-1,28
 646 350 646 350 646 416 c 0,29,30
 646 467 646 467 632 512.5 c 128,-1,31
 618 558 618 558 591.5 592.5 c 128,-1,32
 565 627 565 627 526.5 647.5 c 128,-1,33
 488 668 488 668 440 668 c 0,34,35
 371 668 371 668 309 634.5 c 128,-1,36
 247 601 247 601 200.5 547.5 c 128,-1,37
 154 494 154 494 127 427 c 128,-1,38
 100 360 100 360 100 293 c 0,39,40
 100 242 100 242 114 196.5 c 128,-1,41
 128 151 128 151 154.5 116.5 c 128,-1,42
 181 82 181 82 219.5 62 c 128,-1,43
 258 42 258 42 307 42 c 0,24,25
EndSplineSet
EndChar

StartChar: Ocircumflex
Encoding: 212 212 151
Width: 724
GlyphClass: 2
Flags: W
LayerCount: 2
Fore
SplineSet
371 836 m 1,0,-1
 480 917 l 1,1,-1
 517 917 l 1,2,-1
 592 836 l 1,3,-1
 559 819 l 1,4,-1
 491 882 l 1,5,-1
 397 819 l 1,6,-1
 371 836 l 1,0,-1
297 -5 m 0,7,8
 237 -5 237 -5 190.5 19 c 128,-1,9
 144 43 144 43 112.5 83.5 c 128,-1,10
 81 124 81 124 64.5 177 c 128,-1,11
 48 230 48 230 48 287 c 0,12,13
 48 369 48 369 82 446 c 128,-1,14
 116 523 116 523 172 583 c 128,-1,15
 228 643 228 643 301 679 c 128,-1,16
 374 715 374 715 451 715 c 0,17,18
 511 715 511 715 557 690 c 128,-1,19
 603 665 603 665 634.5 624 c 128,-1,20
 666 583 666 583 682 530 c 128,-1,21
 698 477 698 477 698 421 c 0,22,23
 698 340 698 340 664 263 c 128,-1,24
 630 186 630 186 574 126.5 c 128,-1,25
 518 67 518 67 446 31 c 128,-1,26
 374 -5 374 -5 297 -5 c 0,7,8
307 42 m 0,27,28
 376 42 376 42 438 75.5 c 128,-1,29
 500 109 500 109 546 162.5 c 128,-1,30
 592 216 592 216 619 283 c 128,-1,31
 646 350 646 350 646 416 c 0,32,33
 646 467 646 467 632 512.5 c 128,-1,34
 618 558 618 558 591.5 592.5 c 128,-1,35
 565 627 565 627 526.5 647.5 c 128,-1,36
 488 668 488 668 440 668 c 0,37,38
 371 668 371 668 309 634.5 c 128,-1,39
 247 601 247 601 200.5 547.5 c 128,-1,40
 154 494 154 494 127 427 c 128,-1,41
 100 360 100 360 100 293 c 0,42,43
 100 242 100 242 114 196.5 c 128,-1,44
 128 151 128 151 154.5 116.5 c 128,-1,45
 181 82 181 82 219.5 62 c 128,-1,46
 258 42 258 42 307 42 c 0,27,28
EndSplineSet
EndChar

StartChar: Otilde
Encoding: 213 213 152
Width: 724
GlyphClass: 2
Flags: W
LayerCount: 2
Fore
SplineSet
297 -5 m 0,0,1
 237 -5 237 -5 190.5 19 c 128,-1,2
 144 43 144 43 112.5 83.5 c 128,-1,3
 81 124 81 124 64.5 177 c 128,-1,4
 48 230 48 230 48 287 c 0,5,6
 48 369 48 369 82 446 c 128,-1,7
 116 523 116 523 172 583 c 128,-1,8
 228 643 228 643 301 679 c 128,-1,9
 374 715 374 715 451 715 c 0,10,11
 511 715 511 715 557 690 c 128,-1,12
 603 665 603 665 634.5 624 c 128,-1,13
 666 583 666 583 682 530 c 128,-1,14
 698 477 698 477 698 421 c 0,15,16
 698 340 698 340 664 263 c 128,-1,17
 630 186 630 186 574 126.5 c 128,-1,18
 518 67 518 67 446 31 c 128,-1,19
 374 -5 374 -5 297 -5 c 0,0,1
307 42 m 0,20,21
 376 42 376 42 438 75.5 c 128,-1,22
 500 109 500 109 546 162.5 c 128,-1,23
 592 216 592 216 619 283 c 128,-1,24
 646 350 646 350 646 416 c 0,25,26
 646 467 646 467 632 512.5 c 128,-1,27
 618 558 618 558 591.5 592.5 c 128,-1,28
 565 627 565 627 526.5 647.5 c 128,-1,29
 488 668 488 668 440 668 c 0,30,31
 371 668 371 668 309 634.5 c 128,-1,32
 247 601 247 601 200.5 547.5 c 128,-1,33
 154 494 154 494 127 427 c 128,-1,34
 100 360 100 360 100 293 c 0,35,36
 100 242 100 242 114 196.5 c 128,-1,37
 128 151 128 151 154.5 116.5 c 128,-1,38
 181 82 181 82 219.5 62 c 128,-1,39
 258 42 258 42 307 42 c 0,20,21
534 834 m 0,40,41
 513 834 513 834 498 840 c 128,-1,42
 483 846 483 846 471 853.5 c 128,-1,43
 459 861 459 861 448 867.5 c 128,-1,44
 437 874 437 874 422 874 c 0,45,46
 406 874 406 874 395 867 c 128,-1,47
 384 860 384 860 377.5 851.5 c 128,-1,48
 371 843 371 843 367.5 835.5 c 128,-1,49
 364 828 364 828 364 826 c 2,50,-1
 330 826 l 1,51,52
 331 830 331 830 337 843.5 c 128,-1,53
 343 857 343 857 355 871.5 c 128,-1,54
 367 886 367 886 385 897.5 c 128,-1,55
 403 909 403 909 429 909 c 0,56,57
 448 909 448 909 461.5 902.5 c 128,-1,58
 475 896 475 896 487 888.5 c 128,-1,59
 499 881 499 881 511 875 c 128,-1,60
 523 869 523 869 541 869 c 0,61,62
 560 869 560 869 572 876 c 128,-1,63
 584 883 584 883 591.5 891.5 c 128,-1,64
 599 900 599 900 602.5 907.5 c 128,-1,65
 606 915 606 915 606 917 c 2,66,-1
 639 917 l 1,67,68
 638 912 638 912 632 898.5 c 128,-1,69
 626 885 626 885 613.5 871 c 128,-1,70
 601 857 601 857 581.5 845.5 c 128,-1,71
 562 834 562 834 534 834 c 0,40,41
EndSplineSet
EndChar

StartChar: Odieresis
Encoding: 214 214 153
Width: 724
GlyphClass: 2
Flags: W
LayerCount: 2
Fore
SplineSet
388 828 m 1,0,-1
 406 916 l 1,1,-1
 450 916 l 1,2,-1
 431 828 l 1,3,-1
 388 828 l 1,0,-1
519 828 m 1,4,-1
 538 916 l 1,5,-1
 581 916 l 1,6,-1
 563 828 l 1,7,-1
 519 828 l 1,4,-1
297 -5 m 0,8,9
 237 -5 237 -5 190.5 19 c 128,-1,10
 144 43 144 43 112.5 83.5 c 128,-1,11
 81 124 81 124 64.5 177 c 128,-1,12
 48 230 48 230 48 287 c 0,13,14
 48 369 48 369 82 446 c 128,-1,15
 116 523 116 523 172 583 c 128,-1,16
 228 643 228 643 301 679 c 128,-1,17
 374 715 374 715 451 715 c 0,18,19
 511 715 511 715 557 690 c 128,-1,20
 603 665 603 665 634.5 624 c 128,-1,21
 666 583 666 583 682 530 c 128,-1,22
 698 477 698 477 698 421 c 0,23,24
 698 340 698 340 664 263 c 128,-1,25
 630 186 630 186 574 126.5 c 128,-1,26
 518 67 518 67 446 31 c 128,-1,27
 374 -5 374 -5 297 -5 c 0,8,9
307 42 m 0,28,29
 376 42 376 42 438 75.5 c 128,-1,30
 500 109 500 109 546 162.5 c 128,-1,31
 592 216 592 216 619 283 c 128,-1,32
 646 350 646 350 646 416 c 0,33,34
 646 467 646 467 632 512.5 c 128,-1,35
 618 558 618 558 591.5 592.5 c 128,-1,36
 565 627 565 627 526.5 647.5 c 128,-1,37
 488 668 488 668 440 668 c 0,38,39
 371 668 371 668 309 634.5 c 128,-1,40
 247 601 247 601 200.5 547.5 c 128,-1,41
 154 494 154 494 127 427 c 128,-1,42
 100 360 100 360 100 293 c 0,43,44
 100 242 100 242 114 196.5 c 128,-1,45
 128 151 128 151 154.5 116.5 c 128,-1,46
 181 82 181 82 219.5 62 c 128,-1,47
 258 42 258 42 307 42 c 0,28,29
EndSplineSet
EndChar

StartChar: multiply
Encoding: 215 215 154
Width: 465
GlyphClass: 2
Flags: W
LayerCount: 2
Fore
SplineSet
384 145 m 1,0,-1
 351 113 l 1,1,-1
 225 239 l 1,2,-1
 98 113 l 1,3,-1
 66 146 l 1,4,-1
 192 271 l 1,5,-1
 66 398 l 1,6,-1
 99 430 l 1,7,-1
 225 304 l 1,8,-1
 351 431 l 1,9,-1
 383 398 l 1,10,-1
 257 271 l 1,11,-1
 384 145 l 1,0,-1
EndSplineSet
EndChar

StartChar: Oslash
Encoding: 216 216 155
Width: 724
GlyphClass: 2
Flags: W
LayerCount: 2
Fore
SplineSet
701 710 m 1,0,-1
 631 627 l 1,1,2
 664 585 664 585 681 531.5 c 128,-1,3
 698 478 698 478 698 421 c 0,4,5
 698 340 698 340 664 263 c 128,-1,6
 630 186 630 186 574 126.5 c 128,-1,7
 518 67 518 67 446 31 c 128,-1,8
 374 -5 374 -5 297 -5 c 0,9,10
 251 -5 251 -5 213.5 9 c 128,-1,11
 176 23 176 23 146 48 c 1,12,-1
 106 0 l 1,13,-1
 49 0 l 1,14,-1
 116 80 l 1,15,16
 82 121 82 121 65 174.5 c 128,-1,17
 48 228 48 228 48 287 c 0,18,19
 48 369 48 369 82 446 c 128,-1,20
 116 523 116 523 172 583 c 128,-1,21
 228 643 228 643 301 679 c 128,-1,22
 374 715 374 715 451 715 c 0,23,24
 497 715 497 715 534.5 700 c 128,-1,25
 572 685 572 685 601 659 c 1,26,-1
 644 710 l 1,27,-1
 701 710 l 1,0,-1
100 293 m 0,28,29
 100 192 100 192 151 121 c 1,30,-1
 567 618 l 1,31,32
 542 641 542 641 510 654.5 c 128,-1,33
 478 668 478 668 440 668 c 0,34,35
 371 668 371 668 309 634.5 c 128,-1,36
 247 601 247 601 200.5 547.5 c 128,-1,37
 154 494 154 494 127 427 c 128,-1,38
 100 360 100 360 100 293 c 0,28,29
307 42 m 0,39,40
 376 42 376 42 438 75.5 c 128,-1,41
 500 109 500 109 546 162.5 c 128,-1,42
 592 216 592 216 619 283 c 128,-1,43
 646 350 646 350 646 416 c 0,44,45
 646 464 646 464 633 507.5 c 128,-1,46
 620 551 620 551 596 585 c 1,47,-1
 180 89 l 1,48,49
 205 66 205 66 237 54 c 128,-1,50
 269 42 269 42 307 42 c 0,39,40
EndSplineSet
EndChar

StartChar: Ugrave
Encoding: 217 217 156
Width: 724
GlyphClass: 2
Flags: W
LayerCount: 2
Fore
SplineSet
298 -5 m 0,0,1
 236 -5 236 -5 194 13.5 c 128,-1,2
 152 32 152 32 126.5 63.5 c 128,-1,3
 101 95 101 95 89.5 137.5 c 128,-1,4
 78 180 78 180 78 229 c 0,5,6
 78 288 78 288 92 353 c 2,7,-1
 168 710 l 1,8,-1
 219 710 l 1,9,-1
 143 353 l 2,10,11
 137 323 137 323 133 294 c 128,-1,12
 129 265 129 265 129 237 c 0,13,14
 129 196 129 196 138 160.5 c 128,-1,15
 147 125 147 125 168 98.5 c 128,-1,16
 189 72 189 72 223 57 c 128,-1,17
 257 42 257 42 307 42 c 0,18,19
 375 42 375 42 425.5 69 c 128,-1,20
 476 96 476 96 511.5 140 c 128,-1,21
 547 184 547 184 569.5 240 c 128,-1,22
 592 296 592 296 604 353 c 2,23,-1
 679 710 l 1,24,-1
 730 710 l 1,25,-1
 655 353 l 2,26,27
 640 281 640 281 611.5 216.5 c 128,-1,28
 583 152 583 152 539 102.5 c 128,-1,29
 495 53 495 53 435.5 24 c 128,-1,30
 376 -5 376 -5 298 -5 c 0,0,1
416 918 m 1,31,-1
 471 918 l 1,32,-1
 512 833 l 1,33,-1
 475 817 l 1,34,-1
 416 918 l 1,31,-1
EndSplineSet
EndChar

StartChar: Uacute
Encoding: 218 218 157
Width: 724
GlyphClass: 2
Flags: W
LayerCount: 2
Fore
SplineSet
453 816 m 1,0,-1
 422 832 l 1,1,-1
 498 917 l 1,2,-1
 555 917 l 1,3,-1
 453 816 l 1,0,-1
298 -5 m 0,4,5
 236 -5 236 -5 194 13.5 c 128,-1,6
 152 32 152 32 126.5 63.5 c 128,-1,7
 101 95 101 95 89.5 137.5 c 128,-1,8
 78 180 78 180 78 229 c 0,9,10
 78 288 78 288 92 353 c 2,11,-1
 168 710 l 1,12,-1
 219 710 l 1,13,-1
 143 353 l 2,14,15
 137 323 137 323 133 294 c 128,-1,16
 129 265 129 265 129 237 c 0,17,18
 129 196 129 196 138 160.5 c 128,-1,19
 147 125 147 125 168 98.5 c 128,-1,20
 189 72 189 72 223 57 c 128,-1,21
 257 42 257 42 307 42 c 0,22,23
 375 42 375 42 425.5 69 c 128,-1,24
 476 96 476 96 511.5 140 c 128,-1,25
 547 184 547 184 569.5 240 c 128,-1,26
 592 296 592 296 604 353 c 2,27,-1
 679 710 l 1,28,-1
 730 710 l 1,29,-1
 655 353 l 2,30,31
 640 281 640 281 611.5 216.5 c 128,-1,32
 583 152 583 152 539 102.5 c 128,-1,33
 495 53 495 53 435.5 24 c 128,-1,34
 376 -5 376 -5 298 -5 c 0,4,5
EndSplineSet
EndChar

StartChar: Ucircumflex
Encoding: 219 219 158
Width: 724
GlyphClass: 2
Flags: W
LayerCount: 2
Fore
SplineSet
364 836 m 1,0,-1
 473 917 l 1,1,-1
 510 917 l 1,2,-1
 585 836 l 1,3,-1
 552 819 l 1,4,-1
 484 882 l 1,5,-1
 390 819 l 1,6,-1
 364 836 l 1,0,-1
298 -5 m 0,7,8
 236 -5 236 -5 194 13.5 c 128,-1,9
 152 32 152 32 126.5 63.5 c 128,-1,10
 101 95 101 95 89.5 137.5 c 128,-1,11
 78 180 78 180 78 229 c 0,12,13
 78 288 78 288 92 353 c 2,14,-1
 168 710 l 1,15,-1
 219 710 l 1,16,-1
 143 353 l 2,17,18
 137 323 137 323 133 294 c 128,-1,19
 129 265 129 265 129 237 c 0,20,21
 129 196 129 196 138 160.5 c 128,-1,22
 147 125 147 125 168 98.5 c 128,-1,23
 189 72 189 72 223 57 c 128,-1,24
 257 42 257 42 307 42 c 0,25,26
 375 42 375 42 425.5 69 c 128,-1,27
 476 96 476 96 511.5 140 c 128,-1,28
 547 184 547 184 569.5 240 c 128,-1,29
 592 296 592 296 604 353 c 2,30,-1
 679 710 l 1,31,-1
 730 710 l 1,32,-1
 655 353 l 2,33,34
 640 281 640 281 611.5 216.5 c 128,-1,35
 583 152 583 152 539 102.5 c 128,-1,36
 495 53 495 53 435.5 24 c 128,-1,37
 376 -5 376 -5 298 -5 c 0,7,8
EndSplineSet
EndChar

StartChar: Udieresis
Encoding: 220 220 159
Width: 724
GlyphClass: 2
Flags: W
LayerCount: 2
Fore
SplineSet
383 828 m 1,0,-1
 401 916 l 1,1,-1
 445 916 l 1,2,-1
 426 828 l 1,3,-1
 383 828 l 1,0,-1
514 828 m 1,4,-1
 533 916 l 1,5,-1
 576 916 l 1,6,-1
 558 828 l 1,7,-1
 514 828 l 1,4,-1
298 -5 m 0,8,9
 236 -5 236 -5 194 13.5 c 128,-1,10
 152 32 152 32 126.5 63.5 c 128,-1,11
 101 95 101 95 89.5 137.5 c 128,-1,12
 78 180 78 180 78 229 c 0,13,14
 78 288 78 288 92 353 c 2,15,-1
 168 710 l 1,16,-1
 219 710 l 1,17,-1
 143 353 l 2,18,19
 137 323 137 323 133 294 c 128,-1,20
 129 265 129 265 129 237 c 0,21,22
 129 196 129 196 138 160.5 c 128,-1,23
 147 125 147 125 168 98.5 c 128,-1,24
 189 72 189 72 223 57 c 128,-1,25
 257 42 257 42 307 42 c 0,26,27
 375 42 375 42 425.5 69 c 128,-1,28
 476 96 476 96 511.5 140 c 128,-1,29
 547 184 547 184 569.5 240 c 128,-1,30
 592 296 592 296 604 353 c 2,31,-1
 679 710 l 1,32,-1
 730 710 l 1,33,-1
 655 353 l 2,34,35
 640 281 640 281 611.5 216.5 c 128,-1,36
 583 152 583 152 539 102.5 c 128,-1,37
 495 53 495 53 435.5 24 c 128,-1,38
 376 -5 376 -5 298 -5 c 0,8,9
EndSplineSet
EndChar

StartChar: Yacute
Encoding: 221 221 160
Width: 602
GlyphClass: 2
Flags: W
LayerCount: 2
Fore
SplineSet
264 270 m 1,0,-1
 93 710 l 1,1,-1
 150 710 l 1,2,-1
 300 317 l 1,3,-1
 618 710 l 1,4,-1
 674 710 l 1,5,-1
 315 268 l 1,6,-1
 257 0 l 1,7,-1
 207 0 l 1,8,-1
 264 270 l 1,0,-1
387 816 m 1,9,-1
 356 832 l 1,10,-1
 432 917 l 1,11,-1
 489 917 l 1,12,-1
 387 816 l 1,9,-1
EndSplineSet
EndChar

StartChar: Thorn
Encoding: 222 222 161
Width: 577
GlyphClass: 2
Flags: W
LayerCount: 2
Fore
SplineSet
178 710 m 1,0,-1
 229 710 l 1,1,-1
 198 566 l 1,2,-1
 407 566 l 2,3,4
 444 566 444 566 472.5 550.5 c 128,-1,5
 501 535 501 535 521 509.5 c 128,-1,6
 541 484 541 484 551.5 451.5 c 128,-1,7
 562 419 562 419 562 384 c 0,8,9
 562 337 562 337 542.5 290.5 c 128,-1,10
 523 244 523 244 490 207 c 128,-1,11
 457 170 457 170 412.5 147 c 128,-1,12
 368 124 368 124 319 124 c 2,13,-1
 104 124 l 1,14,-1
 78 0 l 1,15,-1
 27 0 l 1,16,-1
 178 710 l 1,0,-1
327 171 m 2,17,18
 366 171 366 171 399.5 189.5 c 128,-1,19
 433 208 433 208 457.5 238 c 128,-1,20
 482 268 482 268 496.5 305 c 128,-1,21
 511 342 511 342 511 378 c 0,22,23
 511 406 511 406 502.5 432 c 128,-1,24
 494 458 494 458 479 477 c 128,-1,25
 464 496 464 496 442.5 507.5 c 128,-1,26
 421 519 421 519 395 519 c 2,27,-1
 189 519 l 1,28,-1
 115 171 l 1,29,-1
 327 171 l 2,17,18
EndSplineSet
EndChar

StartChar: germandbls
Encoding: 223 223 162
Width: 527
GlyphClass: 2
Flags: W
LayerCount: 2
Fore
SplineSet
170 40 m 1,0,1
 227 41 227 41 272.5 55 c 128,-1,2
 318 69 318 69 350.5 94.5 c 128,-1,3
 383 120 383 120 400.5 157 c 128,-1,4
 418 194 418 194 418 242 c 0,5,6
 418 304 418 304 381.5 340.5 c 128,-1,7
 345 377 345 377 280 377 c 2,8,-1
 262 377 l 1,9,-1
 272 424 l 1,10,-1
 289 424 l 2,11,12
 320 424 320 424 348 435.5 c 128,-1,13
 376 447 376 447 397 466.5 c 128,-1,14
 418 486 418 486 430.5 512.5 c 128,-1,15
 443 539 443 539 443 569 c 0,16,17
 443 615 443 615 413.5 642 c 128,-1,18
 384 669 384 669 337 669 c 0,19,20
 305 669 305 669 277 656.5 c 128,-1,21
 249 644 249 644 227.5 622.5 c 128,-1,22
 206 601 206 601 190.5 571 c 128,-1,23
 175 541 175 541 168 506 c 2,24,-1
 60 0 l 1,25,-1
 12 0 l 1,26,-1
 121 513 l 2,27,28
 130 558 130 558 151.5 595 c 128,-1,29
 173 632 173 632 203.5 658.5 c 128,-1,30
 234 685 234 685 271 699.5 c 128,-1,31
 308 714 308 714 349 714 c 0,32,33
 415 714 415 714 454.5 677 c 128,-1,34
 494 640 494 640 494 582 c 0,35,36
 494 551 494 551 482 521.5 c 128,-1,37
 470 492 470 492 450 467.5 c 128,-1,38
 430 443 430 443 404.5 426 c 128,-1,39
 379 409 379 409 353 403 c 1,40,41
 411 389 411 389 440.5 347.5 c 128,-1,42
 470 306 470 306 470 247 c 256,43,44
 470 188 470 188 448 142.5 c 128,-1,45
 426 97 426 97 385.5 64.5 c 128,-1,46
 345 32 345 32 287.5 14.5 c 128,-1,47
 230 -3 230 -3 160 -6 c 1,48,-1
 170 40 l 1,0,1
EndSplineSet
EndChar

StartChar: agrave
Encoding: 224 224 163
Width: 591
GlyphClass: 2
Flags: W
LayerCount: 2
Fore
SplineSet
212 -10 m 0,0,1
 169 -10 169 -10 134.5 8 c 128,-1,2
 100 26 100 26 76 56 c 128,-1,3
 52 86 52 86 39.5 125.5 c 128,-1,4
 27 165 27 165 27 209 c 0,5,6
 27 270 27 270 51 327.5 c 128,-1,7
 75 385 75 385 115.5 430 c 128,-1,8
 156 475 156 475 208 502 c 128,-1,9
 260 529 260 529 317 529 c 0,10,11
 350 529 350 529 376.5 519 c 128,-1,12
 403 509 403 509 424 492.5 c 128,-1,13
 445 476 445 476 460 454 c 128,-1,14
 475 432 475 432 484 407 c 1,15,-1
 508 520 l 1,16,-1
 559 520 l 1,17,-1
 463 72 l 2,18,19
 461 64 461 64 461 60 c 0,20,21
 461 45 461 45 478 45 c 1,22,-1
 468 0 l 1,23,24
 463 -1 463 -1 459.5 -1.5 c 128,-1,25
 456 -2 456 -2 453 -2 c 0,26,27
 433 -2 433 -2 422.5 8 c 128,-1,28
 412 18 412 18 412 34 c 0,29,30
 412 37 412 37 412.5 41.5 c 128,-1,31
 413 46 413 46 414.5 53.5 c 128,-1,32
 416 61 416 61 418 73 c 128,-1,33
 420 85 420 85 424 104 c 1,34,35
 383 52 383 52 326 21 c 128,-1,36
 269 -10 269 -10 212 -10 c 0,0,1
230 35 m 0,37,38
 257 35 257 35 289 46.5 c 128,-1,39
 321 58 321 58 350.5 77 c 128,-1,40
 380 96 380 96 403 121.5 c 128,-1,41
 426 147 426 147 435 175 c 2,42,-1
 471 346 l 1,43,44
 467 374 467 374 453.5 399 c 128,-1,45
 440 424 440 424 419.5 443 c 128,-1,46
 399 462 399 462 373 473 c 128,-1,47
 347 484 347 484 317 484 c 0,48,49
 269 484 269 484 226 460 c 128,-1,50
 183 436 183 436 150.5 397.5 c 128,-1,51
 118 359 118 359 98.5 311 c 128,-1,52
 79 263 79 263 79 215 c 0,53,54
 79 179 79 179 90 146 c 128,-1,55
 101 113 101 113 121 88.5 c 128,-1,56
 141 64 141 64 169 49.5 c 128,-1,57
 197 35 197 35 230 35 c 0,37,38
299 730 m 1,58,-1
 354 730 l 1,59,-1
 395 645 l 1,60,-1
 358 629 l 1,61,-1
 299 730 l 1,58,-1
EndSplineSet
EndChar

StartChar: aacute
Encoding: 225 225 164
Width: 591
GlyphClass: 2
Flags: W
LayerCount: 2
Fore
SplineSet
212 -10 m 0,0,1
 169 -10 169 -10 134.5 8 c 128,-1,2
 100 26 100 26 76 56 c 128,-1,3
 52 86 52 86 39.5 125.5 c 128,-1,4
 27 165 27 165 27 209 c 0,5,6
 27 270 27 270 51 327.5 c 128,-1,7
 75 385 75 385 115.5 430 c 128,-1,8
 156 475 156 475 208 502 c 128,-1,9
 260 529 260 529 317 529 c 0,10,11
 350 529 350 529 376.5 519 c 128,-1,12
 403 509 403 509 424 492.5 c 128,-1,13
 445 476 445 476 460 454 c 128,-1,14
 475 432 475 432 484 407 c 1,15,-1
 508 520 l 1,16,-1
 559 520 l 1,17,-1
 463 72 l 2,18,19
 461 64 461 64 461 60 c 0,20,21
 461 45 461 45 478 45 c 1,22,-1
 468 0 l 1,23,24
 463 -1 463 -1 459.5 -1.5 c 128,-1,25
 456 -2 456 -2 453 -2 c 0,26,27
 433 -2 433 -2 422.5 8 c 128,-1,28
 412 18 412 18 412 34 c 0,29,30
 412 37 412 37 412.5 41.5 c 128,-1,31
 413 46 413 46 414.5 53.5 c 128,-1,32
 416 61 416 61 418 73 c 128,-1,33
 420 85 420 85 424 104 c 1,34,35
 383 52 383 52 326 21 c 128,-1,36
 269 -10 269 -10 212 -10 c 0,0,1
230 35 m 0,37,38
 257 35 257 35 289 46.5 c 128,-1,39
 321 58 321 58 350.5 77 c 128,-1,40
 380 96 380 96 403 121.5 c 128,-1,41
 426 147 426 147 435 175 c 2,42,-1
 471 346 l 1,43,44
 467 374 467 374 453.5 399 c 128,-1,45
 440 424 440 424 419.5 443 c 128,-1,46
 399 462 399 462 373 473 c 128,-1,47
 347 484 347 484 317 484 c 0,48,49
 269 484 269 484 226 460 c 128,-1,50
 183 436 183 436 150.5 397.5 c 128,-1,51
 118 359 118 359 98.5 311 c 128,-1,52
 79 263 79 263 79 215 c 0,53,54
 79 179 79 179 90 146 c 128,-1,55
 101 113 101 113 121 88.5 c 128,-1,56
 141 64 141 64 169 49.5 c 128,-1,57
 197 35 197 35 230 35 c 0,37,38
346 629 m 1,58,-1
 315 645 l 1,59,-1
 391 730 l 1,60,-1
 448 730 l 1,61,-1
 346 629 l 1,58,-1
EndSplineSet
EndChar

StartChar: acircumflex
Encoding: 226 226 165
Width: 591
GlyphClass: 2
Flags: W
LayerCount: 2
Fore
SplineSet
212 -10 m 0,0,1
 169 -10 169 -10 134.5 8 c 128,-1,2
 100 26 100 26 76 56 c 128,-1,3
 52 86 52 86 39.5 125.5 c 128,-1,4
 27 165 27 165 27 209 c 0,5,6
 27 270 27 270 51 327.5 c 128,-1,7
 75 385 75 385 115.5 430 c 128,-1,8
 156 475 156 475 208 502 c 128,-1,9
 260 529 260 529 317 529 c 0,10,11
 350 529 350 529 376.5 519 c 128,-1,12
 403 509 403 509 424 492.5 c 128,-1,13
 445 476 445 476 460 454 c 128,-1,14
 475 432 475 432 484 407 c 1,15,-1
 508 520 l 1,16,-1
 559 520 l 1,17,-1
 463 72 l 2,18,19
 461 64 461 64 461 60 c 0,20,21
 461 45 461 45 478 45 c 1,22,-1
 468 0 l 1,23,24
 463 -1 463 -1 459.5 -1.5 c 128,-1,25
 456 -2 456 -2 453 -2 c 0,26,27
 433 -2 433 -2 422.5 8 c 128,-1,28
 412 18 412 18 412 34 c 0,29,30
 412 37 412 37 412.5 41.5 c 128,-1,31
 413 46 413 46 414.5 53.5 c 128,-1,32
 416 61 416 61 418 73 c 128,-1,33
 420 85 420 85 424 104 c 1,34,35
 383 52 383 52 326 21 c 128,-1,36
 269 -10 269 -10 212 -10 c 0,0,1
230 35 m 0,37,38
 257 35 257 35 289 46.5 c 128,-1,39
 321 58 321 58 350.5 77 c 128,-1,40
 380 96 380 96 403 121.5 c 128,-1,41
 426 147 426 147 435 175 c 2,42,-1
 471 346 l 1,43,44
 467 374 467 374 453.5 399 c 128,-1,45
 440 424 440 424 419.5 443 c 128,-1,46
 399 462 399 462 373 473 c 128,-1,47
 347 484 347 484 317 484 c 0,48,49
 269 484 269 484 226 460 c 128,-1,50
 183 436 183 436 150.5 397.5 c 128,-1,51
 118 359 118 359 98.5 311 c 128,-1,52
 79 263 79 263 79 215 c 0,53,54
 79 179 79 179 90 146 c 128,-1,55
 101 113 101 113 121 88.5 c 128,-1,56
 141 64 141 64 169 49.5 c 128,-1,57
 197 35 197 35 230 35 c 0,37,38
249 649 m 1,58,-1
 358 730 l 1,59,-1
 395 730 l 1,60,-1
 470 649 l 1,61,-1
 437 632 l 1,62,-1
 369 695 l 1,63,-1
 275 632 l 1,64,-1
 249 649 l 1,58,-1
EndSplineSet
EndChar

StartChar: atilde
Encoding: 227 227 166
Width: 591
GlyphClass: 2
Flags: W
LayerCount: 2
Fore
SplineSet
212 -10 m 0,0,1
 169 -10 169 -10 134.5 8 c 128,-1,2
 100 26 100 26 76 56 c 128,-1,3
 52 86 52 86 39.5 125.5 c 128,-1,4
 27 165 27 165 27 209 c 0,5,6
 27 270 27 270 51 327.5 c 128,-1,7
 75 385 75 385 115.5 430 c 128,-1,8
 156 475 156 475 208 502 c 128,-1,9
 260 529 260 529 317 529 c 0,10,11
 350 529 350 529 376.5 519 c 128,-1,12
 403 509 403 509 424 492.5 c 128,-1,13
 445 476 445 476 460 454 c 128,-1,14
 475 432 475 432 484 407 c 1,15,-1
 508 520 l 1,16,-1
 559 520 l 1,17,-1
 463 72 l 2,18,19
 461 64 461 64 461 60 c 0,20,21
 461 45 461 45 478 45 c 1,22,-1
 468 0 l 1,23,24
 463 -1 463 -1 459.5 -1.5 c 128,-1,25
 456 -2 456 -2 453 -2 c 0,26,27
 433 -2 433 -2 422.5 8 c 128,-1,28
 412 18 412 18 412 34 c 0,29,30
 412 37 412 37 412.5 41.5 c 128,-1,31
 413 46 413 46 414.5 53.5 c 128,-1,32
 416 61 416 61 418 73 c 128,-1,33
 420 85 420 85 424 104 c 1,34,35
 383 52 383 52 326 21 c 128,-1,36
 269 -10 269 -10 212 -10 c 0,0,1
230 35 m 0,37,38
 257 35 257 35 289 46.5 c 128,-1,39
 321 58 321 58 350.5 77 c 128,-1,40
 380 96 380 96 403 121.5 c 128,-1,41
 426 147 426 147 435 175 c 2,42,-1
 471 346 l 1,43,44
 467 374 467 374 453.5 399 c 128,-1,45
 440 424 440 424 419.5 443 c 128,-1,46
 399 462 399 462 373 473 c 128,-1,47
 347 484 347 484 317 484 c 0,48,49
 269 484 269 484 226 460 c 128,-1,50
 183 436 183 436 150.5 397.5 c 128,-1,51
 118 359 118 359 98.5 311 c 128,-1,52
 79 263 79 263 79 215 c 0,53,54
 79 179 79 179 90 146 c 128,-1,55
 101 113 101 113 121 88.5 c 128,-1,56
 141 64 141 64 169 49.5 c 128,-1,57
 197 35 197 35 230 35 c 0,37,38
410 647 m 0,58,59
 389 647 389 647 374 653 c 128,-1,60
 359 659 359 659 347 666.5 c 128,-1,61
 335 674 335 674 324 680.5 c 128,-1,62
 313 687 313 687 298 687 c 0,63,64
 282 687 282 687 271 680 c 128,-1,65
 260 673 260 673 253.5 664.5 c 128,-1,66
 247 656 247 656 243.5 648.5 c 128,-1,67
 240 641 240 641 240 639 c 2,68,-1
 206 639 l 1,69,70
 207 643 207 643 213 656.5 c 128,-1,71
 219 670 219 670 231 684.5 c 128,-1,72
 243 699 243 699 261 710.5 c 128,-1,73
 279 722 279 722 305 722 c 0,74,75
 324 722 324 722 337.5 715.5 c 128,-1,76
 351 709 351 709 363 701.5 c 128,-1,77
 375 694 375 694 387 688 c 128,-1,78
 399 682 399 682 417 682 c 0,79,80
 436 682 436 682 448 689 c 128,-1,81
 460 696 460 696 467.5 704.5 c 128,-1,82
 475 713 475 713 478.5 720.5 c 128,-1,83
 482 728 482 728 482 730 c 2,84,-1
 515 730 l 1,85,86
 514 725 514 725 508 711.5 c 128,-1,87
 502 698 502 698 489.5 684 c 128,-1,88
 477 670 477 670 457.5 658.5 c 128,-1,89
 438 647 438 647 410 647 c 0,58,59
EndSplineSet
EndChar

StartChar: adieresis
Encoding: 228 228 167
Width: 591
GlyphClass: 2
Flags: W
LayerCount: 2
Fore
SplineSet
212 -10 m 0,0,1
 169 -10 169 -10 134.5 8 c 128,-1,2
 100 26 100 26 76 56 c 128,-1,3
 52 86 52 86 39.5 125.5 c 128,-1,4
 27 165 27 165 27 209 c 0,5,6
 27 270 27 270 51 327.5 c 128,-1,7
 75 385 75 385 115.5 430 c 128,-1,8
 156 475 156 475 208 502 c 128,-1,9
 260 529 260 529 317 529 c 0,10,11
 350 529 350 529 376.5 519 c 128,-1,12
 403 509 403 509 424 492.5 c 128,-1,13
 445 476 445 476 460 454 c 128,-1,14
 475 432 475 432 484 407 c 1,15,-1
 508 520 l 1,16,-1
 559 520 l 1,17,-1
 463 72 l 2,18,19
 461 64 461 64 461 60 c 0,20,21
 461 45 461 45 478 45 c 1,22,-1
 468 0 l 1,23,24
 463 -1 463 -1 459.5 -1.5 c 128,-1,25
 456 -2 456 -2 453 -2 c 0,26,27
 433 -2 433 -2 422.5 8 c 128,-1,28
 412 18 412 18 412 34 c 0,29,30
 412 37 412 37 412.5 41.5 c 128,-1,31
 413 46 413 46 414.5 53.5 c 128,-1,32
 416 61 416 61 418 73 c 128,-1,33
 420 85 420 85 424 104 c 1,34,35
 383 52 383 52 326 21 c 128,-1,36
 269 -10 269 -10 212 -10 c 0,0,1
230 35 m 0,37,38
 257 35 257 35 289 46.5 c 128,-1,39
 321 58 321 58 350.5 77 c 128,-1,40
 380 96 380 96 403 121.5 c 128,-1,41
 426 147 426 147 435 175 c 2,42,-1
 471 346 l 1,43,44
 467 374 467 374 453.5 399 c 128,-1,45
 440 424 440 424 419.5 443 c 128,-1,46
 399 462 399 462 373 473 c 128,-1,47
 347 484 347 484 317 484 c 0,48,49
 269 484 269 484 226 460 c 128,-1,50
 183 436 183 436 150.5 397.5 c 128,-1,51
 118 359 118 359 98.5 311 c 128,-1,52
 79 263 79 263 79 215 c 0,53,54
 79 179 79 179 90 146 c 128,-1,55
 101 113 101 113 121 88.5 c 128,-1,56
 141 64 141 64 169 49.5 c 128,-1,57
 197 35 197 35 230 35 c 0,37,38
268 640 m 1,58,-1
 286 728 l 1,59,-1
 330 728 l 1,60,-1
 311 640 l 1,61,-1
 268 640 l 1,58,-1
399 640 m 1,62,-1
 418 728 l 1,63,-1
 461 728 l 1,64,-1
 443 640 l 1,65,-1
 399 640 l 1,62,-1
EndSplineSet
EndChar

StartChar: aring
Encoding: 229 229 168
Width: 591
GlyphClass: 2
Flags: W
LayerCount: 2
Fore
SplineSet
212 -10 m 0,0,1
 169 -10 169 -10 134.5 8 c 128,-1,2
 100 26 100 26 76 56 c 128,-1,3
 52 86 52 86 39.5 125.5 c 128,-1,4
 27 165 27 165 27 209 c 0,5,6
 27 270 27 270 51 327.5 c 128,-1,7
 75 385 75 385 115.5 430 c 128,-1,8
 156 475 156 475 208 502 c 128,-1,9
 260 529 260 529 317 529 c 0,10,11
 350 529 350 529 376.5 519 c 128,-1,12
 403 509 403 509 424 492.5 c 128,-1,13
 445 476 445 476 460 454 c 128,-1,14
 475 432 475 432 484 407 c 1,15,-1
 508 520 l 1,16,-1
 559 520 l 1,17,-1
 463 72 l 2,18,19
 461 64 461 64 461 60 c 0,20,21
 461 45 461 45 478 45 c 1,22,-1
 468 0 l 1,23,24
 463 -1 463 -1 459.5 -1.5 c 128,-1,25
 456 -2 456 -2 453 -2 c 0,26,27
 433 -2 433 -2 422.5 8 c 128,-1,28
 412 18 412 18 412 34 c 0,29,30
 412 37 412 37 412.5 41.5 c 128,-1,31
 413 46 413 46 414.5 53.5 c 128,-1,32
 416 61 416 61 418 73 c 128,-1,33
 420 85 420 85 424 104 c 1,34,35
 383 52 383 52 326 21 c 128,-1,36
 269 -10 269 -10 212 -10 c 0,0,1
230 35 m 0,37,38
 257 35 257 35 289 46.5 c 128,-1,39
 321 58 321 58 350.5 77 c 128,-1,40
 380 96 380 96 403 121.5 c 128,-1,41
 426 147 426 147 435 175 c 2,42,-1
 471 346 l 1,43,44
 467 374 467 374 453.5 399 c 128,-1,45
 440 424 440 424 419.5 443 c 128,-1,46
 399 462 399 462 373 473 c 128,-1,47
 347 484 347 484 317 484 c 0,48,49
 269 484 269 484 226 460 c 128,-1,50
 183 436 183 436 150.5 397.5 c 128,-1,51
 118 359 118 359 98.5 311 c 128,-1,52
 79 263 79 263 79 215 c 0,53,54
 79 179 79 179 90 146 c 128,-1,55
 101 113 101 113 121 88.5 c 128,-1,56
 141 64 141 64 169 49.5 c 128,-1,57
 197 35 197 35 230 35 c 0,37,38
293 656 m 0,58,59
 293 688 293 688 317 709 c 128,-1,60
 341 730 341 730 373 730 c 0,61,62
 397 730 397 730 411 716 c 128,-1,63
 425 702 425 702 425 680 c 0,64,65
 425 648 425 648 401.5 626.5 c 128,-1,66
 378 605 378 605 346 605 c 0,67,68
 321 605 321 605 307 619 c 128,-1,69
 293 633 293 633 293 656 c 0,58,59
367 707 m 0,70,71
 349 707 349 707 334.5 694 c 128,-1,72
 320 681 320 681 320 660 c 0,73,74
 320 646 320 646 328.5 637 c 128,-1,75
 337 628 337 628 351 628 c 0,76,77
 367 628 367 628 383 641.5 c 128,-1,78
 399 655 399 655 399 675 c 0,79,80
 399 690 399 690 390 698.5 c 128,-1,81
 381 707 381 707 367 707 c 0,70,71
EndSplineSet
EndChar

StartChar: ae
Encoding: 230 230 169
Width: 885
GlyphClass: 2
Flags: W
LayerCount: 2
Fore
SplineSet
135 -10 m 0,0,1
 102 -10 102 -10 76 0.5 c 128,-1,2
 50 11 50 11 33 29 c 128,-1,3
 16 47 16 47 7 71 c 128,-1,4
 -2 95 -2 95 -2 122 c 0,5,6
 -2 162 -2 162 17 196 c 128,-1,7
 36 230 36 230 68.5 254 c 128,-1,8
 101 278 101 278 145.5 291.5 c 128,-1,9
 190 305 190 305 241 305 c 0,10,11
 274 305 274 305 306.5 299.5 c 128,-1,12
 339 294 339 294 366 285 c 1,13,14
 374 311 374 311 384 333 c 128,-1,15
 394 355 394 355 402 378 c 1,16,17
 402 428 402 428 372 458.5 c 128,-1,18
 342 489 342 489 286 489 c 0,19,20
 248 489 248 489 204.5 473 c 128,-1,21
 161 457 161 457 113 427 c 1,22,-1
 101 461 l 1,23,24
 157 495 157 495 205.5 512 c 128,-1,25
 254 529 254 529 299 529 c 0,26,27
 358 529 358 529 396 500.5 c 128,-1,28
 434 472 434 472 443 418 c 1,29,30
 485 468 485 468 541.5 498.5 c 128,-1,31
 598 529 598 529 660 529 c 0,32,33
 704 529 704 529 740 513 c 128,-1,34
 776 497 776 497 801.5 469 c 128,-1,35
 827 441 827 441 841 402.5 c 128,-1,36
 855 364 855 364 855 320 c 0,37,38
 855 294 855 294 850.5 273 c 128,-1,39
 846 252 846 252 841 240 c 1,40,-1
 405 240 l 1,41,42
 404 231 404 231 403.5 222 c 128,-1,43
 403 213 403 213 403 204 c 0,44,45
 403 166 403 166 414.5 134 c 128,-1,46
 426 102 426 102 446.5 79 c 128,-1,47
 467 56 467 56 495.5 43 c 128,-1,48
 524 30 524 30 559 30 c 0,49,50
 585 30 585 30 611 37.5 c 128,-1,51
 637 45 637 45 661 58 c 128,-1,52
 685 71 685 71 705 89.5 c 128,-1,53
 725 108 725 108 739 130 c 1,54,-1
 781 118 l 1,55,56
 764 90 764 90 738.5 66.5 c 128,-1,57
 713 43 713 43 682.5 26 c 128,-1,58
 652 9 652 9 617.5 -0.5 c 128,-1,59
 583 -10 583 -10 549 -10 c 0,60,61
 484 -10 484 -10 438.5 22 c 128,-1,62
 393 54 393 54 371 107 c 1,63,64
 349 75 349 75 318.5 53 c 128,-1,65
 288 31 288 31 255.5 17 c 128,-1,66
 223 3 223 3 191.5 -3.5 c 128,-1,67
 160 -10 160 -10 135 -10 c 0,0,1
154 30 m 0,68,69
 182 30 182 30 214.5 39 c 128,-1,70
 247 48 247 48 276.5 63.5 c 128,-1,71
 306 79 306 79 328.5 100 c 128,-1,72
 351 121 351 121 359 145 c 1,73,74
 353 167 353 167 353 194 c 0,75,76
 353 223 353 223 359 250 c 1,77,78
 332 260 332 260 301 265 c 128,-1,79
 270 270 270 270 241 270 c 0,80,81
 199 270 199 270 163.5 260 c 128,-1,82
 128 250 128 250 102 232 c 128,-1,83
 76 214 76 214 61.5 188.5 c 128,-1,84
 47 163 47 163 47 132 c 0,85,86
 47 112 47 112 53.5 93.5 c 128,-1,87
 60 75 60 75 73 61 c 128,-1,88
 86 47 86 47 106.5 38.5 c 128,-1,89
 127 30 127 30 154 30 c 0,68,69
801 277 m 1,90,91
 803 288 803 288 804 300 c 128,-1,92
 805 312 805 312 805 323 c 0,93,94
 805 357 805 357 795 387 c 128,-1,95
 785 417 785 417 765.5 439.5 c 128,-1,96
 746 462 746 462 717 475 c 128,-1,97
 688 488 688 488 651 488 c 0,98,99
 611 488 611 488 573.5 472 c 128,-1,100
 536 456 536 456 504 428 c 128,-1,101
 472 400 472 400 448 361.5 c 128,-1,102
 424 323 424 323 412 277 c 1,103,-1
 801 277 l 1,90,91
EndSplineSet
EndChar

StartChar: ccedilla
Encoding: 231 231 170
Width: 522
GlyphClass: 2
Flags: W
LayerCount: 2
Fore
SplineSet
120 -125 m 1,0,1
 133 -132 133 -132 154 -138 c 128,-1,2
 175 -144 175 -144 199 -144 c 0,3,4
 264 -144 264 -144 264 -99 c 0,5,6
 264 -83 264 -83 252.5 -77 c 128,-1,7
 241 -71 241 -71 223 -71 c 0,8,9
 203 -71 203 -71 180 -76 c 128,-1,10
 157 -81 157 -81 144 -85 c 1,11,-1
 200 -9 l 1,12,13
 160 -5 160 -5 128 13.5 c 128,-1,14
 96 32 96 32 73.5 61.5 c 128,-1,15
 51 91 51 91 39 129 c 128,-1,16
 27 167 27 167 27 210 c 0,17,18
 27 274 27 274 52 331.5 c 128,-1,19
 77 389 77 389 119.5 433 c 128,-1,20
 162 477 162 477 217.5 503 c 128,-1,21
 273 529 273 529 335 529 c 0,22,23
 403 529 403 529 447.5 497 c 128,-1,24
 492 465 492 465 506 408 c 1,25,-1
 453 392 l 1,26,27
 441 435 441 435 406 459.5 c 128,-1,28
 371 484 371 484 323 484 c 0,29,30
 276 484 276 484 232 462.5 c 128,-1,31
 188 441 188 441 154 404.5 c 128,-1,32
 120 368 120 368 99 319.5 c 128,-1,33
 78 271 78 271 78 217 c 0,34,35
 78 179 78 179 89 145.5 c 128,-1,36
 100 112 100 112 119.5 87.5 c 128,-1,37
 139 63 139 63 167 49 c 128,-1,38
 195 35 195 35 228 35 c 0,39,40
 254 35 254 35 281 43 c 128,-1,41
 308 51 308 51 332 64 c 128,-1,42
 356 77 356 77 374.5 94.5 c 128,-1,43
 393 112 393 112 403 131 c 1,44,-1
 449 117 l 1,45,46
 434 90 434 90 410.5 67.5 c 128,-1,47
 387 45 387 45 358.5 28.5 c 128,-1,48
 330 12 330 12 297.5 1.5 c 128,-1,49
 265 -9 265 -9 232 -10 c 1,50,-1
 198 -53 l 1,51,52
 207 -49 207 -49 217.5 -48 c 128,-1,53
 228 -47 228 -47 236 -47 c 0,54,55
 294 -47 294 -47 294 -93 c 0,56,57
 294 -131 294 -131 267 -151 c 128,-1,58
 240 -171 240 -171 189 -171 c 0,59,60
 163 -171 163 -171 140.5 -165.5 c 128,-1,61
 118 -160 118 -160 101 -152 c 1,62,-1
 120 -125 l 1,0,1
EndSplineSet
EndChar

StartChar: egrave
Encoding: 232 232 171
Width: 529
GlyphClass: 2
Flags: W
LayerCount: 2
Fore
SplineSet
224 -10 m 0,0,1
 177 -10 177 -10 140.5 7.5 c 128,-1,2
 104 25 104 25 78.5 55 c 128,-1,3
 53 85 53 85 40 125 c 128,-1,4
 27 165 27 165 27 210 c 0,5,6
 27 271 27 271 50.5 328.5 c 128,-1,7
 74 386 74 386 116 430.5 c 128,-1,8
 158 475 158 475 214.5 502 c 128,-1,9
 271 529 271 529 337 529 c 0,10,11
 368 529 368 529 397 520 c 128,-1,12
 426 511 426 511 448.5 493.5 c 128,-1,13
 471 476 471 476 484.5 450 c 128,-1,14
 498 424 498 424 498 390 c 0,15,16
 498 240 498 240 226 240 c 0,17,18
 194 240 194 240 158.5 241 c 128,-1,19
 123 242 123 242 80 245 c 1,20,21
 79 237 79 237 78.5 228 c 128,-1,22
 78 219 78 219 78 211 c 0,23,24
 78 174 78 174 87.5 141 c 128,-1,25
 97 108 97 108 116.5 83.5 c 128,-1,26
 136 59 136 59 165.5 44.5 c 128,-1,27
 195 30 195 30 234 30 c 0,28,29
 259 30 259 30 285.5 37.5 c 128,-1,30
 312 45 312 45 336 58.5 c 128,-1,31
 360 72 360 72 380.5 91.5 c 128,-1,32
 401 111 401 111 415 135 c 1,33,-1
 457 122 l 1,34,35
 439 92 439 92 413.5 68 c 128,-1,36
 388 44 388 44 357.5 26.5 c 128,-1,37
 327 9 327 9 293 -0.5 c 128,-1,38
 259 -10 259 -10 224 -10 c 0,0,1
331 488 m 0,39,40
 284 488 284 488 244.5 470.5 c 128,-1,41
 205 453 205 453 174 424.5 c 128,-1,42
 143 396 143 396 121 359 c 128,-1,43
 99 322 99 322 88 283 c 1,44,45
 130 280 130 280 163.5 279 c 128,-1,46
 197 278 197 278 229 278 c 0,47,48
 291 278 291 278 333.5 286.5 c 128,-1,49
 376 295 376 295 402 310 c 128,-1,50
 428 325 428 325 439.5 345.5 c 128,-1,51
 451 366 451 366 451 391 c 256,52,53
 451 416 451 416 440.5 434.5 c 128,-1,54
 430 453 430 453 413.5 465 c 128,-1,55
 397 477 397 477 375 482.5 c 128,-1,56
 353 488 353 488 331 488 c 0,39,40
309 730 m 1,57,-1
 364 730 l 1,58,-1
 405 645 l 1,59,-1
 368 629 l 1,60,-1
 309 730 l 1,57,-1
EndSplineSet
EndChar

StartChar: eacute
Encoding: 233 233 172
Width: 529
GlyphClass: 2
Flags: W
LayerCount: 2
Fore
SplineSet
336 629 m 1,0,-1
 305 645 l 1,1,-1
 381 730 l 1,2,-1
 438 730 l 1,3,-1
 336 629 l 1,0,-1
224 -10 m 0,4,5
 177 -10 177 -10 140.5 7.5 c 128,-1,6
 104 25 104 25 78.5 55 c 128,-1,7
 53 85 53 85 40 125 c 128,-1,8
 27 165 27 165 27 210 c 0,9,10
 27 271 27 271 50.5 328.5 c 128,-1,11
 74 386 74 386 116 430.5 c 128,-1,12
 158 475 158 475 214.5 502 c 128,-1,13
 271 529 271 529 337 529 c 0,14,15
 368 529 368 529 397 520 c 128,-1,16
 426 511 426 511 448.5 493.5 c 128,-1,17
 471 476 471 476 484.5 450 c 128,-1,18
 498 424 498 424 498 390 c 0,19,20
 498 240 498 240 226 240 c 0,21,22
 194 240 194 240 158.5 241 c 128,-1,23
 123 242 123 242 80 245 c 1,24,25
 79 237 79 237 78.5 228 c 128,-1,26
 78 219 78 219 78 211 c 0,27,28
 78 174 78 174 87.5 141 c 128,-1,29
 97 108 97 108 116.5 83.5 c 128,-1,30
 136 59 136 59 165.5 44.5 c 128,-1,31
 195 30 195 30 234 30 c 0,32,33
 259 30 259 30 285.5 37.5 c 128,-1,34
 312 45 312 45 336 58.5 c 128,-1,35
 360 72 360 72 380.5 91.5 c 128,-1,36
 401 111 401 111 415 135 c 1,37,-1
 457 122 l 1,38,39
 439 92 439 92 413.5 68 c 128,-1,40
 388 44 388 44 357.5 26.5 c 128,-1,41
 327 9 327 9 293 -0.5 c 128,-1,42
 259 -10 259 -10 224 -10 c 0,4,5
331 488 m 0,43,44
 284 488 284 488 244.5 470.5 c 128,-1,45
 205 453 205 453 174 424.5 c 128,-1,46
 143 396 143 396 121 359 c 128,-1,47
 99 322 99 322 88 283 c 1,48,49
 130 280 130 280 163.5 279 c 128,-1,50
 197 278 197 278 229 278 c 0,51,52
 291 278 291 278 333.5 286.5 c 128,-1,53
 376 295 376 295 402 310 c 128,-1,54
 428 325 428 325 439.5 345.5 c 128,-1,55
 451 366 451 366 451 391 c 256,56,57
 451 416 451 416 440.5 434.5 c 128,-1,58
 430 453 430 453 413.5 465 c 128,-1,59
 397 477 397 477 375 482.5 c 128,-1,60
 353 488 353 488 331 488 c 0,43,44
EndSplineSet
EndChar

StartChar: ecircumflex
Encoding: 234 234 173
Width: 529
GlyphClass: 2
Flags: W
LayerCount: 2
Fore
SplineSet
257 649 m 1,0,-1
 366 730 l 1,1,-1
 403 730 l 1,2,-1
 478 649 l 1,3,-1
 445 632 l 1,4,-1
 377 695 l 1,5,-1
 283 632 l 1,6,-1
 257 649 l 1,0,-1
224 -10 m 0,7,8
 177 -10 177 -10 140.5 7.5 c 128,-1,9
 104 25 104 25 78.5 55 c 128,-1,10
 53 85 53 85 40 125 c 128,-1,11
 27 165 27 165 27 210 c 0,12,13
 27 271 27 271 50.5 328.5 c 128,-1,14
 74 386 74 386 116 430.5 c 128,-1,15
 158 475 158 475 214.5 502 c 128,-1,16
 271 529 271 529 337 529 c 0,17,18
 368 529 368 529 397 520 c 128,-1,19
 426 511 426 511 448.5 493.5 c 128,-1,20
 471 476 471 476 484.5 450 c 128,-1,21
 498 424 498 424 498 390 c 0,22,23
 498 240 498 240 226 240 c 0,24,25
 194 240 194 240 158.5 241 c 128,-1,26
 123 242 123 242 80 245 c 1,27,28
 79 237 79 237 78.5 228 c 128,-1,29
 78 219 78 219 78 211 c 0,30,31
 78 174 78 174 87.5 141 c 128,-1,32
 97 108 97 108 116.5 83.5 c 128,-1,33
 136 59 136 59 165.5 44.5 c 128,-1,34
 195 30 195 30 234 30 c 0,35,36
 259 30 259 30 285.5 37.5 c 128,-1,37
 312 45 312 45 336 58.5 c 128,-1,38
 360 72 360 72 380.5 91.5 c 128,-1,39
 401 111 401 111 415 135 c 1,40,-1
 457 122 l 1,41,42
 439 92 439 92 413.5 68 c 128,-1,43
 388 44 388 44 357.5 26.5 c 128,-1,44
 327 9 327 9 293 -0.5 c 128,-1,45
 259 -10 259 -10 224 -10 c 0,7,8
331 488 m 0,46,47
 284 488 284 488 244.5 470.5 c 128,-1,48
 205 453 205 453 174 424.5 c 128,-1,49
 143 396 143 396 121 359 c 128,-1,50
 99 322 99 322 88 283 c 1,51,52
 130 280 130 280 163.5 279 c 128,-1,53
 197 278 197 278 229 278 c 0,54,55
 291 278 291 278 333.5 286.5 c 128,-1,56
 376 295 376 295 402 310 c 128,-1,57
 428 325 428 325 439.5 345.5 c 128,-1,58
 451 366 451 366 451 391 c 256,59,60
 451 416 451 416 440.5 434.5 c 128,-1,61
 430 453 430 453 413.5 465 c 128,-1,62
 397 477 397 477 375 482.5 c 128,-1,63
 353 488 353 488 331 488 c 0,46,47
EndSplineSet
EndChar

StartChar: edieresis
Encoding: 235 235 174
Width: 529
GlyphClass: 2
Flags: W
LayerCount: 2
Fore
SplineSet
269 640 m 1,0,-1
 287 728 l 1,1,-1
 331 728 l 1,2,-1
 312 640 l 1,3,-1
 269 640 l 1,0,-1
400 640 m 1,4,-1
 419 728 l 1,5,-1
 462 728 l 1,6,-1
 444 640 l 1,7,-1
 400 640 l 1,4,-1
224 -10 m 0,8,9
 177 -10 177 -10 140.5 7.5 c 128,-1,10
 104 25 104 25 78.5 55 c 128,-1,11
 53 85 53 85 40 125 c 128,-1,12
 27 165 27 165 27 210 c 0,13,14
 27 271 27 271 50.5 328.5 c 128,-1,15
 74 386 74 386 116 430.5 c 128,-1,16
 158 475 158 475 214.5 502 c 128,-1,17
 271 529 271 529 337 529 c 0,18,19
 368 529 368 529 397 520 c 128,-1,20
 426 511 426 511 448.5 493.5 c 128,-1,21
 471 476 471 476 484.5 450 c 128,-1,22
 498 424 498 424 498 390 c 0,23,24
 498 240 498 240 226 240 c 0,25,26
 194 240 194 240 158.5 241 c 128,-1,27
 123 242 123 242 80 245 c 1,28,29
 79 237 79 237 78.5 228 c 128,-1,30
 78 219 78 219 78 211 c 0,31,32
 78 174 78 174 87.5 141 c 128,-1,33
 97 108 97 108 116.5 83.5 c 128,-1,34
 136 59 136 59 165.5 44.5 c 128,-1,35
 195 30 195 30 234 30 c 0,36,37
 259 30 259 30 285.5 37.5 c 128,-1,38
 312 45 312 45 336 58.5 c 128,-1,39
 360 72 360 72 380.5 91.5 c 128,-1,40
 401 111 401 111 415 135 c 1,41,-1
 457 122 l 1,42,43
 439 92 439 92 413.5 68 c 128,-1,44
 388 44 388 44 357.5 26.5 c 128,-1,45
 327 9 327 9 293 -0.5 c 128,-1,46
 259 -10 259 -10 224 -10 c 0,8,9
331 488 m 0,47,48
 284 488 284 488 244.5 470.5 c 128,-1,49
 205 453 205 453 174 424.5 c 128,-1,50
 143 396 143 396 121 359 c 128,-1,51
 99 322 99 322 88 283 c 1,52,53
 130 280 130 280 163.5 279 c 128,-1,54
 197 278 197 278 229 278 c 0,55,56
 291 278 291 278 333.5 286.5 c 128,-1,57
 376 295 376 295 402 310 c 128,-1,58
 428 325 428 325 439.5 345.5 c 128,-1,59
 451 366 451 366 451 391 c 256,60,61
 451 416 451 416 440.5 434.5 c 128,-1,62
 430 453 430 453 413.5 465 c 128,-1,63
 397 477 397 477 375 482.5 c 128,-1,64
 353 488 353 488 331 488 c 0,47,48
EndSplineSet
EndChar

StartChar: igrave
Encoding: 236 236 175
Width: 201
GlyphClass: 2
Flags: W
LayerCount: 2
Fore
SplineSet
122 520 m 1,0,-1
 172 520 l 1,1,-1
 62 0 l 1,2,-1
 12 0 l 1,3,-1
 122 520 l 1,0,-1
95 730 m 1,4,-1
 150 730 l 1,5,-1
 191 645 l 1,6,-1
 154 629 l 1,7,-1
 95 730 l 1,4,-1
EndSplineSet
EndChar

StartChar: iacute
Encoding: 237 237 176
Width: 201
GlyphClass: 2
Flags: W
LayerCount: 2
Fore
SplineSet
170 629 m 1,0,-1
 139 645 l 1,1,-1
 215 730 l 1,2,-1
 272 730 l 1,3,-1
 170 629 l 1,0,-1
122 520 m 1,4,-1
 172 520 l 1,5,-1
 62 0 l 1,6,-1
 12 0 l 1,7,-1
 122 520 l 1,4,-1
EndSplineSet
EndChar

StartChar: icircumflex
Encoding: 238 238 177
Width: 201
GlyphClass: 2
Flags: W
LayerCount: 2
Fore
SplineSet
64 649 m 1,0,-1
 173 730 l 1,1,-1
 210 730 l 1,2,-1
 285 649 l 1,3,-1
 252 632 l 1,4,-1
 184 695 l 1,5,-1
 90 632 l 1,6,-1
 64 649 l 1,0,-1
122 520 m 1,7,-1
 172 520 l 1,8,-1
 62 0 l 1,9,-1
 12 0 l 1,10,-1
 122 520 l 1,7,-1
EndSplineSet
EndChar

StartChar: idieresis
Encoding: 239 239 178
Width: 201
GlyphClass: 2
Flags: W
LayerCount: 2
Fore
SplineSet
84 640 m 1,0,-1
 102 728 l 1,1,-1
 146 728 l 1,2,-1
 127 640 l 1,3,-1
 84 640 l 1,0,-1
215 640 m 1,4,-1
 234 728 l 1,5,-1
 277 728 l 1,6,-1
 259 640 l 1,7,-1
 215 640 l 1,4,-1
122 520 m 1,8,-1
 172 520 l 1,9,-1
 62 0 l 1,10,-1
 12 0 l 1,11,-1
 122 520 l 1,8,-1
EndSplineSet
EndChar

StartChar: eth
Encoding: 240 240 179
Width: 575
GlyphClass: 2
Flags: W
LayerCount: 2
Fore
SplineSet
547 689 m 1,0,-1
 451 633 l 1,1,2
 498 570 498 570 516.5 501.5 c 128,-1,3
 535 433 535 433 535 370 c 0,4,5
 535 282 535 282 507 212 c 128,-1,6
 479 142 479 142 434 92.5 c 128,-1,7
 389 43 389 43 332 16.5 c 128,-1,8
 275 -10 275 -10 217 -10 c 0,9,10
 174 -10 174 -10 138 5.5 c 128,-1,11
 102 21 102 21 76.5 48 c 128,-1,12
 51 75 51 75 37 111.5 c 128,-1,13
 23 148 23 148 23 190 c 0,14,15
 23 247 23 247 48 298.5 c 128,-1,16
 73 350 73 350 114 389 c 128,-1,17
 155 428 155 428 207 451 c 128,-1,18
 259 474 259 474 313 474 c 0,19,20
 380 474 380 474 426.5 439 c 128,-1,21
 473 404 473 404 486 347 c 1,22,23
 486 355 486 355 486.5 362.5 c 128,-1,24
 487 370 487 370 487 378 c 0,25,26
 487 437 487 437 472 495.5 c 128,-1,27
 457 554 457 554 410 613 c 1,28,-1
 286 540 l 1,29,-1
 274 565 l 1,30,-1
 393 634 l 1,31,32
 371 658 371 658 344 682 c 128,-1,33
 317 706 317 706 282 730 c 1,34,-1
 352 730 l 1,35,36
 376 712 376 712 396.5 693 c 128,-1,37
 417 674 417 674 434 654 c 1,38,-1
 535 713 l 1,39,-1
 547 689 l 1,0,-1
74 196 m 0,40,41
 74 162 74 162 85 132.5 c 128,-1,42
 96 103 96 103 116.5 81.5 c 128,-1,43
 137 60 137 60 165 47.5 c 128,-1,44
 193 35 193 35 227 35 c 0,45,46
 272 35 272 35 315.5 55 c 128,-1,47
 359 75 359 75 393 108.5 c 128,-1,48
 427 142 427 142 447.5 185.5 c 128,-1,49
 468 229 468 229 468 275 c 0,50,51
 468 308 468 308 456.5 336.5 c 128,-1,52
 445 365 445 365 425 386 c 128,-1,53
 405 407 405 407 376.5 419 c 128,-1,54
 348 431 348 431 314 431 c 0,55,56
 269 431 269 431 226 412 c 128,-1,57
 183 393 183 393 149 360.5 c 128,-1,58
 115 328 115 328 94.5 285.5 c 128,-1,59
 74 243 74 243 74 196 c 0,40,41
EndSplineSet
EndChar

StartChar: ntilde
Encoding: 241 241 180
Width: 552
GlyphClass: 2
Flags: W
LayerCount: 2
Fore
SplineSet
122 520 m 1,0,-1
 169 520 l 1,1,-1
 142 396 l 1,2,3
 163 426 163 426 191 450.5 c 128,-1,4
 219 475 219 475 250.5 492.5 c 128,-1,5
 282 510 282 510 315.5 519.5 c 128,-1,6
 349 529 349 529 382 529 c 0,7,8
 442 529 442 529 468 497 c 128,-1,9
 494 465 494 465 494 404 c 0,10,11
 494 381 494 381 490.5 355 c 128,-1,12
 487 329 487 329 481 299 c 2,13,-1
 418 0 l 1,14,-1
 368 0 l 1,15,-1
 429 290 l 2,16,17
 435 318 435 318 437.5 341 c 128,-1,18
 440 364 440 364 440 383 c 0,19,20
 440 483 440 483 357 483 c 0,21,22
 326 483 326 483 293 471 c 128,-1,23
 260 459 260 459 229.5 437 c 128,-1,24
 199 415 199 415 173 385.5 c 128,-1,25
 147 356 147 356 130 322 c 1,26,-1
 62 0 l 1,27,-1
 12 0 l 1,28,-1
 122 520 l 1,0,-1
401 647 m 0,29,30
 380 647 380 647 365 653 c 128,-1,31
 350 659 350 659 338 666.5 c 128,-1,32
 326 674 326 674 315 680.5 c 128,-1,33
 304 687 304 687 289 687 c 0,34,35
 273 687 273 687 262 680 c 128,-1,36
 251 673 251 673 244.5 664.5 c 128,-1,37
 238 656 238 656 234.5 648.5 c 128,-1,38
 231 641 231 641 231 639 c 2,39,-1
 197 639 l 1,40,41
 198 643 198 643 204 656.5 c 128,-1,42
 210 670 210 670 222 684.5 c 128,-1,43
 234 699 234 699 252 710.5 c 128,-1,44
 270 722 270 722 296 722 c 0,45,46
 315 722 315 722 328.5 715.5 c 128,-1,47
 342 709 342 709 354 701.5 c 128,-1,48
 366 694 366 694 378 688 c 128,-1,49
 390 682 390 682 408 682 c 0,50,51
 427 682 427 682 439 689 c 128,-1,52
 451 696 451 696 458.5 704.5 c 128,-1,53
 466 713 466 713 469.5 720.5 c 128,-1,54
 473 728 473 728 473 730 c 2,55,-1
 506 730 l 1,56,57
 505 725 505 725 499 711.5 c 128,-1,58
 493 698 493 698 480.5 684 c 128,-1,59
 468 670 468 670 448.5 658.5 c 128,-1,60
 429 647 429 647 401 647 c 0,29,30
EndSplineSet
EndChar

StartChar: ograve
Encoding: 242 242 181
Width: 569
GlyphClass: 2
Flags: W
LayerCount: 2
Fore
SplineSet
218 -10 m 0,0,1
 173 -10 173 -10 137.5 7 c 128,-1,2
 102 24 102 24 77.5 53.5 c 128,-1,3
 53 83 53 83 39.5 122.5 c 128,-1,4
 26 162 26 162 26 207 c 0,5,6
 26 270 26 270 51.5 328.5 c 128,-1,7
 77 387 77 387 120 431.5 c 128,-1,8
 163 476 163 476 218.5 502.5 c 128,-1,9
 274 529 274 529 333 529 c 0,10,11
 377 529 377 529 412.5 511.5 c 128,-1,12
 448 494 448 494 472.5 464.5 c 128,-1,13
 497 435 497 435 510.5 395 c 128,-1,14
 524 355 524 355 524 310 c 0,15,16
 524 248 524 248 498.5 190 c 128,-1,17
 473 132 473 132 430.5 87.5 c 128,-1,18
 388 43 388 43 333 16.5 c 128,-1,19
 278 -10 278 -10 218 -10 c 0,0,1
227 35 m 0,20,21
 272 35 272 35 316.5 57 c 128,-1,22
 361 79 361 79 395.5 116 c 128,-1,23
 430 153 430 153 451.5 201.5 c 128,-1,24
 473 250 473 250 473 303 c 0,25,26
 473 341 473 341 462 374 c 128,-1,27
 451 407 451 407 431.5 431.5 c 128,-1,28
 412 456 412 456 384 470 c 128,-1,29
 356 484 356 484 323 484 c 0,30,31
 278 484 278 484 234.5 462 c 128,-1,32
 191 440 191 440 156 402.5 c 128,-1,33
 121 365 121 365 99.5 316 c 128,-1,34
 78 267 78 267 78 213 c 0,35,36
 78 175 78 175 89 142.5 c 128,-1,37
 100 110 100 110 119.5 86 c 128,-1,38
 139 62 139 62 166.5 48.5 c 128,-1,39
 194 35 194 35 227 35 c 0,20,21
304 730 m 1,40,-1
 359 730 l 1,41,-1
 400 645 l 1,42,-1
 363 629 l 1,43,-1
 304 730 l 1,40,-1
EndSplineSet
EndChar

StartChar: oacute
Encoding: 243 243 182
Width: 569
GlyphClass: 2
Flags: W
LayerCount: 2
Fore
SplineSet
350 629 m 1,0,-1
 319 645 l 1,1,-1
 395 730 l 1,2,-1
 452 730 l 1,3,-1
 350 629 l 1,0,-1
218 -10 m 0,4,5
 173 -10 173 -10 137.5 7 c 128,-1,6
 102 24 102 24 77.5 53.5 c 128,-1,7
 53 83 53 83 39.5 122.5 c 128,-1,8
 26 162 26 162 26 207 c 0,9,10
 26 270 26 270 51.5 328.5 c 128,-1,11
 77 387 77 387 120 431.5 c 128,-1,12
 163 476 163 476 218.5 502.5 c 128,-1,13
 274 529 274 529 333 529 c 0,14,15
 377 529 377 529 412.5 511.5 c 128,-1,16
 448 494 448 494 472.5 464.5 c 128,-1,17
 497 435 497 435 510.5 395 c 128,-1,18
 524 355 524 355 524 310 c 0,19,20
 524 248 524 248 498.5 190 c 128,-1,21
 473 132 473 132 430.5 87.5 c 128,-1,22
 388 43 388 43 333 16.5 c 128,-1,23
 278 -10 278 -10 218 -10 c 0,4,5
227 35 m 0,24,25
 272 35 272 35 316.5 57 c 128,-1,26
 361 79 361 79 395.5 116 c 128,-1,27
 430 153 430 153 451.5 201.5 c 128,-1,28
 473 250 473 250 473 303 c 0,29,30
 473 341 473 341 462 374 c 128,-1,31
 451 407 451 407 431.5 431.5 c 128,-1,32
 412 456 412 456 384 470 c 128,-1,33
 356 484 356 484 323 484 c 0,34,35
 278 484 278 484 234.5 462 c 128,-1,36
 191 440 191 440 156 402.5 c 128,-1,37
 121 365 121 365 99.5 316 c 128,-1,38
 78 267 78 267 78 213 c 0,39,40
 78 175 78 175 89 142.5 c 128,-1,41
 100 110 100 110 119.5 86 c 128,-1,42
 139 62 139 62 166.5 48.5 c 128,-1,43
 194 35 194 35 227 35 c 0,24,25
EndSplineSet
EndChar

StartChar: ocircumflex
Encoding: 244 244 183
Width: 569
GlyphClass: 2
Flags: W
LayerCount: 2
Fore
SplineSet
249 649 m 1,0,-1
 358 730 l 1,1,-1
 395 730 l 1,2,-1
 470 649 l 1,3,-1
 437 632 l 1,4,-1
 369 695 l 1,5,-1
 275 632 l 1,6,-1
 249 649 l 1,0,-1
218 -10 m 0,7,8
 173 -10 173 -10 137.5 7 c 128,-1,9
 102 24 102 24 77.5 53.5 c 128,-1,10
 53 83 53 83 39.5 122.5 c 128,-1,11
 26 162 26 162 26 207 c 0,12,13
 26 270 26 270 51.5 328.5 c 128,-1,14
 77 387 77 387 120 431.5 c 128,-1,15
 163 476 163 476 218.5 502.5 c 128,-1,16
 274 529 274 529 333 529 c 0,17,18
 377 529 377 529 412.5 511.5 c 128,-1,19
 448 494 448 494 472.5 464.5 c 128,-1,20
 497 435 497 435 510.5 395 c 128,-1,21
 524 355 524 355 524 310 c 0,22,23
 524 248 524 248 498.5 190 c 128,-1,24
 473 132 473 132 430.5 87.5 c 128,-1,25
 388 43 388 43 333 16.5 c 128,-1,26
 278 -10 278 -10 218 -10 c 0,7,8
227 35 m 0,27,28
 272 35 272 35 316.5 57 c 128,-1,29
 361 79 361 79 395.5 116 c 128,-1,30
 430 153 430 153 451.5 201.5 c 128,-1,31
 473 250 473 250 473 303 c 0,32,33
 473 341 473 341 462 374 c 128,-1,34
 451 407 451 407 431.5 431.5 c 128,-1,35
 412 456 412 456 384 470 c 128,-1,36
 356 484 356 484 323 484 c 0,37,38
 278 484 278 484 234.5 462 c 128,-1,39
 191 440 191 440 156 402.5 c 128,-1,40
 121 365 121 365 99.5 316 c 128,-1,41
 78 267 78 267 78 213 c 0,42,43
 78 175 78 175 89 142.5 c 128,-1,44
 100 110 100 110 119.5 86 c 128,-1,45
 139 62 139 62 166.5 48.5 c 128,-1,46
 194 35 194 35 227 35 c 0,27,28
EndSplineSet
EndChar

StartChar: otilde
Encoding: 245 245 184
Width: 569
GlyphClass: 2
Flags: W
LayerCount: 2
Fore
SplineSet
218 -10 m 0,0,1
 173 -10 173 -10 137.5 7 c 128,-1,2
 102 24 102 24 77.5 53.5 c 128,-1,3
 53 83 53 83 39.5 122.5 c 128,-1,4
 26 162 26 162 26 207 c 0,5,6
 26 270 26 270 51.5 328.5 c 128,-1,7
 77 387 77 387 120 431.5 c 128,-1,8
 163 476 163 476 218.5 502.5 c 128,-1,9
 274 529 274 529 333 529 c 0,10,11
 377 529 377 529 412.5 511.5 c 128,-1,12
 448 494 448 494 472.5 464.5 c 128,-1,13
 497 435 497 435 510.5 395 c 128,-1,14
 524 355 524 355 524 310 c 0,15,16
 524 248 524 248 498.5 190 c 128,-1,17
 473 132 473 132 430.5 87.5 c 128,-1,18
 388 43 388 43 333 16.5 c 128,-1,19
 278 -10 278 -10 218 -10 c 0,0,1
227 35 m 0,20,21
 272 35 272 35 316.5 57 c 128,-1,22
 361 79 361 79 395.5 116 c 128,-1,23
 430 153 430 153 451.5 201.5 c 128,-1,24
 473 250 473 250 473 303 c 0,25,26
 473 341 473 341 462 374 c 128,-1,27
 451 407 451 407 431.5 431.5 c 128,-1,28
 412 456 412 456 384 470 c 128,-1,29
 356 484 356 484 323 484 c 0,30,31
 278 484 278 484 234.5 462 c 128,-1,32
 191 440 191 440 156 402.5 c 128,-1,33
 121 365 121 365 99.5 316 c 128,-1,34
 78 267 78 267 78 213 c 0,35,36
 78 175 78 175 89 142.5 c 128,-1,37
 100 110 100 110 119.5 86 c 128,-1,38
 139 62 139 62 166.5 48.5 c 128,-1,39
 194 35 194 35 227 35 c 0,20,21
411 647 m 0,40,41
 390 647 390 647 375 653 c 128,-1,42
 360 659 360 659 348 666.5 c 128,-1,43
 336 674 336 674 325 680.5 c 128,-1,44
 314 687 314 687 299 687 c 0,45,46
 283 687 283 687 272 680 c 128,-1,47
 261 673 261 673 254.5 664.5 c 128,-1,48
 248 656 248 656 244.5 648.5 c 128,-1,49
 241 641 241 641 241 639 c 2,50,-1
 207 639 l 1,51,52
 208 643 208 643 214 656.5 c 128,-1,53
 220 670 220 670 232 684.5 c 128,-1,54
 244 699 244 699 262 710.5 c 128,-1,55
 280 722 280 722 306 722 c 0,56,57
 325 722 325 722 338.5 715.5 c 128,-1,58
 352 709 352 709 364 701.5 c 128,-1,59
 376 694 376 694 388 688 c 128,-1,60
 400 682 400 682 418 682 c 0,61,62
 437 682 437 682 449 689 c 128,-1,63
 461 696 461 696 468.5 704.5 c 128,-1,64
 476 713 476 713 479.5 720.5 c 128,-1,65
 483 728 483 728 483 730 c 2,66,-1
 516 730 l 1,67,68
 515 725 515 725 509 711.5 c 128,-1,69
 503 698 503 698 490.5 684 c 128,-1,70
 478 670 478 670 458.5 658.5 c 128,-1,71
 439 647 439 647 411 647 c 0,40,41
EndSplineSet
EndChar

StartChar: odieresis
Encoding: 246 246 185
Width: 569
GlyphClass: 2
Flags: W
LayerCount: 2
Fore
SplineSet
267 640 m 1,0,-1
 285 728 l 1,1,-1
 329 728 l 1,2,-1
 310 640 l 1,3,-1
 267 640 l 1,0,-1
398 640 m 1,4,-1
 417 728 l 1,5,-1
 460 728 l 1,6,-1
 442 640 l 1,7,-1
 398 640 l 1,4,-1
218 -10 m 0,8,9
 173 -10 173 -10 137.5 7 c 128,-1,10
 102 24 102 24 77.5 53.5 c 128,-1,11
 53 83 53 83 39.5 122.5 c 128,-1,12
 26 162 26 162 26 207 c 0,13,14
 26 270 26 270 51.5 328.5 c 128,-1,15
 77 387 77 387 120 431.5 c 128,-1,16
 163 476 163 476 218.5 502.5 c 128,-1,17
 274 529 274 529 333 529 c 0,18,19
 377 529 377 529 412.5 511.5 c 128,-1,20
 448 494 448 494 472.5 464.5 c 128,-1,21
 497 435 497 435 510.5 395 c 128,-1,22
 524 355 524 355 524 310 c 0,23,24
 524 248 524 248 498.5 190 c 128,-1,25
 473 132 473 132 430.5 87.5 c 128,-1,26
 388 43 388 43 333 16.5 c 128,-1,27
 278 -10 278 -10 218 -10 c 0,8,9
227 35 m 0,28,29
 272 35 272 35 316.5 57 c 128,-1,30
 361 79 361 79 395.5 116 c 128,-1,31
 430 153 430 153 451.5 201.5 c 128,-1,32
 473 250 473 250 473 303 c 0,33,34
 473 341 473 341 462 374 c 128,-1,35
 451 407 451 407 431.5 431.5 c 128,-1,36
 412 456 412 456 384 470 c 128,-1,37
 356 484 356 484 323 484 c 0,38,39
 278 484 278 484 234.5 462 c 128,-1,40
 191 440 191 440 156 402.5 c 128,-1,41
 121 365 121 365 99.5 316 c 128,-1,42
 78 267 78 267 78 213 c 0,43,44
 78 175 78 175 89 142.5 c 128,-1,45
 100 110 100 110 119.5 86 c 128,-1,46
 139 62 139 62 166.5 48.5 c 128,-1,47
 194 35 194 35 227 35 c 0,28,29
EndSplineSet
EndChar

StartChar: divide
Encoding: 247 247 186
Width: 541
GlyphClass: 2
Flags: W
LayerCount: 2
Fore
SplineSet
243 394 m 1,0,-1
 243 475 l 1,1,-1
 287 475 l 1,2,-1
 287 394 l 1,3,-1
 243 394 l 1,0,-1
243 81 m 1,4,-1
 243 161 l 1,5,-1
 287 161 l 1,6,-1
 287 81 l 1,7,-1
 243 81 l 1,4,-1
64 257 m 1,8,-1
 64 300 l 1,9,-1
 467 300 l 1,10,-1
 467 257 l 1,11,-1
 64 257 l 1,8,-1
EndSplineSet
EndChar

StartChar: oslash
Encoding: 248 248 187
Width: 569
GlyphClass: 2
Flags: W
LayerCount: 2
Fore
SplineSet
81 49 m 1,0,1
 54 78 54 78 40 119 c 128,-1,2
 26 160 26 160 26 207 c 0,3,4
 26 270 26 270 52 328.5 c 128,-1,5
 78 387 78 387 120.5 431.5 c 128,-1,6
 163 476 163 476 218.5 502.5 c 128,-1,7
 274 529 274 529 333 529 c 0,8,9
 401 529 401 529 448 488 c 1,10,-1
 478 521 l 1,11,-1
 516 521 l 1,12,-1
 468 469 l 1,13,14
 495 439 495 439 509.5 398 c 128,-1,15
 524 357 524 357 524 310 c 0,16,17
 524 248 524 248 498.5 190 c 128,-1,18
 473 132 473 132 431 87.5 c 128,-1,19
 389 43 389 43 334 16.5 c 128,-1,20
 279 -10 279 -10 219 -10 c 0,21,22
 150 -10 150 -10 102 29 c 1,23,-1
 74 -1 l 1,24,-1
 36 -1 l 1,25,-1
 81 49 l 1,0,1
227 35 m 0,26,27
 272 35 272 35 316.5 57 c 128,-1,28
 361 79 361 79 395.5 116 c 128,-1,29
 430 153 430 153 451.5 201.5 c 128,-1,30
 473 250 473 250 473 303 c 0,31,32
 473 340 473 340 462.5 372.5 c 128,-1,33
 452 405 452 405 433 429 c 1,34,-1
 135 69 l 1,35,36
 154 53 154 53 177 44 c 128,-1,37
 200 35 200 35 227 35 c 0,26,27
78 213 m 0,38,39
 78 137 78 137 118 88 c 1,40,-1
 414 449 l 1,41,42
 396 466 396 466 373 475 c 128,-1,43
 350 484 350 484 323 484 c 0,44,45
 278 484 278 484 234 462 c 128,-1,46
 190 440 190 440 155.5 402.5 c 128,-1,47
 121 365 121 365 99.5 316 c 128,-1,48
 78 267 78 267 78 213 c 0,38,39
EndSplineSet
EndChar

StartChar: ugrave
Encoding: 249 249 188
Width: 562
GlyphClass: 2
Flags: W
LayerCount: 2
Fore
SplineSet
162 -10 m 0,0,1
 41 -10 41 -10 41 126 c 0,2,3
 41 146 41 146 43.5 169.5 c 128,-1,4
 46 193 46 193 52 220 c 2,5,-1
 117 520 l 1,6,-1
 166 520 l 1,7,-1
 104 227 l 2,8,9
 93 177 93 177 93 142 c 0,10,11
 93 35 93 35 186 35 c 0,12,13
 217 35 217 35 249 46.5 c 128,-1,14
 281 58 281 58 310.5 78.5 c 128,-1,15
 340 99 340 99 366 128 c 128,-1,16
 392 157 392 157 410 192 c 1,17,-1
 479 520 l 1,18,-1
 529 520 l 1,19,-1
 437 85 l 2,20,21
 435 77 435 77 433.5 70 c 128,-1,22
 432 63 432 63 432 61 c 0,23,24
 432 45 432 45 449 45 c 1,25,-1
 439 0 l 1,26,27
 432 -1 432 -1 427 -1 c 128,-1,28
 422 -1 422 -1 417 -1 c 0,29,30
 401 -1 401 -1 392.5 9.5 c 128,-1,31
 384 20 384 20 384 34 c 0,32,33
 384 37 384 37 384.5 41 c 128,-1,34
 385 45 385 45 386.5 54 c 128,-1,35
 388 63 388 63 391.5 79.5 c 128,-1,36
 395 96 395 96 401 123 c 1,37,38
 355 60 355 60 291.5 25 c 128,-1,39
 228 -10 228 -10 162 -10 c 0,0,1
272 730 m 1,40,-1
 327 730 l 1,41,-1
 368 645 l 1,42,-1
 331 629 l 1,43,-1
 272 730 l 1,40,-1
EndSplineSet
EndChar

StartChar: uacute
Encoding: 250 250 189
Width: 562
GlyphClass: 2
Flags: W
LayerCount: 2
Fore
SplineSet
322 629 m 1,0,-1
 291 645 l 1,1,-1
 367 730 l 1,2,-1
 424 730 l 1,3,-1
 322 629 l 1,0,-1
162 -10 m 0,4,5
 41 -10 41 -10 41 126 c 0,6,7
 41 146 41 146 43.5 169.5 c 128,-1,8
 46 193 46 193 52 220 c 2,9,-1
 117 520 l 1,10,-1
 166 520 l 1,11,-1
 104 227 l 2,12,13
 93 177 93 177 93 142 c 0,14,15
 93 35 93 35 186 35 c 0,16,17
 217 35 217 35 249 46.5 c 128,-1,18
 281 58 281 58 310.5 78.5 c 128,-1,19
 340 99 340 99 366 128 c 128,-1,20
 392 157 392 157 410 192 c 1,21,-1
 479 520 l 1,22,-1
 529 520 l 1,23,-1
 437 85 l 2,24,25
 435 77 435 77 433.5 70 c 128,-1,26
 432 63 432 63 432 61 c 0,27,28
 432 45 432 45 449 45 c 1,29,-1
 439 0 l 1,30,31
 432 -1 432 -1 427 -1 c 128,-1,32
 422 -1 422 -1 417 -1 c 0,33,34
 401 -1 401 -1 392.5 9.5 c 128,-1,35
 384 20 384 20 384 34 c 0,36,37
 384 37 384 37 384.5 41 c 128,-1,38
 385 45 385 45 386.5 54 c 128,-1,39
 388 63 388 63 391.5 79.5 c 128,-1,40
 395 96 395 96 401 123 c 1,41,42
 355 60 355 60 291.5 25 c 128,-1,43
 228 -10 228 -10 162 -10 c 0,4,5
EndSplineSet
EndChar

StartChar: ucircumflex
Encoding: 251 251 190
Width: 562
GlyphClass: 2
Flags: W
LayerCount: 2
Fore
SplineSet
239 649 m 1,0,-1
 348 730 l 1,1,-1
 385 730 l 1,2,-1
 460 649 l 1,3,-1
 427 632 l 1,4,-1
 359 695 l 1,5,-1
 265 632 l 1,6,-1
 239 649 l 1,0,-1
162 -10 m 0,7,8
 41 -10 41 -10 41 126 c 0,9,10
 41 146 41 146 43.5 169.5 c 128,-1,11
 46 193 46 193 52 220 c 2,12,-1
 117 520 l 1,13,-1
 166 520 l 1,14,-1
 104 227 l 2,15,16
 93 177 93 177 93 142 c 0,17,18
 93 35 93 35 186 35 c 0,19,20
 217 35 217 35 249 46.5 c 128,-1,21
 281 58 281 58 310.5 78.5 c 128,-1,22
 340 99 340 99 366 128 c 128,-1,23
 392 157 392 157 410 192 c 1,24,-1
 479 520 l 1,25,-1
 529 520 l 1,26,-1
 437 85 l 2,27,28
 435 77 435 77 433.5 70 c 128,-1,29
 432 63 432 63 432 61 c 0,30,31
 432 45 432 45 449 45 c 1,32,-1
 439 0 l 1,33,34
 432 -1 432 -1 427 -1 c 128,-1,35
 422 -1 422 -1 417 -1 c 0,36,37
 401 -1 401 -1 392.5 9.5 c 128,-1,38
 384 20 384 20 384 34 c 0,39,40
 384 37 384 37 384.5 41 c 128,-1,41
 385 45 385 45 386.5 54 c 128,-1,42
 388 63 388 63 391.5 79.5 c 128,-1,43
 395 96 395 96 401 123 c 1,44,45
 355 60 355 60 291.5 25 c 128,-1,46
 228 -10 228 -10 162 -10 c 0,7,8
EndSplineSet
EndChar

StartChar: udieresis
Encoding: 252 252 191
Width: 562
GlyphClass: 2
Flags: W
LayerCount: 2
Fore
SplineSet
255 640 m 1,0,-1
 273 728 l 1,1,-1
 317 728 l 1,2,-1
 298 640 l 1,3,-1
 255 640 l 1,0,-1
386 640 m 1,4,-1
 405 728 l 1,5,-1
 448 728 l 1,6,-1
 430 640 l 1,7,-1
 386 640 l 1,4,-1
162 -10 m 0,8,9
 41 -10 41 -10 41 126 c 0,10,11
 41 146 41 146 43.5 169.5 c 128,-1,12
 46 193 46 193 52 220 c 2,13,-1
 117 520 l 1,14,-1
 166 520 l 1,15,-1
 104 227 l 2,16,17
 93 177 93 177 93 142 c 0,18,19
 93 35 93 35 186 35 c 0,20,21
 217 35 217 35 249 46.5 c 128,-1,22
 281 58 281 58 310.5 78.5 c 128,-1,23
 340 99 340 99 366 128 c 128,-1,24
 392 157 392 157 410 192 c 1,25,-1
 479 520 l 1,26,-1
 529 520 l 1,27,-1
 437 85 l 2,28,29
 435 77 435 77 433.5 70 c 128,-1,30
 432 63 432 63 432 61 c 0,31,32
 432 45 432 45 449 45 c 1,33,-1
 439 0 l 1,34,35
 432 -1 432 -1 427 -1 c 128,-1,36
 422 -1 422 -1 417 -1 c 0,37,38
 401 -1 401 -1 392.5 9.5 c 128,-1,39
 384 20 384 20 384 34 c 0,40,41
 384 37 384 37 384.5 41 c 128,-1,42
 385 45 385 45 386.5 54 c 128,-1,43
 388 63 388 63 391.5 79.5 c 128,-1,44
 395 96 395 96 401 123 c 1,45,46
 355 60 355 60 291.5 25 c 128,-1,47
 228 -10 228 -10 162 -10 c 0,8,9
EndSplineSet
EndChar

StartChar: yacute
Encoding: 253 253 192
Width: 478
GlyphClass: 2
Flags: W
LayerCount: 2
Fore
SplineSet
-36 -183 m 1,0,1
 -5 -178 -5 -178 16.5 -169.5 c 128,-1,2
 38 -161 38 -161 56 -147 c 128,-1,3
 74 -133 74 -133 90.5 -111.5 c 128,-1,4
 107 -90 107 -90 127 -59 c 2,5,-1
 163 -5 l 1,6,-1
 52 520 l 1,7,-1
 104 520 l 1,8,-1
 198 49 l 1,9,-1
 246 125 l 2,10,11
 291 197 291 197 321.5 250.5 c 128,-1,12
 352 304 352 304 374 349 c 128,-1,13
 396 394 396 394 411 434.5 c 128,-1,14
 426 475 426 475 438 520 c 1,15,-1
 488 520 l 1,16,17
 474 472 474 472 459 430.5 c 128,-1,18
 444 389 444 389 421.5 342.5 c 128,-1,19
 399 296 399 296 365.5 239 c 128,-1,20
 332 182 332 182 282 103 c 2,21,-1
 200 -26 l 2,22,23
 165 -82 165 -82 137.5 -118.5 c 128,-1,24
 110 -155 110 -155 84 -177.5 c 128,-1,25
 58 -200 58 -200 31 -210.5 c 128,-1,26
 4 -221 4 -221 -30 -224 c 1,27,-1
 -36 -183 l 1,0,1
285 629 m 1,28,-1
 254 645 l 1,29,-1
 330 730 l 1,30,-1
 387 730 l 1,31,-1
 285 629 l 1,28,-1
EndSplineSet
EndChar

StartChar: thorn
Encoding: 254 254 193
Width: 577
GlyphClass: 2
Flags: W
LayerCount: 2
Fore
SplineSet
163 710 m 1,0,-1
 214 710 l 1,1,-1
 152 421 l 1,2,3
 194 468 194 468 243 499 c 128,-1,4
 292 530 292 530 353 530 c 0,5,6
 398 530 398 530 432 512.5 c 128,-1,7
 466 495 466 495 488.5 465.5 c 128,-1,8
 511 436 511 436 522.5 398.5 c 128,-1,9
 534 361 534 361 534 321 c 0,10,11
 534 264 534 264 512 204.5 c 128,-1,12
 490 145 490 145 450.5 96.5 c 128,-1,13
 411 48 411 48 356.5 17 c 128,-1,14
 302 -14 302 -14 237 -14 c 256,15,16
 172 -14 172 -14 135 15.5 c 128,-1,17
 98 45 98 45 81 87 c 1,18,-1
 18 -213 l 1,19,-1
 -33 -213 l 1,20,-1
 163 710 l 1,0,-1
248 33 m 0,21,22
 293 33 293 33 335.5 55.5 c 128,-1,23
 378 78 378 78 410.5 116 c 128,-1,24
 443 154 443 154 462.5 204 c 128,-1,25
 482 254 482 254 482 309 c 0,26,27
 482 346 482 346 472.5 378 c 128,-1,28
 463 410 463 410 445 433.5 c 128,-1,29
 427 457 427 457 400.5 470.5 c 128,-1,30
 374 484 374 484 340 484 c 0,31,32
 310 484 310 484 281.5 473.5 c 128,-1,33
 253 463 253 463 227 444.5 c 128,-1,34
 201 426 201 426 178.5 402 c 128,-1,35
 156 378 156 378 137 351 c 1,36,-1
 99 171 l 2,37,38
 97 166 97 166 97 162.5 c 128,-1,39
 97 159 97 159 97 156 c 0,40,41
 97 131 97 131 109.5 108.5 c 128,-1,42
 122 86 122 86 142.5 69.5 c 128,-1,43
 163 53 163 53 190.5 43 c 128,-1,44
 218 33 218 33 248 33 c 0,21,22
EndSplineSet
EndChar

StartChar: ydieresis
Encoding: 255 255 194
Width: 478
GlyphClass: 2
Flags: W
LayerCount: 2
Fore
SplineSet
-36 -183 m 1,0,1
 -5 -178 -5 -178 16.5 -169.5 c 128,-1,2
 38 -161 38 -161 56 -147 c 128,-1,3
 74 -133 74 -133 90.5 -111.5 c 128,-1,4
 107 -90 107 -90 127 -59 c 2,5,-1
 163 -5 l 1,6,-1
 52 520 l 1,7,-1
 104 520 l 1,8,-1
 198 49 l 1,9,-1
 246 125 l 2,10,11
 291 197 291 197 321.5 250.5 c 128,-1,12
 352 304 352 304 374 349 c 128,-1,13
 396 394 396 394 411 434.5 c 128,-1,14
 426 475 426 475 438 520 c 1,15,-1
 488 520 l 1,16,17
 474 472 474 472 459 430.5 c 128,-1,18
 444 389 444 389 421.5 342.5 c 128,-1,19
 399 296 399 296 365.5 239 c 128,-1,20
 332 182 332 182 282 103 c 2,21,-1
 200 -26 l 2,22,23
 165 -82 165 -82 137.5 -118.5 c 128,-1,24
 110 -155 110 -155 84 -177.5 c 128,-1,25
 58 -200 58 -200 31 -210.5 c 128,-1,26
 4 -221 4 -221 -30 -224 c 1,27,-1
 -36 -183 l 1,0,1
206 640 m 1,28,-1
 224 728 l 1,29,-1
 268 728 l 1,30,-1
 249 640 l 1,31,-1
 206 640 l 1,28,-1
337 640 m 1,32,-1
 356 728 l 1,33,-1
 399 728 l 1,34,-1
 381 640 l 1,35,-1
 337 640 l 1,32,-1
EndSplineSet
EndChar

StartChar: Amacron
Encoding: 256 256 195
Width: 649
GlyphClass: 2
Flags: W
LayerCount: 2
Fore
SplineSet
394 710 m 1,0,-1
 438 710 l 1,1,-1
 571 0 l 1,2,-1
 517 0 l 1,3,-1
 473 234 l 1,4,-1
 154 234 l 1,5,-1
 12 0 l 1,6,-1
 -43 0 l 1,7,-1
 394 710 l 1,0,-1
469 276 m 1,8,-1
 403 648 l 1,9,-1
 175 276 l 1,10,-1
 469 276 l 1,8,-1
307 858 m 1,11,-1
 315 895 l 1,12,-1
 587 895 l 1,13,-1
 579 858 l 1,14,-1
 307 858 l 1,11,-1
EndSplineSet
EndChar

StartChar: amacron
Encoding: 257 257 196
Width: 591
GlyphClass: 2
Flags: W
LayerCount: 2
Fore
SplineSet
212 -10 m 0,0,1
 169 -10 169 -10 134.5 8 c 128,-1,2
 100 26 100 26 76 56 c 128,-1,3
 52 86 52 86 39.5 125.5 c 128,-1,4
 27 165 27 165 27 209 c 0,5,6
 27 270 27 270 51 327.5 c 128,-1,7
 75 385 75 385 115.5 430 c 128,-1,8
 156 475 156 475 208 502 c 128,-1,9
 260 529 260 529 317 529 c 0,10,11
 350 529 350 529 376.5 519 c 128,-1,12
 403 509 403 509 424 492.5 c 128,-1,13
 445 476 445 476 460 454 c 128,-1,14
 475 432 475 432 484 407 c 1,15,-1
 508 520 l 1,16,-1
 559 520 l 1,17,-1
 463 72 l 2,18,19
 461 64 461 64 461 60 c 0,20,21
 461 45 461 45 478 45 c 1,22,-1
 468 0 l 1,23,24
 463 -1 463 -1 459.5 -1.5 c 128,-1,25
 456 -2 456 -2 453 -2 c 0,26,27
 433 -2 433 -2 422.5 8 c 128,-1,28
 412 18 412 18 412 34 c 0,29,30
 412 37 412 37 412.5 41.5 c 128,-1,31
 413 46 413 46 414.5 53.5 c 128,-1,32
 416 61 416 61 418 73 c 128,-1,33
 420 85 420 85 424 104 c 1,34,35
 383 52 383 52 326 21 c 128,-1,36
 269 -10 269 -10 212 -10 c 0,0,1
230 35 m 0,37,38
 257 35 257 35 289 46.5 c 128,-1,39
 321 58 321 58 350.5 77 c 128,-1,40
 380 96 380 96 403 121.5 c 128,-1,41
 426 147 426 147 435 175 c 2,42,-1
 471 346 l 1,43,44
 467 374 467 374 453.5 399 c 128,-1,45
 440 424 440 424 419.5 443 c 128,-1,46
 399 462 399 462 373 473 c 128,-1,47
 347 484 347 484 317 484 c 0,48,49
 269 484 269 484 226 460 c 128,-1,50
 183 436 183 436 150.5 397.5 c 128,-1,51
 118 359 118 359 98.5 311 c 128,-1,52
 79 263 79 263 79 215 c 0,53,54
 79 179 79 179 90 146 c 128,-1,55
 101 113 101 113 121 88.5 c 128,-1,56
 141 64 141 64 169 49.5 c 128,-1,57
 197 35 197 35 230 35 c 0,37,38
231 671 m 1,58,-1
 239 708 l 1,59,-1
 511 708 l 1,60,-1
 503 671 l 1,61,-1
 231 671 l 1,58,-1
EndSplineSet
EndChar

StartChar: Abreve
Encoding: 258 258 197
Width: 649
GlyphClass: 2
Flags: W
LayerCount: 2
Fore
SplineSet
394 710 m 1,0,-1
 438 710 l 1,1,-1
 571 0 l 1,2,-1
 517 0 l 1,3,-1
 473 234 l 1,4,-1
 154 234 l 1,5,-1
 12 0 l 1,6,-1
 -43 0 l 1,7,-1
 394 710 l 1,0,-1
469 276 m 1,8,-1
 403 648 l 1,9,-1
 175 276 l 1,10,-1
 469 276 l 1,8,-1
438 853 m 0,11,12
 458 853 458 853 478 871.5 c 128,-1,13
 498 890 498 890 506 917 c 1,14,-1
 538 917 l 1,15,16
 534 898 534 898 523.5 881 c 128,-1,17
 513 864 513 864 498.5 851.5 c 128,-1,18
 484 839 484 839 467 832 c 128,-1,19
 450 825 450 825 433 825 c 0,20,21
 401 825 401 825 382 845.5 c 128,-1,22
 363 866 363 866 363 897 c 0,23,24
 363 906 363 906 366 917 c 1,25,-1
 399 917 l 1,26,27
 398 912 398 912 398 903 c 0,28,29
 398 883 398 883 409.5 868 c 128,-1,30
 421 853 421 853 438 853 c 0,11,12
EndSplineSet
EndChar

StartChar: abreve
Encoding: 259 259 198
Width: 591
GlyphClass: 2
Flags: W
LayerCount: 2
Fore
SplineSet
212 -10 m 0,0,1
 169 -10 169 -10 134.5 8 c 128,-1,2
 100 26 100 26 76 56 c 128,-1,3
 52 86 52 86 39.5 125.5 c 128,-1,4
 27 165 27 165 27 209 c 0,5,6
 27 270 27 270 51 327.5 c 128,-1,7
 75 385 75 385 115.5 430 c 128,-1,8
 156 475 156 475 208 502 c 128,-1,9
 260 529 260 529 317 529 c 0,10,11
 350 529 350 529 376.5 519 c 128,-1,12
 403 509 403 509 424 492.5 c 128,-1,13
 445 476 445 476 460 454 c 128,-1,14
 475 432 475 432 484 407 c 1,15,-1
 508 520 l 1,16,-1
 559 520 l 1,17,-1
 463 72 l 2,18,19
 461 64 461 64 461 60 c 0,20,21
 461 45 461 45 478 45 c 1,22,-1
 468 0 l 1,23,24
 463 -1 463 -1 459.5 -1.5 c 128,-1,25
 456 -2 456 -2 453 -2 c 0,26,27
 433 -2 433 -2 422.5 8 c 128,-1,28
 412 18 412 18 412 34 c 0,29,30
 412 37 412 37 412.5 41.5 c 128,-1,31
 413 46 413 46 414.5 53.5 c 128,-1,32
 416 61 416 61 418 73 c 128,-1,33
 420 85 420 85 424 104 c 1,34,35
 383 52 383 52 326 21 c 128,-1,36
 269 -10 269 -10 212 -10 c 0,0,1
230 35 m 0,37,38
 257 35 257 35 289 46.5 c 128,-1,39
 321 58 321 58 350.5 77 c 128,-1,40
 380 96 380 96 403 121.5 c 128,-1,41
 426 147 426 147 435 175 c 2,42,-1
 471 346 l 1,43,44
 467 374 467 374 453.5 399 c 128,-1,45
 440 424 440 424 419.5 443 c 128,-1,46
 399 462 399 462 373 473 c 128,-1,47
 347 484 347 484 317 484 c 0,48,49
 269 484 269 484 226 460 c 128,-1,50
 183 436 183 436 150.5 397.5 c 128,-1,51
 118 359 118 359 98.5 311 c 128,-1,52
 79 263 79 263 79 215 c 0,53,54
 79 179 79 179 90 146 c 128,-1,55
 101 113 101 113 121 88.5 c 128,-1,56
 141 64 141 64 169 49.5 c 128,-1,57
 197 35 197 35 230 35 c 0,37,38
354 666 m 0,58,59
 374 666 374 666 394 684.5 c 128,-1,60
 414 703 414 703 422 730 c 1,61,-1
 454 730 l 1,62,63
 450 711 450 711 439.5 694 c 128,-1,64
 429 677 429 677 414.5 664.5 c 128,-1,65
 400 652 400 652 383 645 c 128,-1,66
 366 638 366 638 349 638 c 0,67,68
 317 638 317 638 298 658.5 c 128,-1,69
 279 679 279 679 279 710 c 0,70,71
 279 719 279 719 282 730 c 1,72,-1
 315 730 l 1,73,74
 314 725 314 725 314 716 c 0,75,76
 314 696 314 696 325.5 681 c 128,-1,77
 337 666 337 666 354 666 c 0,58,59
EndSplineSet
EndChar

StartChar: Aogonek
Encoding: 260 260 199
Width: 649
GlyphClass: 2
Flags: W
LayerCount: 2
Fore
SplineSet
488 -169 m 1,0,1
 462 -163 462 -163 449.5 -148 c 128,-1,2
 437 -133 437 -133 437 -113 c 0,3,4
 437 -84 437 -84 458 -58 c 128,-1,5
 479 -32 479 -32 530 0 c 1,6,-1
 517 0 l 1,7,-1
 473 234 l 1,8,-1
 154 234 l 1,9,-1
 12 0 l 1,10,-1
 -43 0 l 1,11,-1
 394 710 l 1,12,-1
 438 710 l 1,13,-1
 571 0 l 1,14,15
 515 -34 515 -34 493.5 -56.5 c 128,-1,16
 472 -79 472 -79 472 -102 c 0,17,18
 472 -133 472 -133 511 -139 c 1,19,-1
 488 -169 l 1,0,1
469 276 m 1,20,-1
 403 648 l 1,21,-1
 175 276 l 1,22,-1
 469 276 l 1,20,-1
EndSplineSet
EndChar

StartChar: aogonek
Encoding: 261 261 200
Width: 591
GlyphClass: 2
Flags: W
LayerCount: 2
Fore
SplineSet
385 -169 m 1,0,1
 359 -163 359 -163 346.5 -148 c 128,-1,2
 334 -133 334 -133 334 -113 c 0,3,4
 334 -84 334 -84 356 -57.5 c 128,-1,5
 378 -31 378 -31 431 2 c 1,6,7
 412 11 412 11 412 34 c 0,8,9
 412 37 412 37 412.5 41.5 c 128,-1,10
 413 46 413 46 414.5 53.5 c 128,-1,11
 416 61 416 61 418 73 c 128,-1,12
 420 85 420 85 424 104 c 1,13,14
 383 52 383 52 326 21 c 128,-1,15
 269 -10 269 -10 212 -10 c 0,16,17
 169 -10 169 -10 134.5 8 c 128,-1,18
 100 26 100 26 76 56 c 128,-1,19
 52 86 52 86 39.5 125.5 c 128,-1,20
 27 165 27 165 27 209 c 0,21,22
 27 270 27 270 51 327.5 c 128,-1,23
 75 385 75 385 115.5 430 c 128,-1,24
 156 475 156 475 208 502 c 128,-1,25
 260 529 260 529 317 529 c 0,26,27
 350 529 350 529 376.5 519 c 128,-1,28
 403 509 403 509 424 492.5 c 128,-1,29
 445 476 445 476 460 454 c 128,-1,30
 475 432 475 432 484 407 c 1,31,-1
 508 520 l 1,32,-1
 559 520 l 1,33,-1
 463 72 l 2,34,35
 461 64 461 64 461 60 c 0,36,37
 461 45 461 45 478 45 c 1,38,-1
 468 0 l 1,39,40
 412 -34 412 -34 390.5 -56.5 c 128,-1,41
 369 -79 369 -79 369 -102 c 0,42,43
 369 -133 369 -133 408 -139 c 1,44,-1
 385 -169 l 1,0,1
230 35 m 0,45,46
 257 35 257 35 289 46.5 c 128,-1,47
 321 58 321 58 350.5 77 c 128,-1,48
 380 96 380 96 403 121.5 c 128,-1,49
 426 147 426 147 435 175 c 2,50,-1
 471 346 l 1,51,52
 467 374 467 374 453.5 399 c 128,-1,53
 440 424 440 424 419.5 443 c 128,-1,54
 399 462 399 462 373 473 c 128,-1,55
 347 484 347 484 317 484 c 0,56,57
 269 484 269 484 226 460 c 128,-1,58
 183 436 183 436 150.5 397.5 c 128,-1,59
 118 359 118 359 98.5 311 c 128,-1,60
 79 263 79 263 79 215 c 0,61,62
 79 179 79 179 90 146 c 128,-1,63
 101 113 101 113 121 88.5 c 128,-1,64
 141 64 141 64 169 49.5 c 128,-1,65
 197 35 197 35 230 35 c 0,45,46
EndSplineSet
EndChar

